SplineFontDB: 3.0
FontName: Kinnari
FullName: Kinnari
FamilyName: Kinnari
Weight: Medium
Copyright: Copyright (C) 1999 Db Type. All Rights Reserved.\nCopyright (C) 2007 National Electronics and Computer Technology Center. All Rights Reserved.
Version: 001.010: 2012-02-13
ItalicAngle: 0
UnderlinePosition: -94
UnderlineWidth: 25
Ascent: 800
Descent: 200
InvalidEm: 0
sfntRevision: 0x0001028f
LayerCount: 2
Layer: 0 1 "Back" 1
Layer: 1 1 "Fore" 0
XUID: [1021 542 582384140 371767]
StyleMap: 0x0040
FSType: 0
OS2Version: 1
OS2_WeightWidthSlopeOnly: 0
OS2_UseTypoMetrics: 0
CreationTime: 1136287438
ModificationTime: 1465826274
PfmFamily: 81
TTFWeight: 500
TTFWidth: 5
LineGap: 0
VLineGap: 0
Panose: 0 0 0 0 0 0 0 0 0 0
OS2TypoAscent: 800
OS2TypoAOffset: 0
OS2TypoDescent: -200
OS2TypoDOffset: 0
OS2TypoLinegap: 0
OS2WinAscent: 1286
OS2WinAOffset: 0
OS2WinDescent: 496
OS2WinDOffset: 0
HheadAscent: 1286
HheadAOffset: 0
HheadDescent: -496
HheadDOffset: 0
OS2SubXSize: 650
OS2SubYSize: 699
OS2SubXOff: 0
OS2SubYOff: 140
OS2SupXSize: 650
OS2SupYSize: 699
OS2SupXOff: 0
OS2SupYOff: 479
OS2StrikeYSize: 49
OS2StrikeYPos: 258
OS2Vendor: 'PfEd'
OS2CodePages: 00010001.00000000
OS2UnicodeRanges: 8100002f.5000200a.00000000.00000000
Lookup: 4 0 1 "'liga' Standard Ligatures in Latin lookup 0" { "'liga' Standard Ligatures in Latin lookup 0 subtable"  } ['liga' ('latn' <'dflt' > ) ]
Lookup: 6 0 0 "'ccmp' Glyph Composition/Decomposition in Thai lookup 1" { "'ccmp' Glyph Composition/Decomposition in Thai lookup 1 subtable"  } ['ccmp' ('DFLT' <'dflt' > 'thai' <'KUY ' 'THA ' 'dflt' > ) ]
Lookup: 1 0 0 "'ccmp' Glyph Composition/Decomposition in Thai lookup 2" { "'ccmp' Glyph Composition/Decomposition in Thai lookup 2 subtable"  } ['ccmp' ('thai' <'PAL ' 'SAN ' > ) ]

StartChar: .notdef
Encoding: 0 -1 0
AltUni2: 000000.ffffffff.0
Width: 384
Flags: W
LayerCount: 2
Fore
SplineSet
23 568 m 1,0,-1
 23 23 l 1,1,-1
 361 23 l 1,2,-1
 361 568 l 1,3,-1
 23 568 l 1,0,-1
384 0 m 1,4,-1
 0 0 l 1,5,-1
 0 591 l 1,6,-1
 384 591 l 1,7,-1
 384 0 l 1,4,-1
EndSplineSet
EndChar

StartChar: exclam
Encoding: 33 33 4
Width: 333
GlyphClass: 2
Flags: W
LayerCount: 2
Fore
SplineSet
220 596 m 0,0,1
 220 592 220 592 217 547 c 2,2,-1
 174 177 l 1,3,-1
 160 177 l 1,4,-1
 117 547 l 2,5,6
 117 554 117 554 115.5 570.5 c 128,-1,7
 114 587 114 587 114 596 c 0,8,9
 114 627 114 627 126 651.5 c 128,-1,10
 138 676 138 676 167 676 c 0,11,12
 220 676 220 676 220 596 c 0,0,1
224 41 m 0,13,14
 224 17 224 17 207 1.5 c 128,-1,15
 190 -14 190 -14 166 -14 c 0,16,17
 144 -14 144 -14 126.5 2.5 c 128,-1,18
 109 19 109 19 109 41 c 0,19,20
 109 66 109 66 125.5 83.5 c 128,-1,21
 142 101 142 101 167 101 c 0,22,23
 191 101 191 101 207.5 83.5 c 128,-1,24
 224 66 224 66 224 41 c 0,13,14
EndSplineSet
EndChar

StartChar: numbersign
Encoding: 35 35 6
Width: 499
GlyphClass: 2
Flags: W
LayerCount: 2
Fore
SplineSet
495 404 m 1,0,-1
 390 404 l 1,1,-1
 370 270 l 1,2,-1
 470 270 l 1,3,-1
 470 217 l 1,4,-1
 361 217 l 1,5,-1
 330 0 l 1,6,-1
 272 0 l 1,7,-1
 303 217 l 1,8,-1
 169 217 l 1,9,-1
 137 0 l 1,10,-1
 78 0 l 1,11,-1
 111 217 l 1,12,-1
 5 217 l 1,13,-1
 5 270 l 1,14,-1
 120 270 l 1,15,-1
 141 404 l 1,16,-1
 31 404 l 1,17,-1
 31 459 l 1,18,-1
 149 459 l 1,19,-1
 180 662 l 1,20,-1
 238 662 l 1,21,-1
 207 459 l 1,22,-1
 339 459 l 1,23,-1
 370 662 l 1,24,-1
 427 662 l 1,25,-1
 398 459 l 1,26,-1
 495 459 l 1,27,-1
 495 404 l 1,0,-1
332 404 m 1,28,-1
 200 404 l 1,29,-1
 178 270 l 1,30,-1
 312 270 l 1,31,-1
 332 404 l 1,28,-1
EndSplineSet
EndChar

StartChar: dollar
Encoding: 36 36 7
Width: 499
GlyphClass: 2
Flags: W
LayerCount: 2
Fore
SplineSet
456 178 m 0,0,1
 456 98 456 98 401.5 52 c 128,-1,2
 347 6 347 6 264 0 c 1,3,-1
 264 -88 l 1,4,-1
 230 -88 l 1,5,-1
 230 0 l 1,6,7
 128 0 128 0 45 51 c 1,8,-1
 45 181 l 1,9,-1
 60 181 l 1,10,11
 72 110 72 110 115 69.5 c 128,-1,12
 158 29 158 29 230 28 c 1,13,-1
 230 310 l 1,14,15
 202 326 202 326 195 330 c 128,-1,16
 188 334 188 334 162.5 350 c 128,-1,17
 137 366 137 366 127.5 374.5 c 128,-1,18
 118 383 118 383 99.5 400.5 c 128,-1,19
 81 418 81 418 73.5 432.5 c 128,-1,20
 66 447 66 447 59 467 c 128,-1,21
 52 487 52 487 52 508 c 0,22,23
 52 580 52 580 104 620 c 128,-1,24
 156 660 156 660 230 662 c 1,25,-1
 230 727 l 1,26,-1
 264 727 l 1,27,-1
 264 662 l 1,28,29
 362 659 362 659 424 610 c 1,30,-1
 424 499 l 1,31,-1
 410 499 l 1,32,33
 401 557 401 557 362 594.5 c 128,-1,34
 323 632 323 632 264 636 c 1,35,-1
 264 390 l 1,36,37
 270 387 270 387 281 381 c 0,38,39
 323 359 323 359 345.5 345 c 128,-1,40
 368 331 368 331 398 305.5 c 128,-1,41
 428 280 428 280 442 248.5 c 128,-1,42
 456 217 456 217 456 178 c 0,0,1
230 407 m 1,43,-1
 230 636 l 1,44,45
 200 636 200 636 163.5 606 c 128,-1,46
 127 576 127 576 127 533 c 0,47,48
 127 514 127 514 132.5 498.5 c 128,-1,49
 138 483 138 483 151 469 c 128,-1,50
 164 455 164 455 173 447.5 c 128,-1,51
 182 440 182 440 202.5 426 c 128,-1,52
 223 412 223 412 230 407 c 1,43,-1
378 152 m 0,53,54
 378 200 378 200 347 232.5 c 128,-1,55
 316 265 316 265 264 293 c 1,56,-1
 264 28 l 1,57,58
 317 35 317 35 347.5 67.5 c 128,-1,59
 378 100 378 100 378 152 c 0,53,54
EndSplineSet
EndChar

StartChar: percent
Encoding: 37 37 8
Width: 832
GlyphClass: 2
Flags: W
LayerCount: 2
Fore
SplineSet
276 662 m 0,0,1
 317 662 317 662 350.5 634.5 c 128,-1,2
 384 607 384 607 436 607 c 0,3,4
 481 607 481 607 521 625.5 c 128,-1,5
 561 644 561 644 585 676 c 1,6,-1
 633 676 l 1,7,-1
 249 -14 l 1,8,-1
 201 -14 l 1,9,-1
 550 610 l 1,10,11
 489 585 489 585 429 585 c 0,12,13
 398 585 398 585 376 593 c 1,14,15
 376 586 376 586 380 567 c 128,-1,16
 384 548 384 548 384 539 c 0,17,18
 384 442 384 442 316.5 364.5 c 128,-1,19
 249 287 249 287 180 287 c 0,20,21
 123 287 123 287 92 323 c 128,-1,22
 61 359 61 359 61 424 c 0,23,24
 61 507 61 507 127.5 584.5 c 128,-1,25
 194 662 194 662 276 662 c 0,0,1
771 247 m 0,26,27
 771 137 771 137 708.5 61.5 c 128,-1,28
 646 -14 646 -14 576 -14 c 0,29,30
 505 -14 505 -14 477 22.5 c 128,-1,31
 449 59 449 59 449 123 c 0,32,33
 449 206 449 206 516 281 c 128,-1,34
 583 356 583 356 665 356 c 0,35,36
 713 356 713 356 742 323 c 128,-1,37
 771 290 771 290 771 247 c 0,26,27
358 553 m 0,38,39
 358 559 358 559 350 599 c 1,40,41
 330 605 330 605 309.5 619 c 128,-1,42
 289 633 289 633 281 633 c 0,43,44
 260 633 260 633 227.5 603.5 c 128,-1,45
 195 574 195 574 166 516.5 c 128,-1,46
 137 459 137 459 137 396 c 0,47,48
 137 323 137 323 200 323 c 1,49,50
 268 329 268 329 313 401.5 c 128,-1,51
 358 474 358 474 358 553 c 0,38,39
676 324 m 0,52,53
 634 324 634 324 597.5 277.5 c 128,-1,54
 561 231 561 231 543 177 c 128,-1,55
 525 123 525 123 525 87 c 0,56,57
 525 17 525 17 587 17 c 0,58,59
 651 17 651 17 698 94.5 c 128,-1,60
 745 172 745 172 745 241 c 0,61,62
 745 274 745 274 726.5 299 c 128,-1,63
 708 324 708 324 676 324 c 0,52,53
EndSplineSet
EndChar

StartChar: ampersand
Encoding: 38 38 9
Width: 777
GlyphClass: 2
Flags: W
LayerCount: 2
Fore
SplineSet
750 100 m 1,0,1
 710 39 710 39 678.5 12.5 c 128,-1,2
 647 -14 647 -14 599 -14 c 0,3,4
 519 -14 519 -14 429 78 c 1,5,6
 332 -14 332 -14 220 -14 c 0,7,8
 136 -14 136 -14 89.5 27 c 128,-1,9
 43 68 43 68 43 144 c 0,10,11
 43 197 43 197 78 246.5 c 128,-1,12
 113 296 113 296 152.5 324.5 c 128,-1,13
 192 353 192 353 237 376 c 1,14,15
 203 468 203 468 203 516 c 0,16,17
 203 583 203 583 246 629.5 c 128,-1,18
 289 676 289 676 355 676 c 0,19,20
 412 676 412 676 451 644 c 128,-1,21
 490 612 490 612 490 556 c 0,22,23
 490 449 490 449 336 384 c 1,24,25
 394 271 394 271 467 178 c 1,26,27
 501 219 501 219 530 270 c 128,-1,28
 559 321 559 321 559 358 c 0,29,30
 559 381 559 381 544.5 393 c 128,-1,31
 530 405 530 405 495 407 c 1,32,-1
 495 425 l 1,33,-1
 710 425 l 1,34,-1
 710 407 l 1,35,36
 666 401 666 401 646.5 383.5 c 128,-1,37
 627 366 627 366 604 323 c 0,38,39
 588 294 588 294 565 257.5 c 128,-1,40
 542 221 542 221 519.5 187 c 128,-1,41
 497 153 497 153 493 147 c 1,42,43
 570 58 570 58 644 58 c 0,44,45
 698 58 698 58 734 111 c 1,46,-1
 750 100 l 1,0,1
438 559 m 0,47,48
 438 593 438 593 415 618.5 c 128,-1,49
 392 644 392 644 359 644 c 0,50,51
 281 644 281 644 281 548 c 0,52,53
 281 496 281 496 321 416 c 1,54,55
 369 439 369 439 403.5 476.5 c 128,-1,56
 438 514 438 514 438 559 c 0,47,48
404 104 m 1,57,58
 333 191 333 191 252 343 c 1,59,60
 193 307 193 307 163.5 269 c 128,-1,61
 134 231 134 231 134 172 c 0,62,63
 134 121 134 121 173 80.5 c 128,-1,64
 212 40 212 40 263 40 c 0,65,66
 293 40 293 40 332.5 58 c 128,-1,67
 372 76 372 76 404 104 c 1,57,58
EndSplineSet
EndChar

StartChar: quotesingle
Encoding: 39 39 10
Width: 179
GlyphClass: 2
Flags: W
LayerCount: 2
Fore
SplineSet
134 641 m 2,0,-1
 100 444 l 1,1,-1
 80 444 l 1,2,-1
 48 641 l 2,3,4
 48 642 48 642 47.5 644 c 128,-1,5
 47 646 47 646 47 647 c 0,6,7
 47 661 47 661 60.5 672.5 c 128,-1,8
 74 684 74 684 91 684 c 128,-1,9
 108 684 108 684 122 670.5 c 128,-1,10
 136 657 136 657 134 641 c 2,0,-1
EndSplineSet
EndChar

StartChar: parenleft
Encoding: 40 40 11
Width: 333
GlyphClass: 2
Flags: W
LayerCount: 2
Fore
SplineSet
304 -161 m 1,0,-1
 292 -177 l 1,1,2
 49 -15 49 -15 49 260 c 0,3,4
 49 389 49 389 112.5 496 c 128,-1,5
 176 603 176 603 295 676 c 1,6,-1
 304 659 l 1,7,8
 134 542 134 542 134 269 c 0,9,10
 134 199 134 199 140 147.5 c 128,-1,11
 146 96 146 96 162.5 39 c 128,-1,12
 179 -18 179 -18 214.5 -68 c 128,-1,13
 250 -118 250 -118 304 -161 c 1,0,-1
EndSplineSet
EndChar

StartChar: parenright
Encoding: 41 41 12
Width: 333
GlyphClass: 2
Flags: W
LayerCount: 2
Fore
SplineSet
284 232 m 0,0,1
 284 106 284 106 217 -2.5 c 128,-1,2
 150 -111 150 -111 38 -177 c 1,3,-1
 29 -161 l 1,4,5
 124 -96 124 -96 162 2 c 128,-1,6
 200 100 200 100 200 229 c 0,7,8
 200 377 200 377 165 482.5 c 128,-1,9
 130 588 130 588 29 659 c 1,10,-1
 41 676 l 1,11,12
 57 668 57 668 82 649.5 c 128,-1,13
 107 631 107 631 143.5 591.5 c 128,-1,14
 180 552 180 552 210 504 c 128,-1,15
 240 456 240 456 262 383.5 c 128,-1,16
 284 311 284 311 284 232 c 0,0,1
EndSplineSet
EndChar

StartChar: asterisk
Encoding: 42 42 13
Width: 499
GlyphClass: 2
Flags: W
LayerCount: 2
Fore
SplineSet
401 581 m 0,0,1
 417 581 417 581 427 571.5 c 128,-1,2
 437 562 437 562 437 546 c 0,3,4
 437 526 437 526 421.5 514 c 128,-1,5
 406 502 406 502 382 502 c 0,6,7
 372 502 372 502 359 499 c 128,-1,8
 346 496 346 496 335 492 c 128,-1,9
 324 488 324 488 303 480 c 128,-1,10
 282 472 282 472 266 467 c 1,11,12
 332 432 332 432 404 419 c 0,13,14
 415 417 415 417 423 406 c 128,-1,15
 431 395 431 395 431 382 c 0,16,17
 431 366 431 366 419 356 c 128,-1,18
 407 346 407 346 393 346 c 0,19,20
 378 346 378 346 364 356 c 128,-1,21
 350 366 350 366 346 378 c 0,22,23
 344 384 344 384 338 390.5 c 128,-1,24
 332 397 332 397 320.5 407.5 c 128,-1,25
 309 418 309 418 302.5 423 c 128,-1,26
 296 428 296 428 278.5 441.5 c 128,-1,27
 261 455 261 455 257 458 c 1,28,29
 256 450 256 450 256 434 c 0,30,31
 256 392 256 392 267 347 c 128,-1,32
 278 302 278 302 278 301 c 0,33,34
 278 288 278 288 268.5 276.5 c 128,-1,35
 259 265 259 265 244 265 c 0,36,37
 231 265 231 265 218 275.5 c 128,-1,38
 205 286 205 286 205 309 c 0,39,40
 205 330 205 330 214 341 c 128,-1,41
 223 352 223 352 241 458 c 1,42,43
 197 431 197 431 168.5 403 c 128,-1,44
 140 375 140 375 128 363 c 128,-1,45
 116 351 116 351 102 351 c 0,46,47
 86 351 86 351 75 361.5 c 128,-1,48
 64 372 64 372 64 388 c 0,49,50
 64 408 64 408 80.5 420 c 128,-1,51
 97 432 97 432 120 432 c 0,52,53
 152 432 152 432 232 470 c 1,54,55
 173 506 173 506 94 522 c 0,56,57
 84 523 84 523 76 534 c 128,-1,58
 68 545 68 545 68 558 c 0,59,60
 68 573 68 573 79 584.5 c 128,-1,61
 90 596 90 596 105 596 c 128,-1,62
 120 596 120 596 134 585.5 c 128,-1,63
 148 575 148 575 152 564 c 0,64,65
 159 546 159 546 241 482 c 1,66,67
 241 527 241 527 234 564 c 128,-1,68
 227 601 227 601 220 621 c 128,-1,69
 213 641 213 641 213 645 c 0,70,71
 213 659 213 659 224.5 671 c 128,-1,72
 236 683 236 683 252 683 c 0,73,74
 269 683 269 683 280 670 c 128,-1,75
 291 657 291 657 291 638 c 128,-1,76
 291 619 291 619 281 607 c 0,77,78
 268 591 268 591 258 482 c 1,79,80
 318 509 318 509 373 573 c 0,81,82
 384 581 384 581 401 581 c 0,0,1
EndSplineSet
EndChar

StartChar: plus
Encoding: 43 43 14
Width: 563
GlyphClass: 2
Flags: W
LayerCount: 2
Fore
SplineSet
533 238 m 1,0,-1
 313 238 l 1,1,-1
 313 17 l 1,2,-1
 250 17 l 1,3,-1
 250 238 l 1,4,-1
 31 238 l 1,5,-1
 31 303 l 1,6,-1
 250 303 l 1,7,-1
 250 521 l 1,8,-1
 313 521 l 1,9,-1
 313 303 l 1,10,-1
 533 303 l 1,11,-1
 533 238 l 1,0,-1
EndSplineSet
EndChar

StartChar: comma
Encoding: 44 44 15
Width: 250
GlyphClass: 2
Flags: W
LayerCount: 2
Fore
SplineSet
111 -3 m 0,0,1
 81 -3 81 -3 62 14 c 128,-1,2
 43 31 43 31 43 58 c 0,3,4
 43 90 43 90 61 108 c 128,-1,5
 79 126 79 126 111 126 c 0,6,7
 155 126 155 126 177.5 93 c 128,-1,8
 200 60 200 60 200 17 c 0,9,10
 200 -29 200 -29 161.5 -76.5 c 128,-1,11
 123 -124 123 -124 74 -146 c 1,12,-1
 60 -118 l 1,13,14
 90 -104 90 -104 118.5 -68 c 128,-1,15
 147 -32 147 -32 147 -6 c 0,16,17
 147 5 147 5 143 5 c 0,18,19
 141 5 141 5 131 1 c 128,-1,20
 121 -3 121 -3 111 -3 c 0,0,1
EndSplineSet
EndChar

StartChar: hyphen
Encoding: 45 45 16
Width: 333
GlyphClass: 2
Flags: W
LayerCount: 2
Fore
SplineSet
289 238 m 1,0,-1
 43 238 l 1,1,-1
 43 301 l 1,2,-1
 289 301 l 1,3,-1
 289 238 l 1,0,-1
EndSplineSet
EndChar

StartChar: period
Encoding: 46 46 17
Width: 250
GlyphClass: 2
Flags: W
LayerCount: 2
Fore
SplineSet
54 60 m 128,-1,1
 54 90 54 90 75 111 c 128,-1,2
 96 132 96 132 126 132 c 128,-1,3
 156 132 156 132 177 111 c 128,-1,4
 198 90 198 90 198 60 c 128,-1,5
 198 30 198 30 177 9 c 128,-1,6
 156 -12 156 -12 126 -12 c 128,-1,7
 96 -12 96 -12 75 9 c 128,-1,0
 54 30 54 30 54 60 c 128,-1,1
EndSplineSet
EndChar

StartChar: slash
Encoding: 47 47 18
Width: 278
GlyphClass: 2
Flags: W
LayerCount: 2
Fore
SplineSet
303 682 m 1,0,-1
 51 -108 l 1,1,-1
 -12 -108 l 1,2,-1
 240 682 l 1,3,-1
 303 682 l 1,0,-1
EndSplineSet
EndChar

StartChar: zero
Encoding: 48 48 19
Width: 537
GlyphClass: 2
Flags: W
LayerCount: 2
Fore
SplineSet
493 327 m 0,0,1
 493 271 493 271 481 215 c 128,-1,2
 469 159 469 159 444 105.5 c 128,-1,3
 419 52 419 52 371.5 19 c 128,-1,4
 324 -14 324 -14 261 -14 c 0,5,6
 158 -14 158 -14 99.5 84 c 128,-1,7
 41 182 41 182 41 333 c 0,8,9
 41 391 41 391 52.5 447.5 c 128,-1,10
 64 504 64 504 88.5 557.5 c 128,-1,11
 113 611 113 611 159 643.5 c 128,-1,12
 205 676 205 676 266 676 c 0,13,14
 375 676 375 676 434 578.5 c 128,-1,15
 493 481 493 481 493 327 c 0,0,1
396 326 m 0,16,17
 396 650 396 650 272 650 c 0,18,19
 138 650 138 650 138 313 c 0,20,21
 138 14 138 14 269 14 c 0,22,23
 309 14 309 14 336 39.5 c 128,-1,24
 363 65 363 65 375 113.5 c 128,-1,25
 387 162 387 162 391.5 210.5 c 128,-1,26
 396 259 396 259 396 326 c 0,16,17
EndSplineSet
EndChar

StartChar: one
Encoding: 49 49 20
Width: 537
GlyphClass: 2
Flags: W
LayerCount: 2
Fore
SplineSet
415 0 m 1,0,-1
 141 0 l 1,1,-1
 141 14 l 1,2,3
 198 17 198 17 216.5 31.5 c 128,-1,4
 235 46 235 46 235 80 c 2,5,-1
 235 528 l 2,6,7
 235 582 235 582 210.5 586.5 c 128,-1,8
 186 591 186 591 132 565 c 1,9,-1
 132 579 l 1,10,-1
 321 676 l 1,11,-1
 321 80 l 2,12,13
 321 46 321 46 339.5 31.5 c 128,-1,14
 358 17 358 17 415 14 c 1,15,-1
 415 0 l 1,0,-1
EndSplineSet
EndChar

StartChar: two
Encoding: 50 50 21
Width: 537
GlyphClass: 2
Flags: W
LayerCount: 2
Fore
SplineSet
498 137 m 1,0,-1
 442 0 l 1,1,-1
 54 0 l 1,2,-1
 54 14 l 1,3,-1
 223 192 l 2,4,5
 361 341 361 341 361 459 c 0,6,7
 361 525 361 525 322.5 564.5 c 128,-1,8
 284 604 284 604 218 604 c 0,9,10
 125 604 125 604 75 473 c 1,11,-1
 54 479 l 1,12,13
 70 568 70 568 125.5 622 c 128,-1,14
 181 676 181 676 269 676 c 0,15,16
 343 676 343 676 395 625 c 128,-1,17
 447 574 447 574 447 501 c 0,18,19
 447 434 447 434 415 377 c 128,-1,20
 383 320 383 320 310 243 c 2,21,-1
 151 77 l 1,22,-1
 364 77 l 2,23,24
 420 77 420 77 437.5 86.5 c 128,-1,25
 455 96 455 96 485 143 c 1,26,-1
 498 137 l 1,0,-1
EndSplineSet
EndChar

StartChar: three
Encoding: 51 51 22
Width: 537
GlyphClass: 2
Flags: W
LayerCount: 2
Fore
SplineSet
453 214 m 0,0,1
 453 107 453 107 373 46.5 c 128,-1,2
 293 -14 293 -14 183 -14 c 0,3,4
 68 -14 68 -14 68 43 c 0,5,6
 68 59 68 59 78 68 c 128,-1,7
 88 77 88 77 104 77 c 0,8,9
 128 77 128 77 172 49.5 c 128,-1,10
 216 22 216 22 247 22 c 0,11,12
 308 22 308 22 345 64 c 128,-1,13
 382 106 382 106 382 167 c 0,14,15
 382 252 382 252 334 291 c 128,-1,16
 286 330 286 330 177 330 c 1,17,-1
 175 344 l 1,18,19
 341 395 341 395 341 510 c 0,20,21
 341 558 341 558 310.5 587 c 128,-1,22
 280 616 280 616 232 616 c 0,23,24
 140 616 140 616 83 511 c 1,25,-1
 68 516 l 1,26,27
 92 592 92 592 143 634 c 128,-1,28
 194 676 194 676 264 676 c 0,29,30
 340 676 340 676 379.5 639.5 c 128,-1,31
 419 603 419 603 419 542 c 0,32,33
 419 460 419 460 327 402 c 1,34,35
 392 375 392 375 422.5 330.5 c 128,-1,36
 453 286 453 286 453 214 c 0,0,1
EndSplineSet
EndChar

StartChar: four
Encoding: 52 52 23
Width: 537
GlyphClass: 2
Flags: W
LayerCount: 2
Fore
SplineSet
493 167 m 1,0,-1
 392 167 l 1,1,-1
 392 0 l 1,2,-1
 315 0 l 1,3,-1
 315 167 l 1,4,-1
 34 167 l 1,5,-1
 34 230 l 1,6,-1
 346 676 l 1,7,-1
 392 676 l 1,8,-1
 392 230 l 1,9,-1
 493 230 l 1,10,-1
 493 167 l 1,0,-1
315 230 m 1,11,-1
 315 570 l 1,12,-1
 74 230 l 1,13,-1
 315 230 l 1,11,-1
EndSplineSet
EndChar

StartChar: five
Encoding: 53 53 24
Width: 537
GlyphClass: 2
Flags: W
LayerCount: 2
Fore
SplineSet
461 680 m 1,0,-1
 413 582 l 1,1,-1
 204 582 l 1,2,-1
 163 498 l 1,3,4
 216 489 216 489 254 479 c 128,-1,5
 292 469 292 469 331.5 449 c 128,-1,6
 371 429 371 429 394.5 401.5 c 128,-1,7
 418 374 418 374 433.5 329.5 c 128,-1,8
 449 285 449 285 449 227 c 0,9,10
 449 118 449 118 371.5 52 c 128,-1,11
 294 -14 294 -14 180 -14 c 0,12,13
 63 -14 63 -14 55 40 c 0,14,15
 52 60 52 60 65 72 c 128,-1,16
 78 84 78 84 100 84 c 0,17,18
 133 84 133 84 173.5 53 c 128,-1,19
 214 22 214 22 240 22 c 0,20,21
 303 22 303 22 341 72 c 128,-1,22
 379 122 379 122 379 195 c 0,23,24
 379 251 379 251 354 293.5 c 128,-1,25
 329 336 329 336 286 360 c 128,-1,26
 243 384 243 384 197 396.5 c 128,-1,27
 151 409 151 409 100 412 c 0,28,29
 85 414 85 414 88 424 c 2,30,-1
 197 662 l 1,31,-1
 393 662 l 2,32,33
 418 662 418 662 428 665.5 c 128,-1,34
 438 669 438 669 452 687 c 1,35,-1
 461 680 l 1,0,-1
EndSplineSet
EndChar

StartChar: six
Encoding: 54 54 25
Width: 537
GlyphClass: 2
Flags: W
LayerCount: 2
Fore
SplineSet
490 214 m 0,0,1
 490 120 490 120 434 53 c 128,-1,2
 378 -14 378 -14 286 -14 c 0,3,4
 188 -14 188 -14 123 63.5 c 128,-1,5
 58 141 58 141 58 273 c 0,6,7
 58 433 58 433 156.5 542.5 c 128,-1,8
 255 652 255 652 410 674 c 0,9,10
 412 674 412 674 432.5 678 c 128,-1,11
 453 682 453 682 468 682 c 1,12,-1
 470 664 l 1,13,14
 463 662 463 662 441.5 657.5 c 128,-1,15
 420 653 420 653 405 648.5 c 128,-1,16
 390 644 390 644 375 636 c 0,17,18
 200 554 200 554 175 382 c 1,19,20
 238 427 238 427 304 427 c 0,21,22
 391 427 391 427 440.5 370 c 128,-1,23
 490 313 490 313 490 214 c 0,0,1
267 382 m 0,24,25
 213 382 213 382 170 350 c 0,26,27
 151 331 151 331 151 247 c 0,28,29
 151 144 151 144 190.5 79 c 128,-1,30
 230 14 230 14 301 14 c 0,31,32
 348 14 348 14 374.5 59.5 c 128,-1,33
 401 105 401 105 401 177 c 0,34,35
 401 213 401 213 395 246.5 c 128,-1,36
 389 280 389 280 374.5 312 c 128,-1,37
 360 344 360 344 332.5 363 c 128,-1,38
 305 382 305 382 267 382 c 0,24,25
EndSplineSet
EndChar

StartChar: seven
Encoding: 55 55 26
Width: 537
GlyphClass: 2
Flags: W
LayerCount: 2
Fore
SplineSet
472 647 m 1,0,-1
 258 -14 l 1,1,-1
 194 -14 l 1,2,-1
 393 587 l 1,3,-1
 187 587 l 2,4,5
 135 587 135 587 113 571.5 c 128,-1,6
 91 556 91 556 60 507 c 1,7,-1
 43 515 l 1,8,-1
 103 662 l 1,9,-1
 472 662 l 1,10,-1
 472 647 l 1,0,-1
EndSplineSet
EndChar

StartChar: eight
Encoding: 56 56 27
Width: 537
GlyphClass: 2
Flags: W
LayerCount: 2
Fore
SplineSet
465 154 m 0,0,1
 465 77 465 77 406 31.5 c 128,-1,2
 347 -14 347 -14 266 -14 c 0,3,4
 188 -14 188 -14 132.5 30.5 c 128,-1,5
 77 75 77 75 77 152 c 0,6,7
 77 182 77 182 87 208 c 128,-1,8
 97 234 97 234 120.5 258.5 c 128,-1,9
 144 283 144 283 159 295.5 c 128,-1,10
 174 308 174 308 206 332 c 1,11,12
 195 342 195 342 170 364.5 c 128,-1,13
 145 387 145 387 134.5 398.5 c 128,-1,14
 124 410 124 410 109 430.5 c 128,-1,15
 94 451 94 451 88.5 474.5 c 128,-1,16
 83 498 83 498 83 527 c 0,17,18
 83 584 83 584 135 630 c 128,-1,19
 187 676 187 676 273 676 c 0,20,21
 339 676 339 676 391.5 639.5 c 128,-1,22
 444 603 444 603 444 539 c 0,23,24
 444 480 444 480 408.5 442 c 128,-1,25
 373 404 373 404 310 372 c 1,26,27
 345 344 345 344 355 336 c 128,-1,28
 365 328 365 328 393.5 301 c 128,-1,29
 422 274 422 274 432.5 257 c 128,-1,30
 443 240 443 240 454 211.5 c 128,-1,31
 465 183 465 183 465 154 c 0,0,1
375 536 m 0,32,33
 375 587 375 587 344.5 618.5 c 128,-1,34
 314 650 314 650 264 650 c 0,35,36
 219 650 219 650 188 622.5 c 128,-1,37
 157 595 157 595 157 550 c 0,38,39
 157 468 157 468 281 390 c 1,40,41
 323 413 323 413 349 451.5 c 128,-1,42
 375 490 375 490 375 536 c 0,32,33
232 312 m 0,43,44
 229 310 229 310 223.5 305.5 c 128,-1,45
 218 301 218 301 204 286.5 c 128,-1,46
 190 272 190 272 179.5 255.5 c 128,-1,47
 169 239 169 239 160.5 214 c 128,-1,48
 152 189 152 189 152 163 c 0,49,50
 152 96 152 96 185 53.5 c 128,-1,51
 218 11 218 11 281 11 c 0,52,53
 330 11 330 11 359.5 43.5 c 128,-1,54
 389 76 389 76 389 126 c 0,55,56
 389 147 389 147 380.5 168 c 128,-1,57
 372 189 372 189 363.5 202.5 c 128,-1,58
 355 216 355 216 333 236 c 128,-1,59
 311 256 311 256 302 262.5 c 128,-1,60
 293 269 293 269 264 289.5 c 128,-1,61
 235 310 235 310 232 312 c 0,43,44
EndSplineSet
EndChar

StartChar: nine
Encoding: 57 57 28
Width: 537
GlyphClass: 2
Flags: W
LayerCount: 2
Fore
SplineSet
470 292 m 0,0,1
 445 206 445 206 381.5 127 c 128,-1,2
 318 48 318 48 232 12 c 0,3,4
 149 -23 149 -23 83 -23 c 1,5,-1
 80 -3 l 1,6,7
 224 23 224 23 300 124 c 0,8,9
 361 208 361 208 382 292 c 1,10,11
 300 237 300 237 233 237 c 0,12,13
 152 237 152 237 103 293.5 c 128,-1,14
 54 350 54 350 54 447 c 0,15,16
 54 481 54 481 65 518 c 128,-1,17
 76 555 76 555 99.5 592 c 128,-1,18
 123 629 123 629 166.5 652.5 c 128,-1,19
 210 676 210 676 267 676 c 0,20,21
 331 676 331 676 382 635 c 128,-1,22
 433 594 433 594 456 531 c 0,23,24
 483 455 483 455 483 385 c 0,25,26
 483 337 483 337 470 292 c 0,0,1
386 413 m 0,27,28
 386 451 386 451 381 487 c 128,-1,29
 376 523 376 523 363 562.5 c 128,-1,30
 350 602 350 602 321.5 626 c 128,-1,31
 293 650 293 650 253 650 c 0,32,33
 222 650 222 650 200 633 c 128,-1,34
 178 616 178 616 167 588.5 c 128,-1,35
 156 561 156 561 151 533 c 128,-1,36
 146 505 146 505 146 476 c 0,37,38
 146 440 146 440 151.5 408.5 c 128,-1,39
 157 377 157 377 170.5 346.5 c 128,-1,40
 184 316 184 316 210 298 c 128,-1,41
 236 280 236 280 273 280 c 0,42,43
 299 280 299 280 333 295 c 128,-1,44
 367 310 367 310 382 330 c 1,45,46
 386 356 386 356 386 413 c 0,27,28
EndSplineSet
EndChar

StartChar: colon
Encoding: 58 58 29
Width: 278
GlyphClass: 2
Flags: W
LayerCount: 2
Fore
SplineSet
68 396 m 128,-1,1
 68 426 68 426 89 447 c 128,-1,2
 110 468 110 468 140 468 c 128,-1,3
 170 468 170 468 191 447 c 128,-1,4
 212 426 212 426 212 396 c 128,-1,5
 212 366 212 366 191 345 c 128,-1,6
 170 324 170 324 140 324 c 128,-1,7
 110 324 110 324 89 345 c 128,-1,0
 68 366 68 366 68 396 c 128,-1,1
68 60 m 128,-1,9
 68 90 68 90 89 111 c 128,-1,10
 110 132 110 132 140 132 c 128,-1,11
 170 132 170 132 191 111 c 128,-1,12
 212 90 212 90 212 60 c 128,-1,13
 212 30 212 30 191 9 c 128,-1,14
 170 -12 170 -12 140 -12 c 128,-1,15
 110 -12 110 -12 89 9 c 128,-1,8
 68 30 68 30 68 60 c 128,-1,9
EndSplineSet
EndChar

StartChar: semicolon
Encoding: 59 59 30
Width: 278
GlyphClass: 2
Flags: W
LayerCount: 2
Fore
SplineSet
126 -3 m 0,0,1
 97 -3 97 -3 77.5 14 c 128,-1,2
 58 31 58 31 58 58 c 0,3,4
 58 90 58 90 76 108 c 128,-1,5
 94 126 94 126 126 126 c 0,6,7
 215 126 215 126 215 23 c 0,8,9
 215 -86 215 -86 89 -146 c 1,10,-1
 75 -118 l 1,11,12
 106 -104 106 -104 134.5 -69 c 128,-1,13
 163 -34 163 -34 163 -6 c 0,14,15
 163 5 163 5 158 5 c 0,16,17
 156 5 156 5 146 1 c 128,-1,18
 136 -3 136 -3 126 -3 c 0,0,1
55 396 m 128,-1,20
 55 426 55 426 76.5 447 c 128,-1,21
 98 468 98 468 127 468 c 0,22,23
 157 468 157 468 178.5 447 c 128,-1,24
 200 426 200 426 200 396 c 128,-1,25
 200 366 200 366 178.5 345 c 128,-1,26
 157 324 157 324 127 324 c 0,27,28
 98 324 98 324 76.5 345 c 128,-1,19
 55 366 55 366 55 396 c 128,-1,20
EndSplineSet
EndChar

StartChar: less
Encoding: 60 60 31
Width: 563
GlyphClass: 2
Flags: W
LayerCount: 2
Fore
SplineSet
536 0 m 1,0,-1
 28 233 l 1,1,-1
 28 287 l 1,2,-1
 536 522 l 1,3,-1
 536 459 l 1,4,-1
 108 261 l 1,5,-1
 536 63 l 1,6,-1
 536 0 l 1,0,-1
EndSplineSet
EndChar

StartChar: equal
Encoding: 61 61 32
Width: 563
GlyphClass: 2
Flags: W
LayerCount: 2
Fore
SplineSet
533 326 m 1,0,-1
 31 326 l 1,1,-1
 31 390 l 1,2,-1
 533 390 l 1,3,-1
 533 326 l 1,0,-1
533 132 m 1,4,-1
 31 132 l 1,5,-1
 31 197 l 1,6,-1
 533 197 l 1,7,-1
 533 132 l 1,4,-1
EndSplineSet
EndChar

StartChar: greater
Encoding: 62 62 33
Width: 563
GlyphClass: 2
Flags: W
LayerCount: 2
Fore
SplineSet
536 233 m 1,0,-1
 28 0 l 1,1,-1
 28 63 l 1,2,-1
 455 261 l 1,3,-1
 28 459 l 1,4,-1
 28 522 l 1,5,-1
 536 287 l 1,6,-1
 536 233 l 1,0,-1
EndSplineSet
EndChar

StartChar: question
Encoding: 63 63 34
Width: 443
GlyphClass: 2
Flags: W
LayerCount: 2
Fore
SplineSet
101 586 m 0,0,1
 101 574 101 574 119.5 552 c 128,-1,2
 138 530 138 530 138 510 c 0,3,4
 138 491 138 491 126 480.5 c 128,-1,5
 114 470 114 470 94 470 c 0,6,7
 49 470 49 470 49 536 c 0,8,9
 49 599 49 599 100 637.5 c 128,-1,10
 151 676 151 676 217 676 c 0,11,12
 298 676 298 676 346.5 628.5 c 128,-1,13
 395 581 395 581 395 518 c 0,14,15
 395 488 395 488 382.5 456 c 128,-1,16
 370 424 370 424 356.5 405 c 128,-1,17
 343 386 343 386 319 355 c 2,18,-1
 289 316 l 2,19,20
 237 250 237 250 224 164 c 1,21,-1
 207 164 l 1,22,23
 207 216 207 216 222 266 c 128,-1,24
 237 316 237 316 255 349.5 c 128,-1,25
 273 383 273 383 288 428 c 128,-1,26
 303 473 303 473 303 516 c 0,27,28
 303 570 303 570 274.5 608.5 c 128,-1,29
 246 647 246 647 195 647 c 0,30,31
 164 647 164 647 132.5 630 c 128,-1,32
 101 613 101 613 101 586 c 0,0,1
273 43 m 128,-1,34
 273 20 273 20 255.5 3 c 128,-1,35
 238 -14 238 -14 217 -14 c 0,36,37
 194 -14 194 -14 176 3 c 128,-1,38
 158 20 158 20 158 43 c 128,-1,39
 158 66 158 66 176 83.5 c 128,-1,40
 194 101 194 101 217 101 c 0,41,42
 238 101 238 101 255.5 83.5 c 128,-1,33
 273 66 273 66 273 43 c 128,-1,34
EndSplineSet
EndChar

StartChar: at
Encoding: 64 64 35
Width: 920
GlyphClass: 2
Flags: W
LayerCount: 2
Fore
SplineSet
868 330 m 0,0,1
 868 214 868 214 802.5 127 c 128,-1,2
 737 40 737 40 659 40 c 0,3,4
 563 40 563 40 542 123 c 1,5,6
 518 86 518 86 476.5 63.5 c 128,-1,7
 435 41 435 41 401 41 c 0,8,9
 345 41 345 41 312.5 76 c 128,-1,10
 280 111 280 111 280 184 c 0,11,12
 280 293 280 293 352 383 c 128,-1,13
 424 473 424 473 510 473 c 0,14,15
 545 473 545 473 570 453.5 c 128,-1,16
 595 434 595 434 604 410 c 1,17,-1
 616 459 l 1,18,-1
 702 459 l 1,19,-1
 621 144 l 2,20,21
 618 135 618 135 618 126 c 0,22,23
 618 106 618 106 632 94.5 c 128,-1,24
 646 83 646 83 667 83 c 0,25,26
 723 83 723 83 775.5 163 c 128,-1,27
 828 243 828 243 828 329 c 0,28,29
 828 461 828 461 727.5 548.5 c 128,-1,30
 627 636 627 636 501 636 c 0,31,32
 424 636 424 636 356.5 600 c 128,-1,33
 289 564 289 564 245 507 c 128,-1,34
 201 450 201 450 176 382 c 128,-1,35
 151 314 151 314 151 249 c 0,36,37
 151 199 151 199 159 152.5 c 128,-1,38
 167 106 167 106 190.5 56 c 128,-1,39
 214 6 214 6 250.5 -30.5 c 128,-1,40
 287 -67 287 -67 350 -91 c 128,-1,41
 413 -115 413 -115 495 -115 c 0,42,43
 569 -115 569 -115 645.5 -89 c 128,-1,44
 722 -63 722 -63 762 -23 c 1,45,-1
 743 -88 l 2,46,47
 739 -91 739 -91 732 -95.5 c 128,-1,48
 725 -100 725 -100 700.5 -111.5 c 128,-1,49
 676 -123 676 -123 649 -132 c 128,-1,50
 622 -141 622 -141 579.5 -148 c 128,-1,51
 537 -155 537 -155 493 -155 c 0,52,53
 413 -155 413 -155 338 -131.5 c 128,-1,54
 263 -108 263 -108 198.5 -60.5 c 128,-1,55
 134 -13 134 -13 94.5 69 c 128,-1,56
 55 151 55 151 55 257 c 0,57,58
 55 309 55 309 71.5 364.5 c 128,-1,59
 88 420 88 420 124.5 475.5 c 128,-1,60
 161 531 161 531 211.5 575 c 128,-1,61
 262 619 262 619 337.5 646.5 c 128,-1,62
 413 674 413 674 501 674 c 0,63,64
 542 674 542 674 588 663.5 c 128,-1,65
 634 653 634 653 684.5 627.5 c 128,-1,66
 735 602 735 602 775 564 c 128,-1,67
 815 526 815 526 841.5 465 c 128,-1,68
 868 404 868 404 868 330 c 0,0,1
582 344 m 0,69,70
 582 427 582 427 525 427 c 0,71,72
 476 427 476 427 424 357.5 c 128,-1,73
 372 288 372 288 372 175 c 0,74,75
 372 127 372 127 386.5 105.5 c 128,-1,76
 401 84 401 84 433 84 c 0,77,78
 457 84 457 84 484.5 106 c 128,-1,79
 512 128 512 128 522 147 c 0,80,81
 538 174 538 174 560 236 c 128,-1,82
 582 298 582 298 582 344 c 0,69,70
EndSplineSet
EndChar

StartChar: A
Encoding: 65 65 36
Width: 721
GlyphClass: 2
Flags: W
LayerCount: 2
Fore
SplineSet
705 0 m 1,0,-1
 450 0 l 1,1,-1
 450 20 l 1,2,3
 489 22 489 22 505 29 c 128,-1,4
 521 36 521 36 521 54 c 0,5,6
 521 75 521 75 496 131 c 2,7,-1
 461 217 l 1,8,-1
 200 217 l 1,9,10
 196 205 196 205 180.5 170 c 128,-1,11
 165 135 165 135 154.5 106 c 128,-1,12
 144 77 144 77 144 61 c 0,13,14
 144 20 144 20 214 20 c 1,15,-1
 214 0 l 1,16,-1
 15 0 l 1,17,-1
 15 20 l 1,18,19
 36 22 36 22 52.5 32.5 c 128,-1,20
 69 43 69 43 84.5 68 c 128,-1,21
 100 93 100 93 109 113 c 128,-1,22
 118 133 118 133 136 175 c 0,23,24
 141 188 141 188 144 194 c 2,25,-1
 347 676 l 1,26,-1
 367 676 l 1,27,-1
 610 117 l 2,28,29
 635 60 635 60 654 40 c 128,-1,30
 673 20 673 20 705 20 c 1,31,-1
 705 0 l 1,0,-1
447 257 m 1,32,-1
 330 531 l 1,33,-1
 217 257 l 1,34,-1
 447 257 l 1,32,-1
EndSplineSet
EndChar

StartChar: B
Encoding: 66 66 37
Width: 499
GlyphClass: 2
Flags: W
LayerCount: 2
Fore
SplineSet
473 243 m 0,0,1
 473 141 473 141 407.5 65 c 128,-1,2
 342 -11 342 -11 243 -11 c 0,3,4
 186 -11 186 -11 130 10.5 c 128,-1,5
 74 32 74 32 74 54 c 2,6,-1
 74 559 l 2,7,8
 74 599 74 599 67 609 c 128,-1,9
 60 619 60 619 37 619 c 2,10,-1
 9 619 l 1,11,-1
 9 637 l 1,12,13
 23 641 23 641 52.5 648 c 128,-1,14
 82 655 82 655 97 660 c 2,15,-1
 160 682 l 1,16,-1
 160 378 l 1,17,18
 180 416 180 416 218 437 c 128,-1,19
 256 458 256 458 301 458 c 0,20,21
 382 458 382 458 427.5 392.5 c 128,-1,22
 473 327 473 327 473 243 c 0,0,1
386 200 m 0,23,24
 386 233 386 233 380 265 c 128,-1,25
 374 297 374 297 360.5 327.5 c 128,-1,26
 347 358 347 358 320.5 377 c 128,-1,27
 294 396 294 396 258 396 c 0,28,29
 207 396 207 396 183.5 371 c 128,-1,30
 160 346 160 346 160 309 c 2,31,-1
 160 70 l 2,32,33
 160 52 160 52 189.5 37.5 c 128,-1,34
 219 23 219 23 257 23 c 0,35,36
 325 23 325 23 355.5 75 c 128,-1,37
 386 127 386 127 386 200 c 0,23,24
EndSplineSet
EndChar

StartChar: C
Encoding: 67 67 38
Width: 443
GlyphClass: 2
Flags: W
LayerCount: 2
Fore
SplineSet
412 149 m 1,0,1
 375 74 375 74 329 31.5 c 128,-1,2
 283 -11 283 -11 212 -11 c 0,3,4
 132 -11 132 -11 78.5 55 c 128,-1,5
 25 121 25 121 25 214 c 0,6,7
 25 318 25 318 83.5 388 c 128,-1,8
 142 458 142 458 249 458 c 0,9,10
 280 458 280 458 312 448 c 128,-1,11
 344 438 344 438 370 414.5 c 128,-1,12
 396 391 396 391 398 359 c 0,13,14
 398 342 398 342 384 329 c 128,-1,15
 370 316 370 316 353 316 c 128,-1,16
 336 316 336 316 321.5 329.5 c 128,-1,17
 307 343 307 343 307 359 c 0,18,19
 307 391 307 391 288 410 c 128,-1,20
 269 429 269 429 230 429 c 0,21,22
 170 429 170 429 136.5 376.5 c 128,-1,23
 103 324 103 324 103 255 c 0,24,25
 103 179 103 179 144 119.5 c 128,-1,26
 185 60 185 60 257 60 c 0,27,28
 302 60 302 60 335 86 c 128,-1,29
 368 112 368 112 398 157 c 1,30,-1
 412 149 l 1,0,1
EndSplineSet
EndChar

StartChar: D
Encoding: 68 68 39
Width: 499
GlyphClass: 2
Flags: W
LayerCount: 2
Fore
SplineSet
490 45 m 1,0,1
 414 23 414 23 339 -14 c 1,2,-1
 339 60 l 1,3,4
 319 29 319 29 284 9 c 128,-1,5
 249 -11 249 -11 212 -11 c 0,6,7
 124 -11 124 -11 75 54 c 128,-1,8
 26 119 26 119 26 210 c 0,9,10
 26 304 26 304 85.5 381 c 128,-1,11
 145 458 145 458 237 458 c 0,12,13
 271 458 271 458 299 445 c 128,-1,14
 327 432 327 432 339 418 c 1,15,-1
 339 559 l 2,16,17
 339 600 339 600 333 609.5 c 128,-1,18
 327 619 327 619 302 619 c 2,19,-1
 273 619 l 1,20,-1
 273 637 l 1,21,22
 285 640 285 640 316 647.5 c 128,-1,23
 347 655 347 655 361 660 c 2,24,-1
 424 682 l 1,25,-1
 424 91 l 2,26,27
 424 72 424 72 435 66 c 128,-1,28
 446 60 446 60 467 60 c 2,29,-1
 490 60 l 1,30,-1
 490 45 l 1,0,1
339 117 m 2,31,-1
 339 300 l 2,32,33
 339 357 339 357 313 392 c 128,-1,34
 287 427 287 427 235 427 c 0,35,36
 176 427 176 427 144 371.5 c 128,-1,37
 112 316 112 316 112 241 c 0,38,39
 112 146 112 146 150 92 c 128,-1,40
 188 38 188 38 250 38 c 0,41,42
 290 38 290 38 314.5 63 c 128,-1,43
 339 88 339 88 339 117 c 2,31,-1
EndSplineSet
EndChar

StartChar: E
Encoding: 69 69 40
Width: 609
GlyphClass: 2
Flags: W
LayerCount: 2
Fore
SplineSet
596 169 m 1,0,-1
 551 0 l 1,1,-1
 12 0 l 1,2,-1
 12 20 l 1,3,4
 100 20 100 20 100 80 c 2,5,-1
 100 582 l 2,6,7
 100 642 100 642 12 642 c 1,8,-1
 12 662 l 1,9,-1
 542 662 l 1,10,-1
 542 519 l 1,11,-1
 521 519 l 1,12,13
 512 564 512 564 483.5 592.5 c 128,-1,14
 455 621 455 621 407 621 c 2,15,-1
 246 621 l 2,16,17
 227 621 227 621 215 610.5 c 128,-1,18
 203 600 203 600 203 582 c 2,19,-1
 203 367 l 1,20,-1
 343 367 l 2,21,22
 401 367 401 367 434 387.5 c 128,-1,23
 467 408 467 408 467 462 c 1,24,-1
 487 462 l 1,25,-1
 487 229 l 1,26,-1
 467 229 l 1,27,28
 467 326 467 326 343 326 c 2,29,-1
 203 326 l 1,30,-1
 203 80 l 2,31,32
 203 41 203 41 227 41 c 2,33,-1
 359 41 l 2,34,35
 385 41 385 41 399.5 42 c 128,-1,36
 414 43 414 43 436.5 46.5 c 128,-1,37
 459 50 459 50 474.5 58 c 128,-1,38
 490 66 490 66 508 79.5 c 128,-1,39
 526 93 526 93 540.5 115.5 c 128,-1,40
 555 138 555 138 568 169 c 1,41,-1
 596 169 l 1,0,-1
EndSplineSet
EndChar

StartChar: F
Encoding: 70 70 41
Width: 556
GlyphClass: 2
Flags: W
LayerCount: 2
Fore
SplineSet
544 519 m 1,0,-1
 519 519 l 1,1,2
 516 549 516 549 506.5 569 c 128,-1,3
 497 589 497 589 487.5 599.5 c 128,-1,4
 478 610 478 610 458.5 615 c 128,-1,5
 439 620 439 620 427 620.5 c 128,-1,6
 415 621 415 621 388 621 c 0,7,8
 380 621 380 621 376 621 c 2,9,-1
 244 621 l 2,10,11
 220 621 220 621 211.5 611 c 128,-1,12
 203 601 203 601 203 582 c 2,13,-1
 203 367 l 1,14,-1
 333 367 l 2,15,16
 391 367 391 367 424.5 387.5 c 128,-1,17
 458 408 458 408 458 462 c 1,18,-1
 479 462 l 1,19,-1
 479 229 l 1,20,-1
 458 229 l 1,21,22
 458 326 458 326 333 326 c 2,23,-1
 203 326 l 1,24,-1
 203 80 l 2,25,26
 203 20 203 20 292 20 c 1,27,-1
 292 0 l 1,28,-1
 12 0 l 1,29,-1
 12 20 l 1,30,31
 100 20 100 20 100 80 c 2,32,-1
 100 582 l 2,33,34
 100 642 100 642 12 642 c 1,35,-1
 12 662 l 1,36,-1
 544 662 l 1,37,-1
 544 519 l 1,0,-1
EndSplineSet
EndChar

StartChar: G
Encoding: 71 71 42
Width: 499
GlyphClass: 2
Flags: W
LayerCount: 2
Fore
SplineSet
470 386 m 1,0,-1
 387 386 l 1,1,2
 406 345 406 345 406 300 c 0,3,4
 406 230 406 230 359 188.5 c 128,-1,5
 312 147 312 147 244 147 c 0,6,7
 237 147 237 147 190 154 c 1,8,9
 174 150 174 150 153.5 128.5 c 128,-1,10
 133 107 133 107 133 90 c 0,11,12
 133 83 133 83 139.5 78.5 c 128,-1,13
 146 74 146 74 158 71 c 128,-1,14
 170 68 170 68 179.5 67 c 128,-1,15
 189 66 189 66 204 64.5 c 128,-1,16
 219 63 219 63 223 63 c 0,17,18
 238 62 238 62 266 61.5 c 128,-1,19
 294 61 294 61 307 60 c 128,-1,20
 320 59 320 59 343 57 c 128,-1,21
 366 55 366 55 377.5 52 c 128,-1,22
 389 49 389 49 405 44 c 128,-1,23
 421 39 421 39 429 31 c 128,-1,24
 437 23 437 23 445.5 12 c 128,-1,25
 454 1 454 1 457.5 -14.5 c 128,-1,26
 461 -30 461 -30 461 -49 c 0,27,28
 461 -102 461 -102 414 -142.5 c 128,-1,29
 367 -183 367 -183 309 -200 c 128,-1,30
 251 -217 251 -217 200 -217 c 0,31,32
 121 -217 121 -217 74.5 -183.5 c 128,-1,33
 28 -150 28 -150 28 -114 c 0,34,35
 28 -100 28 -100 37.5 -84.5 c 128,-1,36
 47 -69 47 -69 56 -60 c 128,-1,37
 65 -51 65 -51 90 -29.5 c 128,-1,38
 115 -8 115 -8 126 2 c 1,39,40
 74 23 74 23 74 54 c 0,41,42
 74 98 74 98 163 163 c 1,43,44
 69 201 69 201 69 296 c 0,45,46
 69 368 69 368 120 413 c 128,-1,47
 171 458 171 458 244 458 c 0,48,49
 280 458 280 458 328 439.5 c 128,-1,50
 376 421 376 421 421 421 c 0,51,52
 442 421 442 421 470 424 c 1,53,-1
 470 386 l 1,0,-1
329 272 m 0,54,55
 329 323 329 323 302.5 376.5 c 128,-1,56
 276 430 276 430 230 430 c 0,57,58
 152 430 152 430 152 335 c 0,59,60
 152 275 152 275 176.5 224.5 c 128,-1,61
 201 174 201 174 255 174 c 0,62,63
 329 174 329 174 329 272 c 0,54,55
433 -68 m 0,64,65
 433 -50 433 -50 422.5 -38.5 c 128,-1,66
 412 -27 412 -27 389 -22 c 128,-1,67
 366 -17 366 -17 348 -15.5 c 128,-1,68
 330 -14 330 -14 298 -14 c 0,69,70
 204 -14 204 -14 147 -3 c 1,71,72
 98 -57 98 -57 98 -91 c 0,73,74
 98 -120 98 -120 133 -140.5 c 128,-1,75
 168 -161 168 -161 240 -161 c 0,76,77
 328 -161 328 -161 380.5 -135.5 c 128,-1,78
 433 -110 433 -110 433 -68 c 0,64,65
EndSplineSet
EndChar

StartChar: H
Encoding: 72 72 43
Width: 546
GlyphClass: 2
Flags: W
LayerCount: 2
Fore
SplineSet
326 439 m 0,0,1
 326 417 326 417 311 402 c 128,-1,2
 296 387 296 387 273 387 c 0,3,4
 252 387 252 387 236.5 403 c 128,-1,5
 221 419 221 419 221 439 c 0,6,7
 221 461 221 461 236 477 c 128,-1,8
 251 493 251 493 273 493 c 0,9,10
 296 493 296 493 311 478 c 128,-1,11
 326 463 326 463 326 439 c 0,0,1
515 224 m 1,12,-1
 32 224 l 1,13,-1
 32 281 l 1,14,-1
 515 281 l 1,15,-1
 515 224 l 1,12,-1
326 66 m 0,16,17
 326 42 326 42 311 28 c 128,-1,18
 296 14 296 14 273 14 c 0,19,20
 251 14 251 14 236 29 c 128,-1,21
 221 44 221 44 221 66 c 0,22,23
 221 86 221 86 236 102 c 128,-1,24
 251 118 251 118 273 118 c 128,-1,25
 295 118 295 118 310.5 103 c 128,-1,26
 326 88 326 88 326 66 c 0,16,17
EndSplineSet
EndChar

StartChar: I
Encoding: 73 73 44
Width: 333
GlyphClass: 2
Flags: W
LayerCount: 2
Fore
SplineSet
316 0 m 1,0,-1
 18 0 l 1,1,-1
 18 20 l 1,2,3
 117 20 117 20 117 80 c 2,4,-1
 117 582 l 2,5,6
 117 642 117 642 18 642 c 1,7,-1
 18 662 l 1,8,-1
 316 662 l 1,9,-1
 316 642 l 1,10,11
 218 642 218 642 218 582 c 2,12,-1
 218 80 l 2,13,14
 218 20 218 20 316 20 c 1,15,-1
 316 0 l 1,0,-1
EndSplineSet
EndChar

StartChar: J
Encoding: 74 74 45
Width: 388
GlyphClass: 2
Flags: W
LayerCount: 2
Fore
SplineSet
105 80 m 0,0,1
 105 79 105 79 104 75.5 c 128,-1,2
 103 72 103 72 103 68 c 0,3,4
 103 52 103 52 112.5 38.5 c 128,-1,5
 122 25 122 25 135 25 c 0,6,7
 155 25 155 25 166 52 c 128,-1,8
 177 79 177 79 177 114 c 2,9,-1
 177 582 l 2,10,11
 177 642 177 642 78 642 c 1,12,-1
 78 662 l 1,13,-1
 376 662 l 1,14,-1
 376 642 l 1,15,16
 278 642 278 642 278 582 c 2,17,-1
 278 198 l 2,18,19
 278 96 278 96 231 41 c 128,-1,20
 184 -14 184 -14 112 -14 c 0,21,22
 79 -14 79 -14 57 -4.5 c 128,-1,23
 35 5 35 5 26 19.5 c 128,-1,24
 17 34 17 34 14 43.5 c 128,-1,25
 11 53 11 53 11 60 c 0,26,27
 11 78 11 78 24.5 93 c 128,-1,28
 38 108 38 108 58 108 c 0,29,30
 77 108 77 108 91 98.5 c 128,-1,31
 105 89 105 89 105 80 c 0,0,1
EndSplineSet
EndChar

StartChar: K
Encoding: 75 75 46
Width: 499
GlyphClass: 2
Flags: W
LayerCount: 2
Fore
SplineSet
498 -217 m 1,0,-1
 257 -217 l 1,1,-1
 257 -203 l 1,2,3
 305 -201 305 -201 322 -186 c 128,-1,4
 339 -171 339 -171 339 -137 c 2,5,-1
 339 60 l 1,6,7
 256 -11 256 -11 194 -11 c 0,8,9
 147 -11 147 -11 112.5 9 c 128,-1,10
 78 29 78 29 60 63 c 128,-1,11
 42 97 42 97 33.5 134.5 c 128,-1,12
 25 172 25 172 25 214 c 0,13,14
 25 314 25 314 88 386 c 128,-1,15
 151 458 151 458 250 458 c 0,16,17
 311 458 311 458 359 425 c 1,18,-1
 407 456 l 2,19,20
 418 462 418 462 421 456.5 c 128,-1,21
 424 451 424 451 424 439 c 2,22,-1
 424 -137 l 2,23,24
 424 -171 424 -171 439.5 -186 c 128,-1,25
 455 -201 455 -201 498 -203 c 1,26,-1
 498 -217 l 1,0,-1
233 51 m 0,27,28
 269 51 269 51 304 67.5 c 128,-1,29
 339 84 339 84 339 117 c 2,30,-1
 339 338 l 2,31,32
 339 356 339 356 336.5 369 c 128,-1,33
 334 382 334 382 325.5 398.5 c 128,-1,34
 317 415 317 415 296.5 424 c 128,-1,35
 276 433 276 433 244 433 c 0,36,37
 177 433 177 433 144 375 c 128,-1,38
 111 317 111 317 111 244 c 0,39,40
 111 159 111 159 143 105 c 128,-1,41
 175 51 175 51 233 51 c 0,27,28
EndSplineSet
EndChar

StartChar: L
Encoding: 76 76 47
Width: 609
GlyphClass: 2
Flags: W
LayerCount: 2
Fore
SplineSet
598 174 m 1,0,-1
 550 0 l 1,1,-1
 12 0 l 1,2,-1
 12 20 l 1,3,4
 100 20 100 20 100 80 c 2,5,-1
 100 582 l 2,6,7
 100 642 100 642 12 642 c 1,8,-1
 12 662 l 1,9,-1
 290 662 l 1,10,-1
 290 642 l 1,11,12
 203 642 203 642 203 582 c 2,13,-1
 203 80 l 2,14,15
 203 41 203 41 303 41 c 0,16,17
 307 41 307 41 313 41 c 0,18,19
 343 41 343 41 357.5 41.5 c 128,-1,20
 372 42 372 42 397 43 c 128,-1,21
 422 44 422 44 435 47.5 c 128,-1,22
 448 51 448 51 467.5 57.5 c 128,-1,23
 487 64 487 64 499.5 73.5 c 128,-1,24
 512 83 512 83 526.5 97 c 128,-1,25
 541 111 541 111 552 130 c 128,-1,26
 563 149 563 149 573 174 c 1,27,-1
 598 174 l 1,0,-1
EndSplineSet
EndChar

StartChar: M
Encoding: 77 77 48
Width: 887
GlyphClass: 2
Flags: W
LayerCount: 2
Fore
SplineSet
869 0 m 1,0,-1
 593 0 l 1,1,-1
 593 20 l 1,2,3
 680 20 680 20 680 80 c 2,4,-1
 680 568 l 1,5,-1
 424 0 l 1,6,-1
 410 0 l 1,7,-1
 160 545 l 1,8,-1
 160 80 l 2,9,10
 160 20 160 20 257 20 c 1,11,-1
 257 0 l 1,12,-1
 20 0 l 1,13,-1
 20 20 l 1,14,15
 117 20 117 20 117 80 c 2,16,-1
 117 582 l 2,17,18
 117 642 117 642 22 642 c 1,19,-1
 22 662 l 1,20,-1
 220 662 l 1,21,-1
 450 157 l 1,22,-1
 670 662 l 1,23,-1
 869 662 l 1,24,-1
 869 642 l 1,25,26
 782 642 782 642 782 582 c 2,27,-1
 782 80 l 2,28,29
 782 20 782 20 869 20 c 1,30,-1
 869 0 l 1,0,-1
EndSplineSet
EndChar

StartChar: N
Encoding: 78 78 49
Width: 499
GlyphClass: 2
Flags: W
LayerCount: 2
Fore
SplineSet
490 0 m 1,0,-1
 280 0 l 1,1,-1
 280 14 l 1,2,3
 315 17 315 17 329 32 c 128,-1,4
 343 47 343 47 343 80 c 2,5,-1
 343 295 l 2,6,7
 343 329 343 329 339 350 c 128,-1,8
 335 371 335 371 317 387.5 c 128,-1,9
 299 404 299 404 266 404 c 0,10,11
 214 404 214 404 157 347 c 1,12,-1
 157 80 l 2,13,14
 157 47 157 47 171 32 c 128,-1,15
 185 17 185 17 220 14 c 1,16,-1
 220 0 l 1,17,-1
 9 0 l 1,18,-1
 9 14 l 1,19,20
 44 17 44 17 58 32 c 128,-1,21
 72 47 72 47 72 80 c 2,22,-1
 72 324 l 2,23,24
 72 371 72 371 65 383.5 c 128,-1,25
 58 396 58 396 34 396 c 2,26,-1
 9 396 l 1,27,-1
 9 410 l 1,28,-1
 157 458 l 1,29,-1
 157 378 l 1,30,31
 193 415 193 415 228 436.5 c 128,-1,32
 263 458 263 458 310 458 c 0,33,34
 427 458 427 458 427 296 c 2,35,-1
 427 80 l 2,36,37
 427 47 427 47 441 32 c 128,-1,38
 455 17 455 17 490 14 c 1,39,-1
 490 0 l 1,0,-1
EndSplineSet
EndChar

StartChar: O
Encoding: 79 79 50
Width: 721
GlyphClass: 2
Flags: W
LayerCount: 2
Fore
SplineSet
687 330 m 0,0,1
 687 183 687 183 597.5 84.5 c 128,-1,2
 508 -14 508 -14 361 -14 c 0,3,4
 224 -14 224 -14 129 81.5 c 128,-1,5
 34 177 34 177 34 330 c 0,6,7
 34 480 34 480 122.5 578 c 128,-1,8
 211 676 211 676 361 676 c 0,9,10
 442 676 442 676 506 646 c 128,-1,11
 570 616 570 616 608.5 565.5 c 128,-1,12
 647 515 647 515 667 455 c 128,-1,13
 687 395 687 395 687 330 c 0,0,1
574 330 m 0,14,15
 574 413 574 413 554.5 480 c 128,-1,16
 535 547 535 547 486 593 c 128,-1,17
 437 639 437 639 365 639 c 0,18,19
 335 639 335 639 308.5 632.5 c 128,-1,20
 282 626 282 626 251 606 c 128,-1,21
 220 586 220 586 198 553.5 c 128,-1,22
 176 521 176 521 161.5 463.5 c 128,-1,23
 147 406 147 406 147 330 c 0,24,25
 147 186 147 186 204 104 c 128,-1,26
 261 22 261 22 348 22 c 0,27,28
 452 22 452 22 513 104 c 128,-1,29
 574 186 574 186 574 330 c 0,14,15
EndSplineSet
EndChar

StartChar: P
Encoding: 80 80 51
Width: 556
GlyphClass: 2
Flags: W
LayerCount: 2
Fore
SplineSet
542 487 m 0,0,1
 542 417 542 417 504 370.5 c 128,-1,2
 466 324 466 324 411 306.5 c 128,-1,3
 356 289 356 289 287 289 c 0,4,5
 240 289 240 289 201 293 c 1,6,-1
 201 80 l 2,7,8
 201 20 201 20 289 20 c 1,9,-1
 289 0 l 1,10,-1
 11 0 l 1,11,-1
 11 20 l 1,12,13
 100 20 100 20 100 80 c 2,14,-1
 100 582 l 2,15,16
 100 642 100 642 17 642 c 1,17,-1
 17 662 l 1,18,-1
 267 662 l 2,19,20
 389 662 389 662 465.5 617 c 128,-1,21
 542 572 542 572 542 487 c 0,0,1
433 479 m 0,22,23
 433 624 433 624 244 624 c 0,24,25
 214 624 214 624 207.5 617 c 128,-1,26
 201 610 201 610 201 579 c 2,27,-1
 201 330 l 1,28,29
 209 330 209 330 225 328.5 c 128,-1,30
 241 327 241 327 250 327 c 0,31,32
 433 327 433 327 433 479 c 0,22,23
EndSplineSet
EndChar

StartChar: Q
Encoding: 81 81 52
Width: 499
GlyphClass: 2
Flags: W
LayerCount: 2
Fore
SplineSet
498 -217 m 1,0,-1
 257 -217 l 1,1,-1
 257 -203 l 1,2,3
 305 -201 305 -201 322 -186 c 128,-1,4
 339 -171 339 -171 339 -137 c 2,5,-1
 339 60 l 1,6,7
 256 -11 256 -11 194 -11 c 0,8,9
 147 -11 147 -11 112.5 9 c 128,-1,10
 78 29 78 29 60 63 c 128,-1,11
 42 97 42 97 33.5 134.5 c 128,-1,12
 25 172 25 172 25 214 c 0,13,14
 25 314 25 314 88 386 c 128,-1,15
 151 458 151 458 250 458 c 0,16,17
 311 458 311 458 359 425 c 1,18,-1
 407 456 l 2,19,20
 418 462 418 462 421 456.5 c 128,-1,21
 424 451 424 451 424 439 c 2,22,-1
 424 -137 l 2,23,24
 424 -171 424 -171 439.5 -186 c 128,-1,25
 455 -201 455 -201 498 -203 c 1,26,-1
 498 -217 l 1,0,-1
233 51 m 0,27,28
 269 51 269 51 304 67.5 c 128,-1,29
 339 84 339 84 339 117 c 2,30,-1
 339 338 l 2,31,32
 339 356 339 356 336.5 369 c 128,-1,33
 334 382 334 382 325.5 398.5 c 128,-1,34
 317 415 317 415 296.5 424 c 128,-1,35
 276 433 276 433 244 433 c 0,36,37
 177 433 177 433 144 375 c 128,-1,38
 111 317 111 317 111 244 c 0,39,40
 111 159 111 159 143 105 c 128,-1,41
 175 51 175 51 233 51 c 0,27,28
EndSplineSet
EndChar

StartChar: R
Encoding: 82 82 53
Width: 333
GlyphClass: 2
Flags: W
LayerCount: 2
Fore
SplineSet
334 405 m 0,0,1
 334 361 334 361 293 361 c 0,2,3
 274 361 274 361 255.5 378.5 c 128,-1,4
 237 396 237 396 226 396 c 0,5,6
 211 396 211 396 187.5 367.5 c 128,-1,7
 164 339 164 339 164 318 c 2,8,-1
 164 80 l 2,9,10
 164 47 164 47 180 32 c 128,-1,11
 196 17 196 17 240 14 c 1,12,-1
 240 0 l 1,13,-1
 5 0 l 1,14,-1
 5 14 l 1,15,16
 49 17 49 17 64.5 32 c 128,-1,17
 80 47 80 47 80 80 c 2,18,-1
 80 298 l 2,19,20
 80 353 80 353 71.5 374 c 128,-1,21
 63 395 63 395 40 395 c 0,22,23
 26 395 26 395 5 389 c 1,24,-1
 5 404 l 1,25,-1
 164 458 l 1,26,-1
 164 367 l 1,27,28
 184 402 184 402 214 430 c 128,-1,29
 244 458 244 458 278 458 c 0,30,31
 334 458 334 458 334 405 c 0,0,1
EndSplineSet
EndChar

StartChar: S
Encoding: 83 83 54
Width: 388
GlyphClass: 2
Flags: W
LayerCount: 2
Fore
SplineSet
190 458 m 0,0,1
 215 458 215 458 244 447 c 128,-1,2
 273 436 273 436 283 436 c 0,3,4
 296 436 296 436 303 449 c 1,5,-1
 315 449 l 1,6,-1
 315 313 l 1,7,-1
 300 313 l 1,8,9
 283 373 283 373 259.5 404 c 128,-1,10
 236 435 236 435 189 435 c 0,11,12
 159 435 159 435 136.5 417 c 128,-1,13
 114 399 114 399 114 370 c 0,14,15
 114 343 114 343 138 319 c 128,-1,16
 162 295 162 295 196.5 276 c 128,-1,17
 231 257 231 257 265 237 c 128,-1,18
 299 217 299 217 323 188 c 128,-1,19
 347 159 347 159 347 124 c 0,20,21
 347 62 347 62 305 25.5 c 128,-1,22
 263 -11 263 -11 200 -11 c 0,23,24
 176 -11 176 -11 139.5 1 c 128,-1,25
 103 13 103 13 87 13 c 0,26,27
 70 13 70 13 65 -3 c 1,28,-1
 51 -3 l 1,29,-1
 51 154 l 1,30,-1
 68 154 l 1,31,32
 91 14 91 14 198 14 c 0,33,34
 232 14 232 14 255 33 c 128,-1,35
 278 52 278 52 278 84 c 0,36,37
 278 113 278 113 254.5 136.5 c 128,-1,38
 231 160 231 160 197.5 178 c 128,-1,39
 164 196 164 196 131 215.5 c 128,-1,40
 98 235 98 235 74.5 265.5 c 128,-1,41
 51 296 51 296 51 335 c 0,42,43
 51 391 51 391 91.5 424.5 c 128,-1,44
 132 458 132 458 190 458 c 0,0,1
EndSplineSet
EndChar

StartChar: T
Encoding: 84 84 55
Width: 278
GlyphClass: 2
Flags: W
LayerCount: 2
Fore
SplineSet
200 43 m 0,0,1
 238 43 238 43 266 80 c 1,2,-1
 280 68 l 1,3,4
 219 -11 219 -11 151 -11 c 0,5,6
 103 -11 103 -11 87 20 c 128,-1,7
 71 51 71 51 71 129 c 2,8,-1
 71 416 l 1,9,-1
 41 416 l 2,10,11
 39 416 39 416 33 415.5 c 128,-1,12
 27 415 27 415 24 415 c 128,-1,13
 21 415 21 415 16.5 416.5 c 128,-1,14
 12 418 12 418 13 421 c 128,-1,15
 14 424 14 424 15 430 c 1,16,17
 35 443 35 443 55 462.5 c 128,-1,18
 75 482 75 482 88 497 c 128,-1,19
 101 512 101 512 123 538.5 c 128,-1,20
 145 565 145 565 157 579 c 1,21,-1
 157 447 l 1,22,-1
 255 447 l 1,23,-1
 255 416 l 1,24,-1
 157 416 l 1,25,-1
 157 146 l 2,26,27
 157 94 157 94 165.5 68.5 c 128,-1,28
 174 43 174 43 200 43 c 0,0,1
EndSplineSet
EndChar

StartChar: U
Encoding: 85 85 56
Width: 721
GlyphClass: 2
Flags: W
LayerCount: 2
Fore
SplineSet
703 642 m 1,0,1
 610 642 610 642 610 582 c 2,2,-1
 610 267 l 2,3,4
 610 166 610 166 587.5 107.5 c 128,-1,5
 565 49 565 49 487 12 c 0,6,7
 433 -14 433 -14 359 -14 c 0,8,9
 225 -14 225 -14 164.5 50.5 c 128,-1,10
 104 115 104 115 104 253 c 2,11,-1
 104 582 l 2,12,13
 104 642 104 642 17 642 c 1,14,-1
 17 662 l 1,15,-1
 293 662 l 1,16,-1
 293 642 l 1,17,18
 206 642 206 642 206 582 c 2,19,-1
 206 246 l 2,20,21
 206 129 206 129 245.5 80 c 128,-1,22
 285 31 285 31 379 31 c 0,23,24
 432 31 432 31 469.5 47.5 c 128,-1,25
 507 64 507 64 525.5 85.5 c 128,-1,26
 544 107 544 107 554 144 c 128,-1,27
 564 181 564 181 565.5 204.5 c 128,-1,28
 567 228 567 228 567 267 c 2,29,-1
 567 582 l 2,30,31
 567 642 567 642 473 642 c 1,32,-1
 473 662 l 1,33,-1
 703 662 l 1,34,-1
 703 642 l 1,0,1
EndSplineSet
EndChar

StartChar: V
Encoding: 86 86 57
Width: 721
GlyphClass: 2
Flags: W
LayerCount: 2
Fore
SplineSet
700 642 m 1,0,1
 668 642 668 642 649.5 623.5 c 128,-1,2
 631 605 631 605 617 570 c 2,3,-1
 386 -14 l 1,4,-1
 373 -14 l 1,5,-1
 131 527 l 2,6,7
 118 556 118 556 109.5 571.5 c 128,-1,8
 101 587 101 587 87.5 606 c 128,-1,9
 74 625 74 625 57.5 633.5 c 128,-1,10
 41 642 41 642 20 642 c 1,11,-1
 20 662 l 1,12,-1
 286 662 l 1,13,-1
 286 642 l 1,14,15
 241 642 241 642 225.5 633.5 c 128,-1,16
 210 625 210 625 210 605 c 0,17,18
 210 581 210 581 257 487 c 1,19,-1
 402 161 l 1,20,-1
 544 516 l 2,21,22
 568 575 568 575 568 599 c 0,23,24
 568 642 568 642 496 642 c 1,25,-1
 496 662 l 1,26,-1
 700 662 l 1,27,-1
 700 642 l 1,0,1
EndSplineSet
EndChar

StartChar: W
Encoding: 87 87 58
Width: 721
GlyphClass: 2
Flags: W
LayerCount: 2
Fore
SplineSet
688 329 m 0,0,1
 688 174 688 174 585.5 87 c 128,-1,2
 483 0 483 0 286 0 c 2,3,-1
 20 0 l 1,4,-1
 20 20 l 1,5,6
 108 20 108 20 108 80 c 2,7,-1
 108 582 l 2,8,9
 108 642 108 642 20 642 c 1,10,-1
 20 662 l 1,11,-1
 278 662 l 2,12,13
 473 662 473 662 580.5 578 c 128,-1,14
 688 494 688 494 688 329 c 0,0,1
210 91 m 2,15,16
 210 76 210 76 216 65.5 c 128,-1,17
 222 55 222 55 228 50 c 128,-1,18
 234 45 234 45 247 42.5 c 128,-1,19
 260 40 260 40 265 40 c 128,-1,20
 270 40 270 40 281 40 c 0,21,22
 422 40 422 40 500.5 116.5 c 128,-1,23
 579 193 579 193 579 327 c 0,24,25
 579 471 579 471 494.5 547.5 c 128,-1,26
 410 624 410 624 267 624 c 0,27,28
 230 624 230 624 220 616 c 128,-1,29
 210 608 210 608 210 573 c 2,30,-1
 210 91 l 2,15,16
EndSplineSet
EndChar

StartChar: X
Encoding: 88 88 59
Width: 610
GlyphClass: 2
Flags: W
LayerCount: 2
Fore
SplineSet
253 620 m 1,0,-1
 201 620 l 2,1,2
 116 620 116 620 87 597 c 128,-1,3
 58 574 58 574 41 492 c 1,4,-1
 18 492 l 1,5,-1
 23 662 l 1,6,-1
 587 662 l 1,7,-1
 593 492 l 1,8,-1
 570 492 l 1,9,10
 552 575 552 575 523.5 597.5 c 128,-1,11
 495 620 495 620 410 620 c 2,12,-1
 356 620 l 1,13,-1
 356 80 l 2,14,15
 356 24 356 24 444 19 c 1,16,-1
 444 0 l 1,17,-1
 166 0 l 1,18,-1
 166 19 l 1,19,20
 203 21 203 21 223.5 31 c 128,-1,21
 244 41 244 41 248.5 52 c 128,-1,22
 253 63 253 63 253 80 c 2,23,-1
 253 620 l 1,0,-1
EndSplineSet
EndChar

StartChar: Y
Encoding: 89 89 60
Width: 499
GlyphClass: 2
Flags: W
LayerCount: 2
Fore
SplineSet
83 -117 m 0,0,1
 94 -117 94 -117 119.5 -126 c 128,-1,2
 145 -135 145 -135 151 -135 c 0,3,4
 170 -135 170 -135 188 -110 c 128,-1,5
 206 -85 206 -85 230 -23 c 0,6,7
 242 1 242 1 242 17 c 0,8,9
 242 23 242 23 241 25 c 2,10,-1
 71 390 l 2,11,12
 54 429 54 429 15 433 c 1,13,-1
 15 447 l 1,14,-1
 221 447 l 1,15,-1
 221 433 l 1,16,17
 162 433 162 433 162 405 c 0,18,19
 162 393 162 393 174 367 c 2,20,-1
 287 114 l 1,21,-1
 386 392 l 2,22,23
 389 398 389 398 389 405 c 0,24,25
 389 430 389 430 341 433 c 1,26,-1
 341 447 l 1,27,-1
 476 447 l 1,28,-1
 476 433 l 1,29,30
 462 433 462 433 447 414.5 c 128,-1,31
 432 396 432 396 424 376 c 2,32,-1
 276 -8 l 2,33,34
 237 -109 237 -109 213 -145 c 0,35,36
 166 -217 166 -217 103 -217 c 0,37,38
 73 -217 73 -217 52 -200.5 c 128,-1,39
 31 -184 31 -184 31 -158 c 0,40,41
 31 -136 31 -136 47 -126.5 c 128,-1,42
 63 -117 63 -117 83 -117 c 0,0,1
EndSplineSet
EndChar

StartChar: Z
Encoding: 90 90 61
Width: 278
GlyphClass: 2
Flags: W
LayerCount: 2
Fore
SplineSet
212 630 m 0,0,1
 212 609 212 609 197 594 c 128,-1,2
 182 579 182 579 161 579 c 0,3,4
 141 579 141 579 126 594 c 128,-1,5
 111 609 111 609 111 630 c 0,6,7
 111 652 111 652 126 667 c 128,-1,8
 141 682 141 682 161 682 c 0,9,10
 182 682 182 682 197 667 c 128,-1,11
 212 652 212 652 212 630 c 0,0,1
-55 -158 m 0,12,13
 -55 -137 -55 -137 -41 -127.5 c 128,-1,14
 -27 -118 -27 -118 -13 -118 c 0,15,16
 7 -118 7 -118 26 -143.5 c 128,-1,17
 45 -169 45 -169 69 -181 c 0,18,19
 76 -184 76 -184 83 -184 c 0,20,21
 103 -184 103 -184 112 -156 c 128,-1,22
 121 -128 121 -128 121 -94 c 2,23,-1
 121 343 l 2,24,25
 121 373 121 373 114 383.5 c 128,-1,26
 107 394 107 394 86 394 c 0,27,28
 80 394 80 394 48 390 c 1,29,-1
 48 404 l 1,30,-1
 206 458 l 1,31,-1
 206 12 l 2,32,33
 206 -217 206 -217 35 -217 c 0,34,35
 7 -217 7 -217 -24 -203 c 128,-1,36
 -55 -189 -55 -189 -55 -158 c 0,12,13
EndSplineSet
EndChar

StartChar: bracketleft
Encoding: 91 91 62
Width: 333
GlyphClass: 2
Flags: W
LayerCount: 2
Fore
SplineSet
300 -157 m 1,0,-1
 88 -157 l 1,1,-1
 88 662 l 1,2,-1
 300 662 l 1,3,-1
 300 636 l 1,4,-1
 221 636 l 2,5,6
 187 636 187 636 175.5 625 c 128,-1,7
 164 614 164 614 164 581 c 2,8,-1
 164 -68 l 2,9,10
 164 -106 164 -106 176 -118.5 c 128,-1,11
 188 -131 188 -131 224 -131 c 2,12,-1
 300 -131 l 1,13,-1
 300 -157 l 1,0,-1
EndSplineSet
EndChar

StartChar: backslash
Encoding: 92 92 63
Width: 278
GlyphClass: 2
Flags: W
LayerCount: 2
Fore
SplineSet
361 0 m 1,0,-1
 289 0 l 1,1,-1
 -83 682 l 1,2,-1
 -11 682 l 1,3,-1
 361 0 l 1,0,-1
EndSplineSet
EndChar

StartChar: bracketright
Encoding: 93 93 64
Width: 333
GlyphClass: 2
Flags: W
LayerCount: 2
Fore
SplineSet
244 -157 m 1,0,-1
 34 -157 l 1,1,-1
 34 -131 l 1,2,-1
 103 -131 l 2,3,4
 148 -130 148 -130 158.5 -118.5 c 128,-1,5
 169 -107 169 -107 169 -63 c 2,6,-1
 169 556 l 2,7,8
 169 578 169 578 168.5 586 c 128,-1,9
 168 594 168 594 166 607 c 128,-1,10
 164 620 164 620 159.5 624 c 128,-1,11
 155 628 155 628 146 632 c 128,-1,12
 137 636 137 636 123 636 c 2,13,-1
 34 636 l 1,14,-1
 34 662 l 1,15,-1
 244 662 l 1,16,-1
 244 -157 l 1,0,-1
EndSplineSet
EndChar

StartChar: asciicircum
Encoding: 94 94 65
Width: 468
GlyphClass: 2
Flags: W
LayerCount: 2
Fore
SplineSet
456 257 m 1,0,-1
 382 257 l 1,1,-1
 235 593 l 1,2,-1
 86 257 l 1,3,-1
 14 257 l 1,4,-1
 203 662 l 1,5,-1
 267 662 l 1,6,-1
 456 257 l 1,0,-1
EndSplineSet
EndChar

StartChar: underscore
Encoding: 95 95 66
Width: 499
GlyphClass: 2
Flags: W
LayerCount: 2
Fore
SplineSet
499 -174 m 1,0,-1
 0 -174 l 1,1,-1
 0 -115 l 1,2,-1
 499 -115 l 1,3,-1
 499 -174 l 1,0,-1
EndSplineSet
EndChar

StartChar: grave
Encoding: 96 96 67
Width: 333
GlyphClass: 2
Flags: W
LayerCount: 2
Fore
SplineSet
243 507 m 1,0,-1
 203 507 l 1,1,-1
 60 598 l 2,2,3
 17 625 17 625 17 641 c 0,4,5
 17 677 17 677 48 677 c 0,6,7
 53 677 53 677 57.5 676 c 128,-1,8
 62 675 62 675 65.5 674.5 c 128,-1,9
 69 674 69 674 73.5 671 c 128,-1,10
 78 668 78 668 80 667 c 128,-1,11
 82 666 82 666 86.5 662 c 128,-1,12
 91 658 91 658 92 657 c 128,-1,13
 93 656 93 656 98 651 c 128,-1,14
 103 646 103 646 104 645 c 2,15,-1
 243 507 l 1,0,-1
EndSplineSet
EndChar

StartChar: a
Encoding: 97 97 68
Width: 443
GlyphClass: 2
Flags: W
LayerCount: 2
Fore
SplineSet
55 345 m 0,0,1
 55 356 55 356 62 372.5 c 128,-1,2
 69 389 69 389 85.5 409.5 c 128,-1,3
 102 430 102 430 138 444 c 128,-1,4
 174 458 174 458 224 458 c 0,5,6
 306 458 306 458 336.5 419.5 c 128,-1,7
 367 381 367 381 367 287 c 2,8,-1
 367 77 l 2,9,10
 367 46 367 46 390 46 c 0,11,12
 408 46 408 46 442 69 c 1,13,-1
 442 43 l 1,14,15
 427 25 427 25 402.5 7 c 128,-1,16
 378 -11 378 -11 359 -11 c 0,17,18
 323 -11 323 -11 306 11 c 128,-1,19
 289 33 289 33 287 66 c 1,20,21
 204 -11 204 -11 143 -11 c 0,22,23
 98 -11 98 -11 67.5 20 c 128,-1,24
 37 51 37 51 37 95 c 0,25,26
 37 117 37 117 44.5 136.5 c 128,-1,27
 52 156 52 156 63 171 c 128,-1,28
 74 186 74 186 93 200.5 c 128,-1,29
 112 215 112 215 128 225 c 128,-1,30
 144 235 144 235 168.5 245.5 c 128,-1,31
 193 256 193 256 208.5 262 c 128,-1,32
 224 268 224 268 248.5 277 c 128,-1,33
 273 286 273 286 283 290 c 1,34,35
 283 374 283 374 269 404.5 c 128,-1,36
 255 435 255 435 210 435 c 0,37,38
 193 435 193 435 172.5 427 c 128,-1,39
 152 419 152 419 144 407 c 0,40,41
 142 399 142 399 142 392 c 0,42,43
 142 387 142 387 143 372.5 c 128,-1,44
 144 358 144 358 144 349 c 0,45,46
 144 332 144 332 130.5 318 c 128,-1,47
 117 304 117 304 100 304 c 0,48,49
 78 304 78 304 66.5 315.5 c 128,-1,50
 55 327 55 327 55 345 c 0,0,1
283 94 m 1,51,-1
 283 264 l 1,52,53
 273 260 273 260 250 251.5 c 128,-1,54
 227 243 227 243 213 237.5 c 128,-1,55
 199 232 199 232 180 221.5 c 128,-1,56
 161 211 161 211 150.5 199.5 c 128,-1,57
 140 188 140 188 132 170.5 c 128,-1,58
 124 153 124 153 124 131 c 0,59,60
 124 96 124 96 142.5 72.5 c 128,-1,61
 161 49 161 49 195 49 c 0,62,63
 213 49 213 49 244.5 63.5 c 128,-1,64
 276 78 276 78 283 94 c 1,51,-1
EndSplineSet
EndChar

StartChar: b
Encoding: 98 98 69
Width: 499
GlyphClass: 2
Flags: W
LayerCount: 2
Fore
SplineSet
473 243 m 0,0,1
 473 141 473 141 407.5 65 c 128,-1,2
 342 -11 342 -11 243 -11 c 0,3,4
 186 -11 186 -11 130 10.5 c 128,-1,5
 74 32 74 32 74 54 c 2,6,-1
 74 559 l 2,7,8
 74 599 74 599 67 609 c 128,-1,9
 60 619 60 619 37 619 c 2,10,-1
 9 619 l 1,11,-1
 9 637 l 1,12,13
 23 641 23 641 52.5 648 c 128,-1,14
 82 655 82 655 97 660 c 2,15,-1
 160 682 l 1,16,-1
 160 378 l 1,17,18
 180 416 180 416 218 437 c 128,-1,19
 256 458 256 458 301 458 c 0,20,21
 382 458 382 458 427.5 392.5 c 128,-1,22
 473 327 473 327 473 243 c 0,0,1
386 200 m 0,23,24
 386 233 386 233 380 265 c 128,-1,25
 374 297 374 297 360.5 327.5 c 128,-1,26
 347 358 347 358 320.5 377 c 128,-1,27
 294 396 294 396 258 396 c 0,28,29
 207 396 207 396 183.5 371 c 128,-1,30
 160 346 160 346 160 309 c 2,31,-1
 160 70 l 2,32,33
 160 52 160 52 189.5 37.5 c 128,-1,34
 219 23 219 23 257 23 c 0,35,36
 325 23 325 23 355.5 75 c 128,-1,37
 386 127 386 127 386 200 c 0,23,24
EndSplineSet
EndChar

StartChar: c
Encoding: 99 99 70
Width: 443
GlyphClass: 2
Flags: W
LayerCount: 2
Fore
SplineSet
412 149 m 1,0,1
 375 74 375 74 329 31.5 c 128,-1,2
 283 -11 283 -11 212 -11 c 0,3,4
 132 -11 132 -11 78.5 55 c 128,-1,5
 25 121 25 121 25 214 c 0,6,7
 25 318 25 318 83.5 388 c 128,-1,8
 142 458 142 458 249 458 c 0,9,10
 280 458 280 458 312 448 c 128,-1,11
 344 438 344 438 370 414.5 c 128,-1,12
 396 391 396 391 398 359 c 0,13,14
 398 342 398 342 384 329 c 128,-1,15
 370 316 370 316 353 316 c 128,-1,16
 336 316 336 316 321.5 329.5 c 128,-1,17
 307 343 307 343 307 359 c 0,18,19
 307 391 307 391 288 410 c 128,-1,20
 269 429 269 429 230 429 c 0,21,22
 170 429 170 429 136.5 376.5 c 128,-1,23
 103 324 103 324 103 255 c 0,24,25
 103 179 103 179 144 119.5 c 128,-1,26
 185 60 185 60 257 60 c 0,27,28
 302 60 302 60 335 86 c 128,-1,29
 368 112 368 112 398 157 c 1,30,-1
 412 149 l 1,0,1
EndSplineSet
EndChar

StartChar: d
Encoding: 100 100 71
Width: 499
GlyphClass: 2
Flags: W
LayerCount: 2
Fore
SplineSet
490 45 m 1,0,1
 414 23 414 23 339 -14 c 1,2,-1
 339 60 l 1,3,4
 319 29 319 29 284 9 c 128,-1,5
 249 -11 249 -11 212 -11 c 0,6,7
 124 -11 124 -11 75 54 c 128,-1,8
 26 119 26 119 26 210 c 0,9,10
 26 304 26 304 85.5 381 c 128,-1,11
 145 458 145 458 237 458 c 0,12,13
 271 458 271 458 299 445 c 128,-1,14
 327 432 327 432 339 418 c 1,15,-1
 339 559 l 2,16,17
 339 600 339 600 333 609.5 c 128,-1,18
 327 619 327 619 302 619 c 2,19,-1
 273 619 l 1,20,-1
 273 637 l 1,21,22
 285 640 285 640 316 647.5 c 128,-1,23
 347 655 347 655 361 660 c 2,24,-1
 424 682 l 1,25,-1
 424 91 l 2,26,27
 424 72 424 72 435 66 c 128,-1,28
 446 60 446 60 467 60 c 2,29,-1
 490 60 l 1,30,-1
 490 45 l 1,0,1
339 117 m 2,31,-1
 339 300 l 2,32,33
 339 357 339 357 313 392 c 128,-1,34
 287 427 287 427 235 427 c 0,35,36
 176 427 176 427 144 371.5 c 128,-1,37
 112 316 112 316 112 241 c 0,38,39
 112 146 112 146 150 92 c 128,-1,40
 188 38 188 38 250 38 c 0,41,42
 290 38 290 38 314.5 63 c 128,-1,43
 339 88 339 88 339 117 c 2,31,-1
EndSplineSet
EndChar

StartChar: e
Encoding: 101 101 72
Width: 443
GlyphClass: 2
Flags: W
LayerCount: 2
Fore
SplineSet
421 158 m 1,0,1
 396 86 396 86 340 37.5 c 128,-1,2
 284 -11 284 -11 212 -11 c 0,3,4
 128 -11 128 -11 75.5 55.5 c 128,-1,5
 23 122 23 122 23 214 c 0,6,7
 23 322 23 322 79 390 c 128,-1,8
 135 458 135 458 226 458 c 0,9,10
 304 458 304 458 352 406.5 c 128,-1,11
 400 355 400 355 402 276 c 1,12,-1
 91 276 l 1,13,14
 92 225 92 225 108 177 c 128,-1,15
 124 129 124 129 162 93 c 128,-1,16
 200 57 200 57 253 57 c 0,17,18
 299 57 299 57 338.5 87.5 c 128,-1,19
 378 118 378 118 404 164 c 1,20,-1
 421 158 l 1,0,1
300 307 m 1,21,22
 297 357 297 357 273.5 389.5 c 128,-1,23
 250 422 250 422 204 422 c 0,24,25
 110 422 110 422 94 307 c 1,26,-1
 300 307 l 1,21,22
EndSplineSet
EndChar

StartChar: f
Encoding: 102 102 73
Width: 332
GlyphClass: 2
Flags: W
LayerCount: 2
Fore
SplineSet
340 580 m 0,0,1
 325 580 325 580 313.5 591.5 c 128,-1,2
 302 603 302 603 295 617.5 c 128,-1,3
 288 632 288 632 274 643.5 c 128,-1,4
 260 655 260 655 242 655 c 0,5,6
 185 655 185 655 185 565 c 2,7,-1
 185 450 l 1,8,-1
 308 450 l 1,9,-1
 308 417 l 1,10,-1
 186 417 l 1,11,-1
 186 104 l 2,12,13
 186 48 186 48 202 32.5 c 128,-1,14
 218 17 218 17 279 15 c 1,15,-1
 279 0 l 1,16,-1
 20 0 l 1,17,-1
 20 15 l 1,18,19
 73 18 73 18 87.5 33.5 c 128,-1,20
 102 49 102 49 102 104 c 2,21,-1
 102 417 l 1,22,-1
 20 417 l 1,23,-1
 20 450 l 1,24,-1
 102 450 l 1,25,26
 103 511 103 511 110 543.5 c 128,-1,27
 117 576 117 576 137 609 c 0,28,29
 156 644 156 644 193.5 663.5 c 128,-1,30
 231 683 231 683 277 683 c 128,-1,31
 323 683 323 683 353 665.5 c 128,-1,32
 383 648 383 648 383 621 c 0,33,34
 383 604 383 604 370.5 592 c 128,-1,35
 358 580 358 580 340 580 c 0,0,1
EndSplineSet
EndChar

StartChar: g
Encoding: 103 103 74
Width: 499
GlyphClass: 2
Flags: W
LayerCount: 2
Fore
SplineSet
470 386 m 1,0,-1
 387 386 l 1,1,2
 406 345 406 345 406 300 c 0,3,4
 406 230 406 230 359 188.5 c 128,-1,5
 312 147 312 147 244 147 c 0,6,7
 237 147 237 147 190 154 c 1,8,9
 174 150 174 150 153.5 128.5 c 128,-1,10
 133 107 133 107 133 90 c 0,11,12
 133 83 133 83 139.5 78.5 c 128,-1,13
 146 74 146 74 158 71 c 128,-1,14
 170 68 170 68 179.5 67 c 128,-1,15
 189 66 189 66 204 64.5 c 128,-1,16
 219 63 219 63 223 63 c 0,17,18
 238 62 238 62 266 61.5 c 128,-1,19
 294 61 294 61 307 60 c 128,-1,20
 320 59 320 59 343 57 c 128,-1,21
 366 55 366 55 377.5 52 c 128,-1,22
 389 49 389 49 405 44 c 128,-1,23
 421 39 421 39 429 31 c 128,-1,24
 437 23 437 23 445.5 12 c 128,-1,25
 454 1 454 1 457.5 -14.5 c 128,-1,26
 461 -30 461 -30 461 -49 c 0,27,28
 461 -102 461 -102 414 -142.5 c 128,-1,29
 367 -183 367 -183 309 -200 c 128,-1,30
 251 -217 251 -217 200 -217 c 0,31,32
 121 -217 121 -217 74.5 -183.5 c 128,-1,33
 28 -150 28 -150 28 -114 c 0,34,35
 28 -100 28 -100 37.5 -84.5 c 128,-1,36
 47 -69 47 -69 56 -60 c 128,-1,37
 65 -51 65 -51 90 -29.5 c 128,-1,38
 115 -8 115 -8 126 2 c 1,39,40
 74 23 74 23 74 54 c 0,41,42
 74 98 74 98 163 163 c 1,43,44
 69 201 69 201 69 296 c 0,45,46
 69 368 69 368 120 413 c 128,-1,47
 171 458 171 458 244 458 c 0,48,49
 280 458 280 458 328 439.5 c 128,-1,50
 376 421 376 421 421 421 c 0,51,52
 442 421 442 421 470 424 c 1,53,-1
 470 386 l 1,0,-1
329 272 m 0,54,55
 329 323 329 323 302.5 376.5 c 128,-1,56
 276 430 276 430 230 430 c 0,57,58
 152 430 152 430 152 335 c 0,59,60
 152 275 152 275 176.5 224.5 c 128,-1,61
 201 174 201 174 255 174 c 0,62,63
 329 174 329 174 329 272 c 0,54,55
433 -68 m 0,64,65
 433 -50 433 -50 422.5 -38.5 c 128,-1,66
 412 -27 412 -27 389 -22 c 128,-1,67
 366 -17 366 -17 348 -15.5 c 128,-1,68
 330 -14 330 -14 298 -14 c 0,69,70
 204 -14 204 -14 147 -3 c 1,71,72
 98 -57 98 -57 98 -91 c 0,73,74
 98 -120 98 -120 133 -140.5 c 128,-1,75
 168 -161 168 -161 240 -161 c 0,76,77
 328 -161 328 -161 380.5 -135.5 c 128,-1,78
 433 -110 433 -110 433 -68 c 0,64,65
EndSplineSet
EndChar

StartChar: h
Encoding: 104 104 75
Width: 721
GlyphClass: 2
Flags: W
LayerCount: 2
Fore
SplineSet
702 0 m 1,0,-1
 424 0 l 1,1,-1
 424 20 l 1,2,3
 513 20 513 20 513 80 c 2,4,-1
 513 318 l 1,5,-1
 210 318 l 1,6,-1
 210 80 l 2,7,8
 210 20 210 20 298 20 c 1,9,-1
 298 0 l 1,10,-1
 20 0 l 1,11,-1
 20 20 l 1,12,13
 108 20 108 20 108 80 c 2,14,-1
 108 582 l 2,15,16
 108 642 108 642 20 642 c 1,17,-1
 17 662 l 1,18,-1
 298 662 l 1,19,-1
 298 642 l 1,20,21
 210 642 210 642 210 582 c 2,22,-1
 210 359 l 1,23,-1
 513 359 l 1,24,-1
 513 582 l 2,25,26
 513 642 513 642 424 642 c 1,27,-1
 424 662 l 1,28,-1
 702 662 l 1,29,-1
 702 642 l 1,30,31
 614 642 614 642 614 582 c 2,32,-1
 614 80 l 2,33,34
 614 20 614 20 702 20 c 1,35,-1
 702 0 l 1,0,-1
EndSplineSet
EndChar

StartChar: i
Encoding: 105 105 76
Width: 278
GlyphClass: 2
Flags: W
LayerCount: 2
Fore
SplineSet
184 630 m 0,0,1
 184 609 184 609 169 594 c 128,-1,2
 154 579 154 579 134 579 c 0,3,4
 112 579 112 579 97.5 594 c 128,-1,5
 83 609 83 609 83 630 c 0,6,7
 83 652 83 652 97.5 667 c 128,-1,8
 112 682 112 682 134 682 c 0,9,10
 154 682 154 682 169 667 c 128,-1,11
 184 652 184 652 184 630 c 0,0,1
260 0 m 1,12,-1
 23 0 l 1,13,-1
 23 14 l 1,14,15
 67 17 67 17 82.5 32 c 128,-1,16
 98 47 98 47 98 80 c 2,17,-1
 98 323 l 2,18,19
 98 366 98 366 91.5 382 c 128,-1,20
 85 398 85 398 65 398 c 0,21,22
 52 398 52 398 23 390 c 1,23,-1
 23 404 l 1,24,-1
 183 458 l 1,25,-1
 183 80 l 2,26,27
 183 46 183 46 199 31.5 c 128,-1,28
 215 17 215 17 260 14 c 1,29,-1
 260 0 l 1,12,-1
EndSplineSet
EndChar

StartChar: j
Encoding: 106 106 77
Width: 278
GlyphClass: 2
Flags: W
LayerCount: 2
Fore
SplineSet
212 630 m 0,0,1
 212 609 212 609 197 594 c 128,-1,2
 182 579 182 579 161 579 c 0,3,4
 141 579 141 579 126 594 c 128,-1,5
 111 609 111 609 111 630 c 0,6,7
 111 652 111 652 126 667 c 128,-1,8
 141 682 141 682 161 682 c 0,9,10
 182 682 182 682 197 667 c 128,-1,11
 212 652 212 652 212 630 c 0,0,1
-55 -158 m 0,12,13
 -55 -137 -55 -137 -41 -127.5 c 128,-1,14
 -27 -118 -27 -118 -13 -118 c 0,15,16
 7 -118 7 -118 26 -143.5 c 128,-1,17
 45 -169 45 -169 69 -181 c 0,18,19
 76 -184 76 -184 83 -184 c 0,20,21
 103 -184 103 -184 112 -156 c 128,-1,22
 121 -128 121 -128 121 -94 c 2,23,-1
 121 343 l 2,24,25
 121 373 121 373 114 383.5 c 128,-1,26
 107 394 107 394 86 394 c 0,27,28
 80 394 80 394 48 390 c 1,29,-1
 48 404 l 1,30,-1
 206 458 l 1,31,-1
 206 12 l 2,32,33
 206 -217 206 -217 35 -217 c 0,34,35
 7 -217 7 -217 -24 -203 c 128,-1,36
 -55 -189 -55 -189 -55 -158 c 0,12,13
EndSplineSet
EndChar

StartChar: k
Encoding: 107 107 78
Width: 499
GlyphClass: 2
Flags: W
LayerCount: 2
Fore
SplineSet
499 0 m 1,0,-1
 283 0 l 1,1,-1
 283 14 l 1,2,3
 318 14 318 14 318 32 c 0,4,5
 318 41 318 41 310 51 c 2,6,-1
 161 247 l 1,7,-1
 161 80 l 2,8,9
 161 47 161 47 177 32 c 128,-1,10
 193 17 193 17 237 14 c 1,11,-1
 237 0 l 1,12,-1
 2 0 l 1,13,-1
 2 14 l 1,14,15
 45 17 45 17 61 32 c 128,-1,16
 77 47 77 47 77 80 c 2,17,-1
 77 579 l 2,18,19
 77 605 77 605 71 612 c 128,-1,20
 65 619 65 619 44 619 c 2,21,-1
 11 619 l 1,22,-1
 11 637 l 1,23,24
 25 641 25 641 43.5 645 c 128,-1,25
 62 649 62 649 74.5 652.5 c 128,-1,26
 87 656 87 656 98 660 c 2,27,-1
 161 682 l 1,28,-1
 161 263 l 1,29,-1
 287 373 l 2,30,31
 321 402 321 402 321 415 c 0,32,33
 321 433 321 433 270 433 c 1,34,-1
 270 447 l 1,35,-1
 475 447 l 1,36,-1
 475 433 l 1,37,38
 445 433 445 433 420 426 c 128,-1,39
 395 419 395 419 369.5 402 c 128,-1,40
 344 385 344 385 327.5 371 c 128,-1,41
 311 357 311 357 279.5 328 c 128,-1,42
 248 299 248 299 230 283 c 1,43,-1
 375 98 l 2,44,45
 437 18 437 18 499 14 c 1,46,-1
 499 0 l 1,0,-1
EndSplineSet
EndChar

StartChar: l
Encoding: 108 108 79
Width: 278
GlyphClass: 2
Flags: W
LayerCount: 2
Fore
SplineSet
260 0 m 1,0,-1
 20 0 l 1,1,-1
 20 14 l 1,2,3
 66 17 66 17 81.5 31.5 c 128,-1,4
 97 46 97 46 97 80 c 2,5,-1
 97 559 l 2,6,7
 97 603 97 603 90 613.5 c 128,-1,8
 83 624 83 624 54 624 c 2,9,-1
 20 624 l 1,10,-1
 20 637 l 1,11,12
 118 657 118 657 183 682 c 1,13,-1
 183 80 l 2,14,15
 183 46 183 46 198.5 31.5 c 128,-1,16
 214 17 214 17 260 14 c 1,17,-1
 260 0 l 1,0,-1
EndSplineSet
EndChar

StartChar: m
Encoding: 109 109 80
Width: 777
GlyphClass: 2
Flags: W
LayerCount: 2
Fore
SplineSet
165 383 m 0,0,1
 166 383 166 383 186.5 401.5 c 128,-1,2
 207 420 207 420 243 439 c 128,-1,3
 279 458 279 458 316 458 c 128,-1,4
 353 458 353 458 381.5 434 c 128,-1,5
 410 410 410 410 419 373 c 1,6,7
 450 408 450 408 492.5 433 c 128,-1,8
 535 458 535 458 574 458 c 0,9,10
 608 458 608 458 632.5 446 c 128,-1,11
 657 434 657 434 670 417 c 128,-1,12
 683 400 683 400 690 372 c 128,-1,13
 697 344 697 344 698.5 322 c 128,-1,14
 700 300 700 300 700 267 c 2,15,-1
 700 80 l 2,16,17
 700 47 700 47 714 32 c 128,-1,18
 728 17 728 17 763 14 c 1,19,-1
 763 0 l 1,20,-1
 553 0 l 1,21,-1
 553 14 l 1,22,23
 588 17 588 17 602 32 c 128,-1,24
 616 47 616 47 616 80 c 2,25,-1
 616 283 l 2,26,27
 616 355 616 355 600.5 379.5 c 128,-1,28
 585 404 585 404 538 404 c 0,29,30
 467 404 467 404 430 344 c 1,31,-1
 430 80 l 2,32,33
 430 47 430 47 444 32 c 128,-1,34
 458 17 458 17 493 14 c 1,35,-1
 493 0 l 1,36,-1
 283 0 l 1,37,-1
 283 14 l 1,38,39
 318 17 318 17 332 32 c 128,-1,40
 346 47 346 47 346 80 c 2,41,-1
 346 287 l 2,42,43
 346 312 346 312 344.5 328 c 128,-1,44
 343 344 343 344 336.5 364 c 128,-1,45
 330 384 330 384 315 394 c 128,-1,46
 300 404 300 404 276 404 c 0,47,48
 244 404 244 404 211 388 c 128,-1,49
 178 372 178 372 161 346 c 1,50,-1
 161 80 l 2,51,52
 161 47 161 47 175 32 c 128,-1,53
 189 17 189 17 224 14 c 1,54,-1
 224 0 l 1,55,-1
 14 0 l 1,56,-1
 14 14 l 1,57,58
 49 17 49 17 63 32 c 128,-1,59
 77 47 77 47 77 80 c 2,60,-1
 77 323 l 2,61,62
 77 365 77 365 65.5 377 c 128,-1,63
 54 389 54 389 14 389 c 1,64,-1
 14 406 l 1,65,-1
 161 458 l 1,66,-1
 161 392 l 2,67,68
 161 383 161 383 165 383 c 0,0,1
EndSplineSet
EndChar

StartChar: n
Encoding: 110 110 81
Width: 499
GlyphClass: 2
Flags: W
LayerCount: 2
Fore
SplineSet
490 0 m 1,0,-1
 280 0 l 1,1,-1
 280 14 l 1,2,3
 315 17 315 17 329 32 c 128,-1,4
 343 47 343 47 343 80 c 2,5,-1
 343 295 l 2,6,7
 343 329 343 329 339 350 c 128,-1,8
 335 371 335 371 317 387.5 c 128,-1,9
 299 404 299 404 266 404 c 0,10,11
 214 404 214 404 157 347 c 1,12,-1
 157 80 l 2,13,14
 157 47 157 47 171 32 c 128,-1,15
 185 17 185 17 220 14 c 1,16,-1
 220 0 l 1,17,-1
 9 0 l 1,18,-1
 9 14 l 1,19,20
 44 17 44 17 58 32 c 128,-1,21
 72 47 72 47 72 80 c 2,22,-1
 72 324 l 2,23,24
 72 371 72 371 65 383.5 c 128,-1,25
 58 396 58 396 34 396 c 2,26,-1
 9 396 l 1,27,-1
 9 410 l 1,28,-1
 157 458 l 1,29,-1
 157 378 l 1,30,31
 193 415 193 415 228 436.5 c 128,-1,32
 263 458 263 458 310 458 c 0,33,34
 427 458 427 458 427 296 c 2,35,-1
 427 80 l 2,36,37
 427 47 427 47 441 32 c 128,-1,38
 455 17 455 17 490 14 c 1,39,-1
 490 0 l 1,0,-1
EndSplineSet
EndChar

StartChar: o
Encoding: 111 111 82
Width: 499
GlyphClass: 2
Flags: W
LayerCount: 2
Fore
SplineSet
470 238 m 0,0,1
 470 136 470 136 408 62.5 c 128,-1,2
 346 -11 346 -11 246 -11 c 0,3,4
 152 -11 152 -11 91.5 57 c 128,-1,5
 31 125 31 125 31 218 c 0,6,7
 31 321 31 321 88.5 389.5 c 128,-1,8
 146 458 146 458 246 458 c 0,9,10
 345 458 345 458 407.5 397 c 128,-1,11
 470 336 470 336 470 238 c 0,0,1
378 190 m 0,12,13
 378 228 378 228 371 266 c 128,-1,14
 364 304 364 304 348.5 342 c 128,-1,15
 333 380 333 380 303 403.5 c 128,-1,16
 273 427 273 427 233 427 c 0,17,18
 180 427 180 427 151.5 383.5 c 128,-1,19
 123 340 123 340 123 272 c 0,20,21
 123 160 123 160 159 90 c 128,-1,22
 195 20 195 20 264 20 c 0,23,24
 320 20 320 20 349 69.5 c 128,-1,25
 378 119 378 119 378 190 c 0,12,13
EndSplineSet
EndChar

StartChar: p
Encoding: 112 112 83
Width: 499
GlyphClass: 2
Flags: W
LayerCount: 2
Fore
SplineSet
161 386 m 128,-1,1
 162 386 162 386 167.5 393.5 c 128,-1,2
 173 401 173 401 184 411.5 c 128,-1,3
 195 422 195 422 210 432.5 c 128,-1,4
 225 443 225 443 250.5 450.5 c 128,-1,5
 276 458 276 458 306 458 c 0,6,7
 385 458 385 458 427.5 396.5 c 128,-1,8
 470 335 470 335 470 243 c 0,9,10
 470 139 470 139 408.5 64 c 128,-1,11
 347 -11 347 -11 253 -11 c 0,12,13
 201 -11 201 -11 160 35 c 1,14,-1
 160 -137 l 2,15,16
 160 -171 160 -171 177 -186 c 128,-1,17
 194 -201 194 -201 243 -203 c 1,18,-1
 243 -217 l 1,19,-1
 3 -217 l 1,20,-1
 3 -203 l 1,21,22
 45 -201 45 -201 60 -186 c 128,-1,23
 75 -171 75 -171 75 -137 c 2,24,-1
 75 327 l 2,25,26
 75 346 75 346 74.5 354 c 128,-1,27
 74 362 74 362 72 373 c 128,-1,28
 70 384 70 384 65 388 c 128,-1,29
 60 392 60 392 51.5 395 c 128,-1,30
 43 398 43 398 29 398 c 0,31,32
 23 398 23 398 3 396 c 1,33,-1
 3 410 l 1,34,-1
 160 458 l 1,35,-1
 160 389 l 2,36,0
 160 386 160 386 161 386 c 128,-1,1
160 103 m 2,37,38
 160 66 160 66 194.5 44.5 c 128,-1,39
 229 23 229 23 263 23 c 0,40,41
 316 23 316 23 350 75 c 128,-1,42
 384 127 384 127 384 203 c 0,43,44
 384 237 384 237 378.5 268.5 c 128,-1,45
 373 300 373 300 360.5 332 c 128,-1,46
 348 364 348 364 321.5 383 c 128,-1,47
 295 402 295 402 258 402 c 0,48,49
 213 402 213 402 180 369 c 0,50,51
 166 357 166 357 163 349.5 c 128,-1,52
 160 342 160 342 160 324 c 2,53,-1
 160 103 l 2,37,38
EndSplineSet
EndChar

StartChar: q
Encoding: 113 113 84
Width: 499
GlyphClass: 2
Flags: W
LayerCount: 2
Fore
SplineSet
498 -217 m 1,0,-1
 257 -217 l 1,1,-1
 257 -203 l 1,2,3
 305 -201 305 -201 322 -186 c 128,-1,4
 339 -171 339 -171 339 -137 c 2,5,-1
 339 60 l 1,6,7
 256 -11 256 -11 194 -11 c 0,8,9
 147 -11 147 -11 112.5 9 c 128,-1,10
 78 29 78 29 60 63 c 128,-1,11
 42 97 42 97 33.5 134.5 c 128,-1,12
 25 172 25 172 25 214 c 0,13,14
 25 314 25 314 88 386 c 128,-1,15
 151 458 151 458 250 458 c 0,16,17
 311 458 311 458 359 425 c 1,18,-1
 407 456 l 2,19,20
 418 462 418 462 421 456.5 c 128,-1,21
 424 451 424 451 424 439 c 2,22,-1
 424 -137 l 2,23,24
 424 -171 424 -171 439.5 -186 c 128,-1,25
 455 -201 455 -201 498 -203 c 1,26,-1
 498 -217 l 1,0,-1
233 51 m 0,27,28
 269 51 269 51 304 67.5 c 128,-1,29
 339 84 339 84 339 117 c 2,30,-1
 339 338 l 2,31,32
 339 356 339 356 336.5 369 c 128,-1,33
 334 382 334 382 325.5 398.5 c 128,-1,34
 317 415 317 415 296.5 424 c 128,-1,35
 276 433 276 433 244 433 c 0,36,37
 177 433 177 433 144 375 c 128,-1,38
 111 317 111 317 111 244 c 0,39,40
 111 159 111 159 143 105 c 128,-1,41
 175 51 175 51 233 51 c 0,27,28
EndSplineSet
EndChar

StartChar: r
Encoding: 114 114 85
Width: 333
GlyphClass: 2
Flags: W
LayerCount: 2
Fore
SplineSet
334 405 m 0,0,1
 334 361 334 361 293 361 c 0,2,3
 274 361 274 361 255.5 378.5 c 128,-1,4
 237 396 237 396 226 396 c 0,5,6
 211 396 211 396 187.5 367.5 c 128,-1,7
 164 339 164 339 164 318 c 2,8,-1
 164 80 l 2,9,10
 164 47 164 47 180 32 c 128,-1,11
 196 17 196 17 240 14 c 1,12,-1
 240 0 l 1,13,-1
 5 0 l 1,14,-1
 5 14 l 1,15,16
 49 17 49 17 64.5 32 c 128,-1,17
 80 47 80 47 80 80 c 2,18,-1
 80 298 l 2,19,20
 80 353 80 353 71.5 374 c 128,-1,21
 63 395 63 395 40 395 c 0,22,23
 26 395 26 395 5 389 c 1,24,-1
 5 404 l 1,25,-1
 164 458 l 1,26,-1
 164 367 l 1,27,28
 184 402 184 402 214 430 c 128,-1,29
 244 458 244 458 278 458 c 0,30,31
 334 458 334 458 334 405 c 0,0,1
EndSplineSet
EndChar

StartChar: s
Encoding: 115 115 86
Width: 388
GlyphClass: 2
Flags: W
LayerCount: 2
Fore
SplineSet
190 458 m 0,0,1
 215 458 215 458 244 447 c 128,-1,2
 273 436 273 436 283 436 c 0,3,4
 296 436 296 436 303 449 c 1,5,-1
 315 449 l 1,6,-1
 315 313 l 1,7,-1
 300 313 l 1,8,9
 283 373 283 373 259.5 404 c 128,-1,10
 236 435 236 435 189 435 c 0,11,12
 159 435 159 435 136.5 417 c 128,-1,13
 114 399 114 399 114 370 c 0,14,15
 114 343 114 343 138 319 c 128,-1,16
 162 295 162 295 196.5 276 c 128,-1,17
 231 257 231 257 265 237 c 128,-1,18
 299 217 299 217 323 188 c 128,-1,19
 347 159 347 159 347 124 c 0,20,21
 347 62 347 62 305 25.5 c 128,-1,22
 263 -11 263 -11 200 -11 c 0,23,24
 176 -11 176 -11 139.5 1 c 128,-1,25
 103 13 103 13 87 13 c 0,26,27
 70 13 70 13 65 -3 c 1,28,-1
 51 -3 l 1,29,-1
 51 154 l 1,30,-1
 68 154 l 1,31,32
 91 14 91 14 198 14 c 0,33,34
 232 14 232 14 255 33 c 128,-1,35
 278 52 278 52 278 84 c 0,36,37
 278 113 278 113 254.5 136.5 c 128,-1,38
 231 160 231 160 197.5 178 c 128,-1,39
 164 196 164 196 131 215.5 c 128,-1,40
 98 235 98 235 74.5 265.5 c 128,-1,41
 51 296 51 296 51 335 c 0,42,43
 51 391 51 391 91.5 424.5 c 128,-1,44
 132 458 132 458 190 458 c 0,0,1
EndSplineSet
EndChar

StartChar: t
Encoding: 116 116 87
Width: 278
GlyphClass: 2
Flags: W
LayerCount: 2
Fore
SplineSet
200 43 m 0,0,1
 238 43 238 43 266 80 c 1,2,-1
 280 68 l 1,3,4
 219 -11 219 -11 151 -11 c 0,5,6
 103 -11 103 -11 87 20 c 128,-1,7
 71 51 71 51 71 129 c 2,8,-1
 71 416 l 1,9,-1
 41 416 l 2,10,11
 39 416 39 416 33 415.5 c 128,-1,12
 27 415 27 415 24 415 c 128,-1,13
 21 415 21 415 16.5 416.5 c 128,-1,14
 12 418 12 418 13 421 c 128,-1,15
 14 424 14 424 15 430 c 1,16,17
 35 443 35 443 55 462.5 c 128,-1,18
 75 482 75 482 88 497 c 128,-1,19
 101 512 101 512 123 538.5 c 128,-1,20
 145 565 145 565 157 579 c 1,21,-1
 157 447 l 1,22,-1
 255 447 l 1,23,-1
 255 416 l 1,24,-1
 157 416 l 1,25,-1
 157 146 l 2,26,27
 157 94 157 94 165.5 68.5 c 128,-1,28
 174 43 174 43 200 43 c 0,0,1
EndSplineSet
EndChar

StartChar: u
Encoding: 117 117 88
Width: 499
GlyphClass: 2
Flags: W
LayerCount: 2
Fore
SplineSet
479 37 m 1,0,1
 443 26 443 26 338 -11 c 1,2,-1
 338 77 l 1,3,-1
 316 54 l 1,4,5
 261 -11 261 -11 189 -11 c 0,6,7
 131 -11 131 -11 101.5 27 c 128,-1,8
 72 65 72 65 72 132 c 2,9,-1
 72 361 l 2,10,11
 72 407 72 407 61 420 c 128,-1,12
 50 433 50 433 9 433 c 1,13,-1
 9 447 l 1,14,-1
 157 447 l 1,15,-1
 157 137 l 2,16,17
 157 48 157 48 232 48 c 0,18,19
 270 48 270 48 310 80 c 0,20,21
 332 98 332 98 332 124 c 2,22,-1
 332 359 l 2,23,24
 332 407 332 407 320 420 c 128,-1,25
 308 433 308 433 260 433 c 1,26,-1
 260 447 l 1,27,-1
 416 447 l 1,28,-1
 416 120 l 2,29,30
 416 80 416 80 425 65.5 c 128,-1,31
 434 51 434 51 468 51 c 2,32,-1
 479 51 l 1,33,-1
 479 37 l 1,0,1
EndSplineSet
EndChar

StartChar: v
Encoding: 118 118 89
Width: 499
GlyphClass: 2
Flags: W
LayerCount: 2
Fore
SplineSet
467 433 m 1,0,1
 459 433 459 433 452.5 431 c 128,-1,2
 446 429 446 429 440.5 423 c 128,-1,3
 435 417 435 417 431 413 c 128,-1,4
 427 409 427 409 422 398 c 128,-1,5
 417 387 417 387 414.5 382 c 128,-1,6
 412 377 412 377 406.5 362.5 c 128,-1,7
 401 348 401 348 399 343 c 2,8,-1
 266 17 l 2,9,10
 256 -11 256 -11 247 -11 c 0,11,12
 240 -11 240 -11 230 17 c 2,13,-1
 74 379 l 2,14,15
 51 433 51 433 11 433 c 1,16,-1
 11 447 l 1,17,-1
 206 447 l 1,18,-1
 206 433 l 1,19,20
 161 433 161 433 161 405 c 0,21,22
 161 395 161 395 174 358 c 2,23,-1
 270 120 l 1,24,-1
 347 323 l 2,25,26
 371 382 371 382 371 405 c 0,27,28
 371 433 371 433 329 433 c 1,29,-1
 329 447 l 1,30,-1
 467 447 l 1,31,-1
 467 433 l 1,0,1
EndSplineSet
EndChar

StartChar: w
Encoding: 119 119 90
Width: 721
GlyphClass: 2
Flags: W
LayerCount: 2
Fore
SplineSet
688 329 m 0,0,1
 688 174 688 174 585.5 87 c 128,-1,2
 483 0 483 0 286 0 c 2,3,-1
 20 0 l 1,4,-1
 20 20 l 1,5,6
 108 20 108 20 108 80 c 2,7,-1
 108 582 l 2,8,9
 108 642 108 642 20 642 c 1,10,-1
 20 662 l 1,11,-1
 278 662 l 2,12,13
 473 662 473 662 580.5 578 c 128,-1,14
 688 494 688 494 688 329 c 0,0,1
210 91 m 2,15,16
 210 76 210 76 216 65.5 c 128,-1,17
 222 55 222 55 228 50 c 128,-1,18
 234 45 234 45 247 42.5 c 128,-1,19
 260 40 260 40 265 40 c 128,-1,20
 270 40 270 40 281 40 c 0,21,22
 422 40 422 40 500.5 116.5 c 128,-1,23
 579 193 579 193 579 327 c 0,24,25
 579 471 579 471 494.5 547.5 c 128,-1,26
 410 624 410 624 267 624 c 0,27,28
 230 624 230 624 220 616 c 128,-1,29
 210 608 210 608 210 573 c 2,30,-1
 210 91 l 2,15,16
EndSplineSet
EndChar

StartChar: x
Encoding: 120 120 91
Width: 610
GlyphClass: 2
Flags: W
LayerCount: 2
Fore
SplineSet
253 620 m 1,0,-1
 201 620 l 2,1,2
 116 620 116 620 87 597 c 128,-1,3
 58 574 58 574 41 492 c 1,4,-1
 18 492 l 1,5,-1
 23 662 l 1,6,-1
 587 662 l 1,7,-1
 593 492 l 1,8,-1
 570 492 l 1,9,10
 552 575 552 575 523.5 597.5 c 128,-1,11
 495 620 495 620 410 620 c 2,12,-1
 356 620 l 1,13,-1
 356 80 l 2,14,15
 356 24 356 24 444 19 c 1,16,-1
 444 0 l 1,17,-1
 166 0 l 1,18,-1
 166 19 l 1,19,20
 203 21 203 21 223.5 31 c 128,-1,21
 244 41 244 41 248.5 52 c 128,-1,22
 253 63 253 63 253 80 c 2,23,-1
 253 620 l 1,0,-1
EndSplineSet
EndChar

StartChar: y
Encoding: 121 121 92
Width: 499
GlyphClass: 2
Flags: W
LayerCount: 2
Fore
SplineSet
83 -117 m 0,0,1
 94 -117 94 -117 119.5 -126 c 128,-1,2
 145 -135 145 -135 151 -135 c 0,3,4
 170 -135 170 -135 188 -110 c 128,-1,5
 206 -85 206 -85 230 -23 c 0,6,7
 242 1 242 1 242 17 c 0,8,9
 242 23 242 23 241 25 c 2,10,-1
 71 390 l 2,11,12
 54 429 54 429 15 433 c 1,13,-1
 15 447 l 1,14,-1
 221 447 l 1,15,-1
 221 433 l 1,16,17
 162 433 162 433 162 405 c 0,18,19
 162 393 162 393 174 367 c 2,20,-1
 287 114 l 1,21,-1
 386 392 l 2,22,23
 389 398 389 398 389 405 c 0,24,25
 389 430 389 430 341 433 c 1,26,-1
 341 447 l 1,27,-1
 476 447 l 1,28,-1
 476 433 l 1,29,30
 462 433 462 433 447 414.5 c 128,-1,31
 432 396 432 396 424 376 c 2,32,-1
 276 -8 l 2,33,34
 237 -109 237 -109 213 -145 c 0,35,36
 166 -217 166 -217 103 -217 c 0,37,38
 73 -217 73 -217 52 -200.5 c 128,-1,39
 31 -184 31 -184 31 -158 c 0,40,41
 31 -136 31 -136 47 -126.5 c 128,-1,42
 63 -117 63 -117 83 -117 c 0,0,1
EndSplineSet
EndChar

StartChar: z
Encoding: 122 122 93
Width: 278
GlyphClass: 2
Flags: W
LayerCount: 2
Fore
SplineSet
212 630 m 0,0,1
 212 609 212 609 197 594 c 128,-1,2
 182 579 182 579 161 579 c 0,3,4
 141 579 141 579 126 594 c 128,-1,5
 111 609 111 609 111 630 c 0,6,7
 111 652 111 652 126 667 c 128,-1,8
 141 682 141 682 161 682 c 0,9,10
 182 682 182 682 197 667 c 128,-1,11
 212 652 212 652 212 630 c 0,0,1
-55 -158 m 0,12,13
 -55 -137 -55 -137 -41 -127.5 c 128,-1,14
 -27 -118 -27 -118 -13 -118 c 0,15,16
 7 -118 7 -118 26 -143.5 c 128,-1,17
 45 -169 45 -169 69 -181 c 0,18,19
 76 -184 76 -184 83 -184 c 0,20,21
 103 -184 103 -184 112 -156 c 128,-1,22
 121 -128 121 -128 121 -94 c 2,23,-1
 121 343 l 2,24,25
 121 373 121 373 114 383.5 c 128,-1,26
 107 394 107 394 86 394 c 0,27,28
 80 394 80 394 48 390 c 1,29,-1
 48 404 l 1,30,-1
 206 458 l 1,31,-1
 206 12 l 2,32,33
 206 -217 206 -217 35 -217 c 0,34,35
 7 -217 7 -217 -24 -203 c 128,-1,36
 -55 -189 -55 -189 -55 -158 c 0,12,13
EndSplineSet
EndChar

StartChar: braceleft
Encoding: 123 123 94
Width: 479
GlyphClass: 2
Flags: W
LayerCount: 2
Fore
SplineSet
341 -164 m 1,0,1
 253 -166 253 -166 219.5 -136.5 c 128,-1,2
 186 -107 186 -107 186 -17 c 2,3,-1
 186 143 l 2,4,5
 186 196 186 196 172 220.5 c 128,-1,6
 158 245 158 245 111 257 c 1,7,8
 155 270 155 270 170.5 295 c 128,-1,9
 186 320 186 320 186 370 c 2,10,-1
 186 544 l 2,11,12
 186 627 186 627 222.5 654.5 c 128,-1,13
 259 682 259 682 341 682 c 1,14,15
 294 670 294 670 276 641 c 128,-1,16
 258 612 258 612 258 559 c 2,17,-1
 258 384 l 2,18,19
 258 327 258 327 242 298.5 c 128,-1,20
 226 270 226 270 177 257 c 1,21,22
 227 244 227 244 242.5 213 c 128,-1,23
 258 182 258 182 258 121 c 2,24,-1
 258 -43 l 2,25,26
 258 -96 258 -96 276.5 -125.5 c 128,-1,27
 295 -155 295 -155 341 -164 c 1,0,1
EndSplineSet
EndChar

StartChar: bar
Encoding: 124 124 95
Width: 199
GlyphClass: 2
Flags: W
LayerCount: 2
Fore
SplineSet
132 0 m 1,0,-1
 68 0 l 1,1,-1
 68 682 l 1,2,-1
 132 682 l 1,3,-1
 132 0 l 1,0,-1
EndSplineSet
EndChar

StartChar: braceright
Encoding: 125 125 96
Width: 479
GlyphClass: 2
Flags: W
LayerCount: 2
Fore
SplineSet
370 257 m 1,0,1
 323 245 323 245 308 220.5 c 128,-1,2
 293 196 293 196 293 143 c 2,3,-1
 293 -17 l 2,4,5
 293 -107 293 -107 260 -136.5 c 128,-1,6
 227 -166 227 -166 140 -164 c 1,7,8
 186 -155 186 -155 204.5 -125.5 c 128,-1,9
 223 -96 223 -96 223 -43 c 2,10,-1
 223 121 l 2,11,12
 223 183 223 183 237.5 213.5 c 128,-1,13
 252 244 252 244 303 257 c 1,14,15
 254 270 254 270 238.5 298 c 128,-1,16
 223 326 223 326 223 384 c 2,17,-1
 223 559 l 2,18,19
 223 612 223 612 204.5 641 c 128,-1,20
 186 670 186 670 140 682 c 1,21,22
 222 682 222 682 257.5 654.5 c 128,-1,23
 293 627 293 627 293 544 c 2,24,-1
 293 370 l 2,25,26
 293 320 293 320 309 295 c 128,-1,27
 325 270 325 270 370 257 c 1,0,1
EndSplineSet
EndChar

StartChar: asciitilde
Encoding: 126 126 97
Width: 540
GlyphClass: 2
Flags: W
LayerCount: 2
Fore
SplineSet
522 307 m 1,0,1
 463 198 463 198 381 198 c 0,2,3
 342 198 342 198 268 232.5 c 128,-1,4
 194 267 194 267 160 267 c 0,5,6
 140 267 140 267 124 260 c 128,-1,7
 108 253 108 253 94 236 c 128,-1,8
 80 219 80 219 73.5 209 c 128,-1,9
 67 199 67 199 54 177 c 1,10,-1
 18 217 l 1,11,12
 38 251 38 251 53.5 272 c 128,-1,13
 69 293 69 293 98 312.5 c 128,-1,14
 127 332 127 332 160 332 c 0,15,16
 196 332 196 332 277 296.5 c 128,-1,17
 358 261 358 261 382 261 c 0,18,19
 413 261 413 261 441 287 c 128,-1,20
 469 313 469 313 487 347 c 1,21,-1
 522 307 l 1,0,1
EndSplineSet
EndChar

StartChar: exclamdown
Encoding: 161 161 99
Width: 332
GlyphClass: 2
Flags: W
LayerCount: 2
Fore
SplineSet
144 283 m 1,0,-1
 157 283 l 1,1,-1
 166 174 l 2,2,3
 171 118 171 118 187.5 8 c 128,-1,4
 204 -102 204 -102 204 -141 c 0,5,6
 204 -176 204 -176 189 -197 c 128,-1,7
 174 -218 174 -218 149 -218 c 0,8,9
 97 -218 97 -218 97 -138 c 0,10,11
 97 -119 97 -119 100 -101 c 2,12,-1
 144 283 l 1,0,-1
151 469 m 0,13,14
 173 469 173 469 188.5 454 c 128,-1,15
 204 439 204 439 204 417 c 0,16,17
 204 394 204 394 188 378 c 128,-1,18
 172 362 172 362 149 362 c 0,19,20
 127 362 127 362 112 378 c 128,-1,21
 97 394 97 394 97 417 c 128,-1,22
 97 440 97 440 112 454.5 c 128,-1,23
 127 469 127 469 151 469 c 0,13,14
EndSplineSet
EndChar

StartChar: cent
Encoding: 162 162 100
Width: 499
GlyphClass: 2
Flags: W
LayerCount: 2
Fore
SplineSet
448 157 m 1,0,1
 433 125 433 125 422 106 c 128,-1,2
 411 87 411 87 387 55.5 c 128,-1,3
 363 24 363 24 329.5 7.5 c 128,-1,4
 296 -9 296 -9 256 -9 c 0,5,6
 233 -9 233 -9 201 0 c 1,7,-1
 152 -138 l 1,8,-1
 119 -138 l 1,9,-1
 168 12 l 1,10,11
 53 83 53 83 53 220 c 0,12,13
 53 321 53 321 116.5 390.5 c 128,-1,14
 180 460 180 460 272 460 c 0,15,16
 276 460 276 460 324 456 c 1,17,-1
 368 579 l 1,18,-1
 403 579 l 1,19,-1
 356 444 l 1,20,21
 431 414 431 414 431 360 c 0,22,23
 431 340 431 340 419 327.5 c 128,-1,24
 407 315 407 315 388 315 c 128,-1,25
 369 315 369 315 356.5 326.5 c 128,-1,26
 344 338 344 338 330 368 c 1,27,-1
 229 76 l 1,28,29
 261 64 261 64 289 64 c 0,30,31
 333 64 333 64 365 86 c 128,-1,32
 397 108 397 108 435 164 c 1,33,-1
 448 157 l 1,0,1
198 98 m 1,34,-1
 313 420 l 1,35,36
 287 431 287 431 267 431 c 0,37,38
 206 431 206 431 168 384 c 128,-1,39
 130 337 130 337 130 261 c 0,40,41
 130 206 130 206 145.5 169.5 c 128,-1,42
 161 133 161 133 198 98 c 1,34,-1
EndSplineSet
EndChar

StartChar: sterling
Encoding: 163 163 101
Width: 499
GlyphClass: 2
Flags: W
LayerCount: 2
Fore
SplineSet
398 530 m 0,0,1
 373 530 373 530 365 548.5 c 128,-1,2
 357 567 357 567 359.5 589.5 c 128,-1,3
 362 612 362 612 349.5 630.5 c 128,-1,4
 337 649 337 649 303 649 c 0,5,6
 258 649 258 649 233 612.5 c 128,-1,7
 208 576 208 576 208 510 c 0,8,9
 208 463 208 463 220 374 c 1,10,-1
 344 374 l 1,11,-1
 344 328 l 1,12,-1
 223 328 l 1,13,14
 224 280 224 280 224 272 c 0,15,16
 224 238 224 238 199 111 c 1,17,18
 280 76 280 76 349 76 c 0,19,20
 381 76 381 76 406.5 86 c 128,-1,21
 432 96 432 96 444 108.5 c 128,-1,22
 456 121 456 121 466.5 131 c 128,-1,23
 477 141 477 141 483 141 c 0,24,25
 491 141 491 141 491 136 c 0,26,27
 491 125 491 125 480.5 103 c 128,-1,28
 470 81 470 81 451 55.5 c 128,-1,29
 432 30 432 30 397.5 11.5 c 128,-1,30
 363 -7 363 -7 322 -7 c 0,31,32
 289 -7 289 -7 259.5 6 c 128,-1,33
 230 19 230 19 179 54 c 1,34,35
 148 19 148 19 127.5 6 c 128,-1,36
 107 -7 107 -7 81 -7 c 0,37,38
 50 -7 50 -7 31 9.5 c 128,-1,39
 12 26 12 26 12 54 c 0,40,41
 12 88 12 88 37 109 c 128,-1,42
 62 130 62 130 103 130 c 0,43,44
 125 130 125 130 149 125 c 1,45,46
 152 133 152 133 152 146 c 0,47,48
 152 175 152 175 130 328 c 1,49,-1
 23 328 l 1,50,-1
 23 374 l 1,51,-1
 130 374 l 1,52,53
 123 408 123 408 123 442 c 0,54,55
 123 549 123 549 176 613 c 128,-1,56
 229 677 229 677 318 677 c 0,57,58
 374 677 374 677 411 650 c 128,-1,59
 448 623 448 623 448 583 c 0,60,61
 448 560 448 560 434 545 c 128,-1,62
 420 530 420 530 398 530 c 0,0,1
79 21 m 0,63,64
 101 21 101 21 117 34 c 128,-1,65
 133 47 133 47 137.5 58.5 c 128,-1,66
 142 70 142 70 142 76 c 0,67,68
 142 81 142 81 124 87.5 c 128,-1,69
 106 94 106 94 89 94 c 0,70,71
 38 94 38 94 38 57 c 0,72,73
 38 41 38 41 49.5 31 c 128,-1,74
 61 21 61 21 79 21 c 0,63,64
EndSplineSet
EndChar

StartChar: currency
Encoding: 164 164 102
Width: 499
GlyphClass: 2
Flags: W
LayerCount: 2
Fore
SplineSet
-22 108 m 1,0,-1
 76 204 l 1,1,2
 35 263 35 263 35 330 c 0,3,4
 35 399 35 399 76 456 c 1,5,-1
 -22 554 l 1,6,-1
 28 602 l 1,7,-1
 125 505 l 1,8,9
 182 545 182 545 250 545 c 0,10,11
 320 545 320 545 376 505 c 1,12,-1
 475 602 l 1,13,-1
 521 554 l 1,14,-1
 426 456 l 1,15,16
 464 402 464 402 464 331 c 0,17,18
 464 261 464 261 426 204 c 1,19,-1
 521 108 l 1,20,-1
 475 59 l 1,21,-1
 376 157 l 1,22,23
 323 116 323 116 250 116 c 0,24,25
 181 116 181 116 125 157 c 1,26,-1
 28 59 l 1,27,-1
 -22 108 l 1,0,-1
253 480 m 0,28,29
 189 480 189 480 146 437 c 128,-1,30
 103 394 103 394 103 330 c 0,31,32
 103 268 103 268 146 223.5 c 128,-1,33
 189 179 189 179 250 179 c 0,34,35
 312 179 312 179 354.5 223 c 128,-1,36
 397 267 397 267 397 331 c 0,37,38
 397 393 397 393 355 436.5 c 128,-1,39
 313 480 313 480 253 480 c 0,28,29
EndSplineSet
EndChar

StartChar: yen
Encoding: 165 165 103
Width: 499
GlyphClass: 2
Flags: W
LayerCount: 2
Fore
SplineSet
190 182 m 1,0,-1
 16 182 l 1,1,-1
 16 223 l 1,2,-1
 190 223 l 1,3,-1
 190 297 l 1,4,-1
 183 312 l 1,5,-1
 16 312 l 1,6,-1
 16 352 l 1,7,-1
 160 352 l 1,8,-1
 64 524 l 2,9,10
 24 598 24 598 3 619.5 c 128,-1,11
 -18 641 -18 641 -53 643 c 1,12,-1
 -53 662 l 1,13,-1
 190 662 l 1,14,-1
 190 643 l 1,15,16
 125 642 125 642 125 614 c 0,17,18
 125 593 125 593 138 570 c 2,19,-1
 256 349 l 1,20,-1
 368 568 l 2,21,22
 382 596 382 596 382 612 c 0,23,24
 382 626 382 626 367.5 634.5 c 128,-1,25
 353 643 353 643 331 643 c 2,26,-1
 316 643 l 1,27,-1
 316 662 l 1,28,-1
 513 662 l 1,29,-1
 513 643 l 1,30,31
 474 636 474 636 448 612 c 128,-1,32
 422 588 422 588 394 536 c 2,33,-1
 302 352 l 1,34,-1
 448 352 l 1,35,-1
 448 312 l 1,36,-1
 283 312 l 1,37,-1
 275 297 l 1,38,-1
 275 223 l 1,39,-1
 448 223 l 1,40,-1
 448 182 l 1,41,-1
 275 182 l 1,42,-1
 275 108 l 2,43,44
 275 57 275 57 291 38.5 c 128,-1,45
 307 20 307 20 354 19 c 1,46,-1
 354 0 l 1,47,-1
 111 0 l 1,48,-1
 111 19 l 1,49,50
 162 21 162 21 176 39.5 c 128,-1,51
 190 58 190 58 190 120 c 2,52,-1
 190 182 l 1,0,-1
EndSplineSet
EndChar

StartChar: brokenbar
Encoding: 166 166 104
Width: 199
GlyphClass: 2
Flags: W
LayerCount: 2
Fore
SplineSet
67 -15 m 1,0,-1
 67 262 l 1,1,-1
 133 262 l 1,2,-1
 133 -15 l 1,3,-1
 67 -15 l 1,0,-1
67 400 m 1,4,-1
 67 677 l 1,5,-1
 133 677 l 1,6,-1
 133 400 l 1,7,-1
 67 400 l 1,4,-1
EndSplineSet
EndChar

StartChar: section
Encoding: 167 167 105
Width: 499
GlyphClass: 2
Flags: W
LayerCount: 2
Fore
SplineSet
278 568 m 128,-1,1
 278 587 278 587 295.5 604 c 128,-1,2
 313 621 313 621 313 623 c 0,3,4
 313 637 313 637 295 646 c 128,-1,5
 277 655 277 655 250 655 c 0,6,7
 213 655 213 655 189.5 635 c 128,-1,8
 166 615 166 615 166 584 c 0,9,10
 166 541 166 541 201 513 c 2,11,-1
 337 400 l 2,12,13
 426 326 426 326 426 245 c 0,14,15
 426 192 426 192 393.5 158.5 c 128,-1,16
 361 125 361 125 311 125 c 2,17,-1
 291 125 l 1,18,19
 348 77 348 77 367.5 47 c 128,-1,20
 387 17 387 17 387 -21 c 0,21,22
 387 -78 387 -78 347.5 -113 c 128,-1,23
 308 -148 308 -148 242 -148 c 0,24,25
 184 -148 184 -148 144 -119 c 128,-1,26
 104 -90 104 -90 104 -48 c 0,27,28
 104 -25 104 -25 119.5 -9.5 c 128,-1,29
 135 6 135 6 158 6 c 0,30,31
 179 6 179 6 193 -6 c 128,-1,32
 207 -18 207 -18 207 -37 c 0,33,34
 207 -53 207 -53 189 -71.5 c 128,-1,35
 171 -90 171 -90 171 -92 c 0,36,37
 171 -105 171 -105 193.5 -116 c 128,-1,38
 216 -127 216 -127 243 -127 c 0,39,40
 283 -127 283 -127 306.5 -106 c 128,-1,41
 330 -85 330 -85 330 -50 c 0,42,43
 330 4 330 4 242 64 c 0,44,45
 150 128 150 128 110 179.5 c 128,-1,46
 70 231 70 231 70 286 c 0,47,48
 70 337 70 337 103 371.5 c 128,-1,49
 136 406 136 406 185 406 c 0,50,51
 201 406 201 406 209 404 c 1,52,53
 149 454 149 454 129.5 483.5 c 128,-1,54
 110 513 110 513 110 554 c 0,55,56
 110 608 110 608 148.5 642.5 c 128,-1,57
 187 677 187 677 249 677 c 0,58,59
 303 677 303 677 339.5 648.5 c 128,-1,60
 376 620 376 620 376 579 c 0,61,62
 376 554 376 554 363 539 c 128,-1,63
 350 524 350 524 327 524 c 0,64,65
 306 524 306 524 292 536.5 c 128,-1,0
 278 549 278 549 278 568 c 128,-1,1
374 212 m 0,66,67
 374 258 374 258 305 321 c 128,-1,68
 236 384 236 384 190 384 c 0,69,70
 162 384 162 384 142.5 364.5 c 128,-1,71
 123 345 123 345 123 316 c 0,72,73
 123 277 123 277 168 229 c 0,74,75
 251 146 251 146 305 146 c 0,76,77
 333 146 333 146 353.5 166 c 128,-1,78
 374 186 374 186 374 212 c 0,66,67
EndSplineSet
EndChar

StartChar: dieresis
Encoding: 168 168 106
Width: 332
GlyphClass: 2
Flags: W
LayerCount: 2
Fore
SplineSet
66 623 m 0,0,1
 87 623 87 623 102 608 c 128,-1,2
 117 593 117 593 117 573 c 0,3,4
 117 552 117 552 102 537.5 c 128,-1,5
 87 523 87 523 66 523 c 0,6,7
 46 523 46 523 32 537.5 c 128,-1,8
 18 552 18 552 18 573 c 0,9,10
 18 593 18 593 32.5 608 c 128,-1,11
 47 623 47 623 66 623 c 0,0,1
265 623 m 0,12,13
 286 623 286 623 301 608 c 128,-1,14
 316 593 316 593 316 573 c 0,15,16
 316 552 316 552 301 537.5 c 128,-1,17
 286 523 286 523 265 523 c 0,18,19
 245 523 245 523 231 537.5 c 128,-1,20
 217 552 217 552 217 573 c 0,21,22
 217 593 217 593 231.5 608 c 128,-1,23
 246 623 246 623 265 623 c 0,12,13
EndSplineSet
EndChar

StartChar: copyright
Encoding: 169 169 107
Width: 758
GlyphClass: 2
Flags: W
LayerCount: 2
Fore
SplineSet
412 532 m 0,0,1
 445 532 445 532 488.5 520 c 128,-1,2
 532 508 532 508 532 494 c 2,3,-1
 532 423 l 1,4,-1
 514 423 l 1,5,6
 500 513 500 513 406 513 c 0,7,8
 339 513 339 513 303 467.5 c 128,-1,9
 267 422 267 422 267 337 c 0,10,11
 267 254 267 254 304 207.5 c 128,-1,12
 341 161 341 161 407 161 c 0,13,14
 452 161 452 161 480.5 181 c 128,-1,15
 509 201 509 201 532 248 c 1,16,-1
 546 248 l 1,17,-1
 530 171 l 2,18,19
 528 161 528 161 482 151 c 128,-1,20
 436 141 436 141 393 141 c 0,21,22
 302 141 302 141 246 193 c 128,-1,23
 190 245 190 245 190 331 c 0,24,25
 190 421 190 421 251 476.5 c 128,-1,26
 312 532 312 532 412 532 c 0,0,1
387 677 m 0,27,28
 525 677 525 677 623.5 575 c 128,-1,29
 722 473 722 473 722 330 c 0,30,31
 722 186 722 186 623.5 85.5 c 128,-1,32
 525 -15 525 -15 381 -15 c 0,33,34
 238 -15 238 -15 138 85.5 c 128,-1,35
 38 186 38 186 38 330 c 0,36,37
 38 476 38 476 139 576.5 c 128,-1,38
 240 677 240 677 387 677 c 0,27,28
385 634 m 0,39,40
 264 634 264 634 178 545 c 128,-1,41
 92 456 92 456 92 330 c 0,42,43
 92 207 92 207 177.5 117.5 c 128,-1,44
 263 28 263 28 381 28 c 0,45,46
 498 28 498 28 582 117.5 c 128,-1,47
 666 207 666 207 666 331 c 0,48,49
 666 454 666 454 582.5 544 c 128,-1,50
 499 634 499 634 385 634 c 0,39,40
EndSplineSet
EndChar

StartChar: ordfeminine
Encoding: 170 170 108
Width: 275
GlyphClass: 2
Flags: W
LayerCount: 2
Fore
SplineSet
4 461 m 0,0,1
 4 500 4 500 36.5 522 c 128,-1,2
 69 544 69 544 157 576 c 1,3,-1
 157 606 l 2,4,5
 157 647 157 647 122 647 c 0,6,7
 105 647 105 647 90.5 640 c 128,-1,8
 76 633 76 633 76 625 c 0,9,10
 76 624 76 624 77.5 615 c 128,-1,11
 79 606 79 606 79 603 c 0,12,13
 79 593 79 593 69.5 586 c 128,-1,14
 60 579 60 579 48 579 c 0,15,16
 34 579 34 579 25 587.5 c 128,-1,17
 16 596 16 596 16 609 c 0,18,19
 16 638 16 638 47 657.5 c 128,-1,20
 78 677 78 677 125 677 c 0,21,22
 229 677 229 677 229 580 c 2,23,-1
 229 464 l 2,24,25
 229 444 229 444 231.5 437.5 c 128,-1,26
 234 431 234 431 242 431 c 0,27,28
 258 431 258 431 270 442 c 1,29,-1
 270 423 l 1,30,31
 241 394 241 394 211 394 c 0,32,33
 173 394 173 394 166 438 c 1,34,35
 116 394 116 394 75 394 c 0,36,37
 44 394 44 394 24 413 c 128,-1,38
 4 432 4 432 4 461 c 0,0,1
105 441 m 0,39,40
 123 441 123 441 140.5 449.5 c 128,-1,41
 158 458 158 458 158 475 c 2,42,-1
 158 551 l 1,43,44
 105 532 105 532 86 518 c 128,-1,45
 67 504 67 504 67 485 c 0,46,47
 67 467 67 467 78 454 c 128,-1,48
 89 441 89 441 105 441 c 0,39,40
EndSplineSet
EndChar

StartChar: guillemotleft
Encoding: 171 171 109
Width: 499
GlyphClass: 2
Flags: W
LayerCount: 2
Fore
SplineSet
135 224 m 0,0,1
 137 222 137 222 171 179 c 128,-1,2
 205 136 205 136 234.5 94.5 c 128,-1,3
 264 53 264 53 264 42 c 0,4,5
 264 34 264 34 253 34 c 0,6,7
 246 34 246 34 213 65 c 0,8,9
 148 127 148 127 73 195 c 2,10,-1
 42 223 l 1,11,-1
 107 281 l 2,12,13
 199 362 199 362 209 376 c 0,14,15
 242 416 242 416 253 416 c 128,-1,16
 264 416 264 416 264 406 c 0,17,18
 264 392 264 392 242 360 c 128,-1,19
 220 328 220 328 181.5 281 c 128,-1,20
 143 234 143 234 135 224 c 0,0,1
327 224 m 0,21,22
 329 222 329 222 363 179 c 128,-1,23
 397 136 397 136 426.5 94.5 c 128,-1,24
 456 53 456 53 456 42 c 0,25,26
 456 34 456 34 447 34 c 0,27,28
 439 34 439 34 435 40 c 0,29,30
 407 67 407 67 265 195 c 2,31,-1
 234 223 l 1,32,-1
 299 281 l 2,33,34
 396 368 396 368 401 376 c 0,35,36
 434 416 434 416 447 416 c 0,37,38
 456 416 456 416 456 406 c 0,39,40
 456 392 456 392 434 360 c 128,-1,41
 412 328 412 328 373.5 281 c 128,-1,42
 335 234 335 234 327 224 c 0,21,22
EndSplineSet
EndChar

StartChar: logicalnot
Encoding: 172 172 110
Width: 563
GlyphClass: 2
Flags: W
LayerCount: 2
Fore
SplineSet
469 108 m 1,0,-1
 469 319 l 1,1,-1
 29 319 l 1,2,-1
 29 387 l 1,3,-1
 535 387 l 1,4,-1
 535 108 l 1,5,-1
 469 108 l 1,0,-1
EndSplineSet
EndChar

StartChar: softhyphen
Encoding: 173 173 111
Width: 563
GlyphClass: 2
Flags: W
LayerCount: 2
Fore
SplineSet
535 220 m 1,0,-1
 29 220 l 1,1,-1
 29 286 l 1,2,-1
 535 286 l 1,3,-1
 535 220 l 1,0,-1
EndSplineSet
EndChar

StartChar: registered
Encoding: 174 174 112
Width: 735
GlyphClass: 2
Flags: W
LayerCount: 2
Fore
SplineSet
693 323 m 0,0,1
 693 184 693 184 598.5 86.5 c 128,-1,2
 504 -11 504 -11 370 -11 c 0,3,4
 234 -11 234 -11 139.5 86.5 c 128,-1,5
 45 184 45 184 45 323 c 0,6,7
 45 459 45 459 140 556 c 128,-1,8
 235 653 235 653 370 653 c 0,9,10
 503 653 503 653 598 556 c 128,-1,11
 693 459 693 459 693 323 c 0,0,1
647 323 m 0,12,13
 647 438 647 438 565 524.5 c 128,-1,14
 483 611 483 611 370 611 c 0,15,16
 256 611 256 611 173.5 525 c 128,-1,17
 91 439 91 439 91 323 c 0,18,19
 91 204 91 204 173 117.5 c 128,-1,20
 255 31 255 31 370 31 c 0,21,22
 483 31 483 31 565 117.5 c 128,-1,23
 647 204 647 204 647 323 c 0,12,13
541 154 m 1,24,-1
 479 154 l 2,25,26
 473 154 473 154 468 156 c 128,-1,27
 463 158 463 158 458.5 163 c 128,-1,28
 454 168 454 168 450.5 172.5 c 128,-1,29
 447 177 447 177 442.5 185.5 c 128,-1,30
 438 194 438 194 435.5 199 c 128,-1,31
 433 204 433 204 428 214.5 c 128,-1,32
 423 225 423 225 421 230 c 0,33,34
 414 245 414 245 403.5 267 c 128,-1,35
 393 289 393 289 390.5 293.5 c 128,-1,36
 388 298 388 298 378 306 c 128,-1,37
 368 314 368 314 357 314.5 c 128,-1,38
 346 315 346 315 323 315 c 1,39,-1
 323 198 l 2,40,41
 323 179 323 179 327 173 c 128,-1,42
 331 167 331 167 349 167 c 2,43,-1
 362 167 l 1,44,-1
 362 154 l 1,45,-1
 221 154 l 1,46,-1
 221 167 l 1,47,-1
 230 167 l 2,48,49
 245 168 245 168 250.5 169.5 c 128,-1,50
 256 171 256 171 259.5 177 c 128,-1,51
 263 183 263 183 263 197 c 2,52,-1
 263 462 l 2,53,54
 263 482 263 482 258 487 c 128,-1,55
 253 492 253 492 232 492 c 2,56,-1
 223 492 l 1,57,-1
 223 505 l 1,58,-1
 381 505 l 2,59,60
 499 505 499 505 499 422 c 0,61,62
 499 384 499 384 474 359.5 c 128,-1,63
 449 335 449 335 410 329 c 1,64,-1
 410 323 l 1,65,66
 418 321 418 321 425 318 c 128,-1,67
 432 315 432 315 438.5 308.5 c 128,-1,68
 445 302 445 302 449 297.5 c 128,-1,69
 453 293 453 293 458.5 283.5 c 128,-1,70
 464 274 464 274 466.5 270 c 128,-1,71
 469 266 469 266 474.5 255 c 128,-1,72
 480 244 480 244 481 241 c 0,73,74
 484 235 484 235 492.5 216.5 c 128,-1,75
 501 198 501 198 505.5 190.5 c 128,-1,76
 510 183 510 183 519.5 175.5 c 128,-1,77
 529 168 529 168 541 167 c 1,78,-1
 541 154 l 1,24,-1
439 415 m 0,79,80
 439 492 439 492 359 492 c 0,81,82
 342 492 342 492 334 488 c 128,-1,83
 326 484 326 484 324.5 479 c 128,-1,84
 323 474 323 474 323 463 c 2,85,-1
 323 335 l 1,86,-1
 343 332 l 1,87,88
 439 332 439 332 439 415 c 0,79,80
EndSplineSet
EndChar

StartChar: macron
Encoding: 175 175 113
Width: 332
GlyphClass: 2
Flags: W
LayerCount: 2
Fore
SplineSet
12 601 m 1,0,-1
 322 601 l 1,1,-1
 322 546 l 1,2,-1
 12 546 l 1,3,-1
 12 601 l 1,0,-1
EndSplineSet
EndChar

StartChar: degree
Encoding: 176 176 114
Width: 399
GlyphClass: 2
Flags: W
LayerCount: 2
Fore
SplineSet
201 677 m 0,0,1
 260 677 260 677 301.5 635 c 128,-1,2
 343 593 343 593 343 532 c 0,3,4
 343 473 343 473 300.5 431.5 c 128,-1,5
 258 390 258 390 198 390 c 0,6,7
 140 390 140 390 98.5 432 c 128,-1,8
 57 474 57 474 57 533 c 0,9,10
 57 594 57 594 98.5 635.5 c 128,-1,11
 140 677 140 677 201 677 c 0,0,1
201 642 m 0,12,13
 158 642 158 642 127.5 609.5 c 128,-1,14
 97 577 97 577 97 533 c 128,-1,15
 97 489 97 489 127.5 456 c 128,-1,16
 158 423 158 423 199 423 c 0,17,18
 242 423 242 423 273.5 455.5 c 128,-1,19
 305 488 305 488 305 533 c 0,20,21
 305 577 305 577 273.5 609.5 c 128,-1,22
 242 642 242 642 201 642 c 0,12,13
EndSplineSet
EndChar

StartChar: plusminus
Encoding: 177 177 115
Width: 563
GlyphClass: 2
Flags: W
LayerCount: 2
Fore
SplineSet
29 0 m 1,0,-1
 29 66 l 1,1,-1
 535 66 l 1,2,-1
 535 0 l 1,3,-1
 29 0 l 1,0,-1
249 349 m 1,4,-1
 249 568 l 1,5,-1
 315 568 l 1,6,-1
 315 349 l 1,7,-1
 535 349 l 1,8,-1
 535 283 l 1,9,-1
 315 283 l 1,10,-1
 315 122 l 1,11,-1
 249 122 l 1,12,-1
 249 283 l 1,13,-1
 29 283 l 1,14,-1
 29 349 l 1,15,-1
 249 349 l 1,4,-1
EndSplineSet
EndChar

StartChar: twosuperior
Encoding: 178 178 116
Width: 298
GlyphClass: 2
Flags: W
LayerCount: 2
Fore
SplineSet
1 557 m 2,0,1
 2 558 2 558 5.5 569 c 128,-1,2
 9 580 9 580 11.5 585 c 128,-1,3
 14 590 14 590 19 602 c 128,-1,4
 24 614 24 614 29.5 620.5 c 128,-1,5
 35 627 35 627 43 637 c 128,-1,6
 51 647 51 647 61 653 c 128,-1,7
 71 659 71 659 83.5 665 c 128,-1,8
 96 671 96 671 112 674 c 128,-1,9
 128 677 128 677 146 677 c 0,10,11
 204 677 204 677 240.5 647 c 128,-1,12
 277 617 277 617 277 570 c 0,13,14
 277 534 277 534 257.5 499.5 c 128,-1,15
 238 465 238 465 193 420 c 2,16,-1
 107 335 l 1,17,-1
 229 335 l 2,18,19
 248 335 248 335 257.5 340 c 128,-1,20
 267 345 267 345 278 362 c 1,21,-1
 296 354 l 1,22,-1
 259 270 l 1,23,-1
 6 270 l 1,24,-1
 6 293 l 1,25,-1
 104 400 l 2,26,27
 185 487 185 487 185 538 c 0,28,29
 185 569 185 569 163.5 591.5 c 128,-1,30
 142 614 142 614 111 614 c 0,31,32
 58 614 58 614 26 543 c 1,33,-1
 1 557 l 2,0,1
EndSplineSet
EndChar

StartChar: threesuperior
Encoding: 179 179 117
Width: 298
GlyphClass: 2
Flags: W
LayerCount: 2
Fore
SplineSet
48 349 m 0,0,1
 63 349 63 349 88.5 330 c 128,-1,2
 114 311 114 311 142 311 c 0,3,4
 173 311 173 311 191 329 c 128,-1,5
 209 347 209 347 209 378 c 0,6,7
 209 406 209 406 196 425 c 128,-1,8
 183 444 183 444 165 451 c 128,-1,9
 147 458 147 458 134 461 c 128,-1,10
 121 464 121 464 116 463 c 2,11,-1
 92 460 l 1,12,-1
 92 489 l 1,13,14
 145 507 145 507 166 525.5 c 128,-1,15
 187 544 187 544 187 571 c 0,16,17
 187 620 187 620 130 620 c 0,18,19
 105 620 105 620 86.5 607.5 c 128,-1,20
 68 595 68 595 45 562 c 1,21,-1
 21 582 l 1,22,23
 47 632 47 632 79 654.5 c 128,-1,24
 111 677 111 677 157 677 c 0,25,26
 201 677 201 677 232.5 652 c 128,-1,27
 264 627 264 627 264 593 c 0,28,29
 264 553 264 553 204 511 c 1,30,31
 291 476 291 476 291 398 c 0,32,33
 291 339 291 339 236 300.5 c 128,-1,34
 181 262 181 262 97 262 c 0,35,36
 15 262 15 262 15 312 c 0,37,38
 15 328 15 328 24.5 338.5 c 128,-1,39
 34 349 34 349 48 349 c 0,0,1
EndSplineSet
EndChar

StartChar: acute
Encoding: 180 180 118
Width: 332
GlyphClass: 2
Flags: W
LayerCount: 2
Fore
SplineSet
133 507 m 1,0,-1
 92 507 l 1,1,-1
 240 655 l 2,2,3
 262 678 262 678 283 678 c 0,4,5
 316 678 316 678 316 646 c 0,6,7
 316 622 316 622 287 603 c 2,8,-1
 133 507 l 1,0,-1
EndSplineSet
EndChar

StartChar: micro
Encoding: 181 181 119
Width: 499
GlyphClass: 2
Flags: W
LayerCount: 2
Fore
SplineSet
37 -148 m 0,0,1
 37 -108 37 -108 48.5 -42 c 128,-1,2
 60 24 60 24 60 54 c 2,3,-1
 60 450 l 1,4,-1
 148 450 l 1,5,-1
 148 144 l 2,6,7
 148 101 148 101 170 77 c 128,-1,8
 192 53 192 53 231 53 c 0,9,10
 305 53 305 53 343 116 c 1,11,-1
 343 450 l 1,12,-1
 431 450 l 1,13,-1
 431 92 l 2,14,15
 431 56 431 56 438 41 c 128,-1,16
 445 26 445 26 461 26 c 0,17,18
 480 26 480 26 513 56 c 1,19,-1
 513 47 l 1,20,21
 487 15 487 15 466.5 2.5 c 128,-1,22
 446 -10 446 -10 417 -10 c 0,23,24
 347 -10 347 -10 346 81 c 1,25,26
 287 -10 287 -10 208 -10 c 0,27,28
 136 -10 136 -10 91 64 c 1,29,30
 96 22 96 22 111.5 -39.5 c 128,-1,31
 127 -101 127 -101 127 -141 c 0,32,33
 127 -218 127 -218 82 -218 c 128,-1,34
 37 -218 37 -218 37 -148 c 0,0,1
EndSplineSet
EndChar

StartChar: paragraph
Encoding: 182 182 120
Width: 452
GlyphClass: 2
Flags: W
LayerCount: 2
Fore
SplineSet
239 640 m 1,0,-1
 239 -154 l 1,1,-1
 83 -154 l 1,2,-1
 83 -132 l 1,3,4
 143 -128 143 -128 157 -111.5 c 128,-1,5
 171 -95 171 -95 171 -31 c 2,6,-1
 171 272 l 1,7,8
 124 274 124 274 98.5 281.5 c 128,-1,9
 73 289 73 289 48 308 c 0,10,11
 -22 353 -22 353 -22 478 c 0,12,13
 -22 574 -22 574 27.5 618 c 128,-1,14
 77 662 77 662 187 662 c 2,15,-1
 450 662 l 1,16,-1
 450 643 l 1,17,18
 393 638 393 638 377.5 622.5 c 128,-1,19
 362 607 362 607 362 554 c 2,20,-1
 362 -42 l 2,21,22
 362 -95 362 -95 377.5 -111.5 c 128,-1,23
 393 -128 393 -128 450 -132 c 1,24,-1
 450 -154 l 1,25,-1
 296 -154 l 1,26,-1
 296 640 l 1,27,-1
 239 640 l 1,0,-1
171 640 m 1,28,29
 108 635 108 635 81 603 c 128,-1,30
 54 571 54 571 54 480 c 0,31,32
 54 386 54 386 80.5 344 c 128,-1,33
 107 302 107 302 171 294 c 1,34,-1
 171 640 l 1,28,29
EndSplineSet
EndChar

StartChar: periodcentered
Encoding: 183 183 121
Width: 249
GlyphClass: 2
Flags: W
LayerCount: 2
Fore
SplineSet
125 311 m 0,0,1
 148 311 148 311 165 293.5 c 128,-1,2
 182 276 182 276 182 253 c 0,3,4
 182 231 182 231 165 215 c 128,-1,5
 148 199 148 199 125 199 c 0,6,7
 103 199 103 199 86.5 215 c 128,-1,8
 70 231 70 231 70 253 c 0,9,10
 70 276 70 276 86.5 293.5 c 128,-1,11
 103 311 103 311 125 311 c 0,0,1
EndSplineSet
EndChar

StartChar: cedilla
Encoding: 184 184 122
Width: 332
GlyphClass: 2
Flags: W
LayerCount: 2
Fore
SplineSet
98 -100 m 1,0,-1
 139 0 l 1,1,-1
 174 0 l 1,2,-1
 149 -64 l 1,3,4
 171 -62 171 -62 174 -62 c 0,5,6
 215 -62 215 -62 238 -80 c 128,-1,7
 261 -98 261 -98 261 -130 c 0,8,9
 261 -170 261 -170 227 -192.5 c 128,-1,10
 193 -215 193 -215 136 -215 c 0,11,12
 90 -215 90 -215 53 -199 c 1,13,-1
 66 -168 l 1,14,15
 103 -180 103 -180 130 -180 c 0,16,17
 186 -180 186 -180 186 -136 c 0,18,19
 186 -117 186 -117 174 -108.5 c 128,-1,20
 162 -100 162 -100 133 -100 c 0,21,22
 116 -100 116 -100 105 -104 c 1,23,-1
 98 -100 l 1,0,-1
EndSplineSet
EndChar

StartChar: onesuperior
Encoding: 185 185 123
Width: 298
GlyphClass: 2
Flags: W
LayerCount: 2
Fore
SplineSet
248 294 m 1,0,-1
 248 270 l 1,1,-1
 57 270 l 1,2,-1
 57 294 l 1,3,4
 89 296 89 296 99.5 302.5 c 128,-1,5
 110 309 110 309 110 327 c 2,6,-1
 110 583 l 2,7,8
 110 611 110 611 103 611 c 0,9,10
 97 611 97 611 59 598 c 1,11,-1
 59 621 l 1,12,-1
 177 677 l 1,13,-1
 190 674 l 1,14,-1
 190 330 l 2,15,16
 190 311 190 311 202 303.5 c 128,-1,17
 214 296 214 296 248 294 c 1,0,-1
EndSplineSet
EndChar

StartChar: ordmasculine
Encoding: 186 186 124
Width: 309
GlyphClass: 2
Flags: W
LayerCount: 2
Fore
SplineSet
160 677 m 0,0,1
 224 677 224 677 264.5 639 c 128,-1,2
 305 601 305 601 305 542 c 0,3,4
 305 479 305 479 261 436.5 c 128,-1,5
 217 394 217 394 151 394 c 0,6,7
 88 394 88 394 47 433.5 c 128,-1,8
 6 473 6 473 6 533 c 0,9,10
 6 597 6 597 48.5 637 c 128,-1,11
 91 677 91 677 160 677 c 0,0,1
149 643 m 0,12,13
 117 643 117 643 98 623 c 128,-1,14
 79 603 79 603 79 570 c 128,-1,15
 79 537 79 537 85 507.5 c 128,-1,16
 91 478 91 478 110.5 453 c 128,-1,17
 130 428 130 428 160 428 c 0,18,19
 231 428 231 428 231 514 c 0,20,21
 231 571 231 571 208.5 607 c 128,-1,22
 186 643 186 643 149 643 c 0,12,13
EndSplineSet
EndChar

StartChar: guillemotright
Encoding: 187 187 125
Width: 499
GlyphClass: 2
Flags: W
LayerCount: 2
Fore
SplineSet
237 42 m 0,0,1
 237 61 237 61 365 224 c 1,2,-1
 290 316 l 2,3,4
 236 383 236 383 236 406 c 0,5,6
 236 416 236 416 246 416 c 0,7,8
 257 416 257 416 290 376 c 0,9,10
 295 369 295 369 393 281 c 2,11,-1
 458 223 l 1,12,-1
 428 195 l 2,13,14
 395 165 395 165 340.5 117 c 128,-1,15
 286 69 286 69 256 40 c 0,16,17
 253 34 253 34 248 34 c 0,18,19
 237 34 237 34 237 42 c 0,0,1
45 42 m 0,20,21
 45 61 45 61 173 224 c 1,22,-1
 98 316 l 2,23,24
 44 383 44 383 44 406 c 0,25,26
 44 416 44 416 54 416 c 0,27,28
 67 416 67 416 98 376 c 0,29,30
 101 372 101 372 142 333.5 c 128,-1,31
 183 295 183 295 185 294 c 2,32,-1
 267 223 l 1,33,-1
 64 40 l 2,34,35
 62 34 62 34 56 34 c 0,36,37
 45 34 45 34 45 42 c 0,20,21
EndSplineSet
EndChar

StartChar: onequarter
Encoding: 188 188 126
Width: 749
GlyphClass: 2
Flags: W
LayerCount: 2
Fore
SplineSet
718 146 m 1,0,-1
 718 89 l 1,1,-1
 664 89 l 1,2,-1
 664 0 l 1,3,-1
 593 0 l 1,4,-1
 593 89 l 1,5,-1
 413 89 l 1,6,-1
 413 139 l 1,7,-1
 617 406 l 1,8,-1
 664 406 l 1,9,-1
 664 146 l 1,10,-1
 718 146 l 1,0,-1
593 146 m 1,11,-1
 593 327 l 1,12,-1
 458 146 l 1,13,-1
 593 146 l 1,11,-1
637 677 m 1,14,-1
 187 -15 l 1,15,-1
 138 -15 l 1,16,-1
 592 677 l 1,17,-1
 637 677 l 1,14,-1
229 294 m 1,18,-1
 229 270 l 1,19,-1
 37 270 l 1,20,-1
 37 294 l 1,21,22
 70 296 70 296 79.5 302.5 c 128,-1,23
 89 309 89 309 89 327 c 2,24,-1
 89 583 l 2,25,26
 89 611 89 611 82 611 c 0,27,28
 76 611 76 611 40 598 c 1,29,-1
 40 621 l 1,30,-1
 157 677 l 1,31,-1
 171 674 l 1,32,-1
 171 330 l 2,33,34
 171 311 171 311 182.5 303.5 c 128,-1,35
 194 296 194 296 229 294 c 1,18,-1
EndSplineSet
EndChar

StartChar: threequarters
Encoding: 190 190 128
Width: 749
GlyphClass: 2
Flags: W
LayerCount: 2
Fore
SplineSet
718 146 m 1,0,-1
 718 89 l 1,1,-1
 664 89 l 1,2,-1
 664 0 l 1,3,-1
 593 0 l 1,4,-1
 593 89 l 1,5,-1
 413 89 l 1,6,-1
 413 139 l 1,7,-1
 617 406 l 1,8,-1
 664 406 l 1,9,-1
 664 146 l 1,10,-1
 718 146 l 1,0,-1
593 146 m 1,11,-1
 593 327 l 1,12,-1
 458 146 l 1,13,-1
 593 146 l 1,11,-1
637 677 m 1,14,-1
 187 -15 l 1,15,-1
 138 -15 l 1,16,-1
 592 677 l 1,17,-1
 637 677 l 1,14,-1
50 349 m 0,18,19
 65 349 65 349 90 330 c 128,-1,20
 115 311 115 311 144 311 c 0,21,22
 175 311 175 311 193 329 c 128,-1,23
 211 347 211 347 211 378 c 0,24,25
 211 406 211 406 198 425 c 128,-1,26
 185 444 185 444 167 451 c 128,-1,27
 149 458 149 458 136 461 c 128,-1,28
 123 464 123 464 117 463 c 2,29,-1
 94 460 l 1,30,-1
 94 489 l 1,31,32
 147 507 147 507 168.5 525.5 c 128,-1,33
 190 544 190 544 190 571 c 0,34,35
 190 594 190 594 174.5 607 c 128,-1,36
 159 620 159 620 133 620 c 0,37,38
 106 620 106 620 88 608 c 128,-1,39
 70 596 70 596 45 562 c 1,40,-1
 21 582 l 1,41,42
 48 632 48 632 80 654.5 c 128,-1,43
 112 677 112 677 158 677 c 0,44,45
 203 677 203 677 235 652.5 c 128,-1,46
 267 628 267 628 267 593 c 0,47,48
 267 555 267 555 205 511 c 1,49,50
 291 477 291 477 291 398 c 0,51,52
 291 339 291 339 236 300.5 c 128,-1,53
 181 262 181 262 98 262 c 128,-1,54
 15 262 15 262 15 312 c 0,55,56
 15 328 15 328 24.5 338.5 c 128,-1,57
 34 349 34 349 50 349 c 0,18,19
EndSplineSet
EndChar

StartChar: questiondown
Encoding: 191 191 129
Width: 443
GlyphClass: 2
Flags: W
LayerCount: 2
Fore
SplineSet
214 -218 m 0,0,1
 189 -218 189 -218 160.5 -210.5 c 128,-1,2
 132 -203 132 -203 101 -187.5 c 128,-1,3
 70 -172 70 -172 49.5 -139.5 c 128,-1,4
 29 -107 29 -107 29 -63 c 0,5,6
 29 12 29 12 105 104 c 0,7,8
 153 161 153 161 171.5 197 c 128,-1,9
 190 233 190 233 201 294 c 1,10,-1
 217 294 l 1,11,12
 213 217 213 217 187 152 c 2,13,-1
 160 88 l 2,14,15
 122 6 122 6 122 -67 c 0,16,17
 122 -118 122 -118 153.5 -152.5 c 128,-1,18
 185 -187 185 -187 230 -187 c 0,19,20
 266 -187 266 -187 295.5 -168.5 c 128,-1,21
 325 -150 325 -150 325 -126 c 0,22,23
 325 -116 325 -116 306 -93 c 128,-1,24
 287 -70 287 -70 287 -53 c 0,25,26
 287 -34 287 -34 298 -23 c 128,-1,27
 309 -12 309 -12 328 -12 c 0,28,29
 376 -12 376 -12 376 -73 c 0,30,31
 376 -136 376 -136 329.5 -177 c 128,-1,32
 283 -218 283 -218 214 -218 c 0,0,1
208 469 m 0,33,34
 230 469 230 469 245.5 453.5 c 128,-1,35
 261 438 261 438 261 416 c 128,-1,36
 261 394 261 394 245 377 c 128,-1,37
 229 360 229 360 207 360 c 128,-1,38
 185 360 185 360 169.5 376.5 c 128,-1,39
 154 393 154 393 154 417 c 0,40,41
 154 440 154 440 169 454.5 c 128,-1,42
 184 469 184 469 208 469 c 0,33,34
EndSplineSet
EndChar

StartChar: AE
Encoding: 198 198 136
Width: 887
GlyphClass: 2
Flags: W
LayerCount: 2
Fore
SplineSet
608 366 m 2,0,1
 688 366 688 366 711.5 386 c 128,-1,2
 735 406 735 406 740 463 c 1,3,-1
 762 463 l 1,4,-1
 762 229 l 1,5,-1
 740 229 l 1,6,7
 734 282 734 282 721 302 c 0,8,9
 698 330 698 330 642 330 c 2,10,-1
 497 330 l 1,11,-1
 497 91 l 2,12,13
 497 54 497 54 507 46 c 128,-1,14
 517 38 517 38 565 38 c 2,15,-1
 642 38 l 2,16,17
 723 38 723 38 759 62 c 128,-1,18
 795 86 795 86 839 168 c 1,19,-1
 863 168 l 1,20,-1
 819 0 l 1,21,-1
 309 0 l 1,22,-1
 309 19 l 1,23,-1
 327 21 l 2,24,25
 372 26 372 26 385 42 c 128,-1,26
 398 58 398 58 398 108 c 2,27,-1
 398 261 l 1,28,-1
 223 261 l 1,29,-1
 193 207 l 1,30,31
 130 81 130 81 130 48 c 0,32,33
 130 25 130 25 198 19 c 1,34,-1
 199 19 l 1,35,-1
 199 0 l 1,36,-1
 0 0 l 1,37,-1
 0 19 l 1,38,39
 32 24 32 24 48 38 c 128,-1,40
 64 52 64 52 88 97 c 2,41,-1
 333 582 l 2,42,43
 343 602 343 602 343 609 c 0,44,45
 343 639 343 639 252 642 c 1,46,-1
 252 662 l 1,47,-1
 816 662 l 1,48,-1
 816 521 l 1,49,-1
 792 521 l 1,50,51
 784 589 784 589 752.5 607 c 128,-1,52
 721 625 721 625 611 625 c 2,53,-1
 524 625 l 2,54,55
 509 625 509 625 503 618.5 c 128,-1,56
 497 612 497 612 497 596 c 2,57,-1
 497 366 l 1,58,-1
 608 366 l 2,0,1
239 299 m 1,59,-1
 398 299 l 1,60,-1
 398 618 l 1,61,-1
 239 299 l 1,59,-1
EndSplineSet
EndChar

StartChar: Eth
Encoding: 208 208 146
Width: 720
GlyphClass: 2
Flags: W
LayerCount: 2
Fore
SplineSet
286 662 m 2,0,1
 467 662 467 662 576.5 578 c 128,-1,2
 686 494 686 494 686 334 c 0,3,4
 686 289 686 289 675.5 245.5 c 128,-1,5
 665 202 665 202 637 156.5 c 128,-1,6
 609 111 609 111 567 77 c 128,-1,7
 525 43 525 43 456 21.5 c 128,-1,8
 387 0 387 0 300 0 c 2,9,-1
 16 0 l 1,10,-1
 16 19 l 1,11,12
 73 22 73 22 88.5 38 c 128,-1,13
 104 54 104 54 104 108 c 2,14,-1
 104 315 l 1,15,-1
 21 315 l 1,16,-1
 21 359 l 1,17,-1
 104 359 l 1,18,-1
 104 554 l 2,19,20
 104 609 104 609 89.5 623.5 c 128,-1,21
 75 638 75 638 16 643 c 1,22,-1
 16 662 l 1,23,-1
 286 662 l 2,0,1
352 359 m 1,24,-1
 352 315 l 1,25,-1
 207 315 l 1,26,-1
 207 78 l 2,27,28
 207 53 207 53 217.5 45 c 128,-1,29
 228 37 228 37 258 37 c 0,30,31
 576 37 576 37 576 327 c 0,32,33
 576 381 576 381 561 429.5 c 128,-1,34
 546 478 546 478 512.5 524 c 128,-1,35
 479 570 479 570 413 597.5 c 128,-1,36
 347 625 347 625 256 625 c 0,37,38
 226 625 226 625 216.5 617.5 c 128,-1,39
 207 610 207 610 207 586 c 2,40,-1
 207 359 l 1,41,-1
 352 359 l 1,24,-1
EndSplineSet
EndChar

StartChar: multiply
Encoding: 215 215 153
Width: 619
GlyphClass: 2
Flags: W
LayerCount: 2
Fore
SplineSet
525 115 m 1,0,-1
 479 68 l 1,1,-1
 309 238 l 1,2,-1
 138 69 l 1,3,-1
 91 117 l 1,4,-1
 261 286 l 1,5,-1
 92 456 l 1,6,-1
 138 502 l 1,7,-1
 309 333 l 1,8,-1
 478 502 l 1,9,-1
 524 456 l 1,10,-1
 356 286 l 1,11,-1
 525 115 l 1,0,-1
EndSplineSet
EndChar

StartChar: Oslash
Encoding: 216 216 154
Width: 720
GlyphClass: 2
Flags: W
LayerCount: 2
Fore
SplineSet
151 59 m 1,0,1
 108 96 108 96 85 133 c 0,2,3
 34 215 34 215 34 330 c 0,4,5
 34 482 34 482 126 579.5 c 128,-1,6
 218 677 218 677 362 677 c 0,7,8
 450 677 450 677 538 627 c 1,9,-1
 609 734 l 1,10,-1
 658 734 l 1,11,-1
 570 603 l 1,12,13
 615 561 615 561 636 529 c 0,14,15
 688 447 688 447 688 331 c 0,16,17
 688 178 688 178 596.5 81.5 c 128,-1,18
 505 -15 505 -15 359 -15 c 0,19,20
 268 -15 268 -15 185 37 c 1,21,-1
 105 -81 l 1,22,-1
 56 -81 l 1,23,-1
 151 59 l 1,0,1
527 541 m 1,24,-1
 220 88 l 1,25,26
 279 22 279 22 360 22 c 0,27,28
 460 22 460 22 517 104 c 128,-1,29
 574 186 574 186 574 330 c 0,30,31
 574 450 574 450 527 541 c 1,24,-1
193 123 m 1,32,-1
 502 576 l 1,33,34
 439 640 439 640 360 640 c 0,35,36
 262 640 262 640 205 556.5 c 128,-1,37
 148 473 148 473 148 330 c 0,38,39
 148 210 148 210 193 123 c 1,32,-1
EndSplineSet
EndChar

StartChar: Thorn
Encoding: 222 222 160
Width: 555
GlyphClass: 2
Flags: W
LayerCount: 2
Fore
SplineSet
293 662 m 1,0,-1
 293 643 l 1,1,2
 232 638 232 638 217 619.5 c 128,-1,3
 202 601 202 601 202 532 c 1,4,-1
 283 532 l 2,5,6
 402 532 402 532 472 483 c 128,-1,7
 542 434 542 434 542 352 c 0,8,9
 542 326 542 326 536 301.5 c 128,-1,10
 530 277 530 277 512.5 250 c 128,-1,11
 495 223 495 223 466 203.5 c 128,-1,12
 437 184 437 184 387 171 c 128,-1,13
 337 158 337 158 271 158 c 0,14,15
 258 158 258 158 234.5 159.5 c 128,-1,16
 211 161 211 161 202 161 c 1,17,-1
 202 108 l 2,18,19
 202 55 202 55 219.5 38 c 128,-1,20
 237 21 237 21 296 19 c 1,21,-1
 296 0 l 1,22,-1
 16 0 l 1,23,-1
 16 19 l 1,24,25
 73 24 73 24 86.5 40.5 c 128,-1,26
 100 57 100 57 100 120 c 2,27,-1
 100 554 l 2,28,29
 100 607 100 607 85.5 622.5 c 128,-1,30
 71 638 71 638 16 643 c 1,31,-1
 16 662 l 1,32,-1
 293 662 l 1,0,-1
202 461 m 2,33,-1
 202 201 l 1,34,35
 238 198 238 198 259 198 c 0,36,37
 434 198 434 198 434 346 c 0,38,39
 434 423 434 423 385.5 458.5 c 128,-1,40
 337 494 337 494 234 494 c 0,41,42
 215 494 215 494 208.5 487.5 c 128,-1,43
 202 481 202 481 202 461 c 2,33,-1
EndSplineSet
EndChar

StartChar: germandbls
Encoding: 223 223 161
Width: 499
GlyphClass: 2
Flags: W
LayerCount: 2
Fore
SplineSet
209 374 m 0,0,1
 209 383 209 383 222 386 c 128,-1,2
 235 389 235 389 253.5 392.5 c 128,-1,3
 272 396 272 396 290 405 c 128,-1,4
 308 414 308 414 321 442.5 c 128,-1,5
 334 471 334 471 334 517 c 0,6,7
 334 582 334 582 310 619 c 128,-1,8
 286 656 286 656 243 656 c 0,9,10
 203 656 203 656 180 627 c 128,-1,11
 157 598 157 598 157 549 c 2,12,-1
 157 0 l 1,13,-1
 12 0 l 1,14,-1
 12 15 l 1,15,16
 50 18 50 18 61.5 31 c 128,-1,17
 73 44 73 44 73 83 c 2,18,-1
 73 454 l 2,19,20
 73 555 73 555 103 606 c 0,21,22
 146 683 146 683 250 683 c 0,23,24
 328 683 328 683 374 641.5 c 128,-1,25
 420 600 420 600 420 532 c 0,26,27
 420 477 420 477 392.5 445.5 c 128,-1,28
 365 414 365 414 284 376 c 1,29,30
 365 362 365 362 406 327 c 0,31,32
 469 272 469 272 469 186 c 0,33,34
 469 105 469 105 417 48 c 128,-1,35
 365 -9 365 -9 289 -9 c 0,36,37
 246 -9 246 -9 219 11.5 c 128,-1,38
 192 32 192 32 192 64 c 0,39,40
 192 84 192 84 205 97.5 c 128,-1,41
 218 111 218 111 237 111 c 0,42,43
 254 111 254 111 265.5 100 c 128,-1,44
 277 89 277 89 278 72 c 2,45,-1
 281 50 l 2,46,47
 282 34 282 34 289 27.5 c 128,-1,48
 296 21 296 21 311 21 c 0,49,50
 374 21 374 21 374 149 c 0,51,52
 374 352 374 352 242 357 c 0,53,54
 209 357 209 357 209 374 c 0,0,1
EndSplineSet
EndChar

StartChar: ae
Encoding: 230 230 168
Width: 666
GlyphClass: 2
Flags: W
LayerCount: 2
Fore
SplineSet
633 149 m 1,0,1
 622 125 622 125 616.5 114 c 128,-1,2
 611 103 611 103 591.5 75 c 128,-1,3
 572 47 572 47 553.5 32 c 128,-1,4
 535 17 535 17 503 3.5 c 128,-1,5
 471 -10 471 -10 435 -10 c 0,6,7
 355 -10 355 -10 306 63 c 1,8,9
 256 21 256 21 223.5 5.5 c 128,-1,10
 191 -10 191 -10 154 -10 c 0,11,12
 103 -10 103 -10 70.5 20.5 c 128,-1,13
 38 51 38 51 38 100 c 0,14,15
 38 145 38 145 72.5 178.5 c 128,-1,16
 107 212 107 212 187 245 c 2,17,-1
 272 281 l 1,18,-1
 275 344 l 2,19,20
 275 389 275 389 264 413 c 0,21,22
 251 437 251 437 212 437 c 0,23,24
 185 437 185 437 165 424.5 c 128,-1,25
 145 412 145 412 145 388 c 0,26,27
 145 387 145 387 145.5 384.5 c 128,-1,28
 146 382 146 382 146 372.5 c 128,-1,29
 146 363 146 363 146 347 c 0,30,31
 146 328 146 328 134.5 316.5 c 128,-1,32
 123 305 123 305 104 305 c 0,33,34
 84 305 84 305 72 318 c 128,-1,35
 60 331 60 331 60 352 c 0,36,37
 60 399 60 399 105.5 429.5 c 128,-1,38
 151 460 151 460 220 460 c 0,39,40
 257 460 257 460 282.5 450 c 128,-1,41
 308 440 308 440 337 415 c 1,42,43
 370 441 370 441 395.5 450.5 c 128,-1,44
 421 460 421 460 456 460 c 0,45,46
 532 460 532 460 570 417 c 128,-1,47
 608 374 608 374 617 277 c 1,48,-1
 354 277 l 1,49,50
 354 204 354 204 359.5 170.5 c 128,-1,51
 365 137 365 137 381 107 c 0,52,53
 394 85 394 85 420 71 c 128,-1,54
 446 57 446 57 476 57 c 0,55,56
 519 57 519 57 552 79 c 128,-1,57
 585 101 585 101 620 154 c 1,58,-1
 633 149 l 1,0,1
294 88 m 1,59,-1
 292 94 l 2,60,61
 290 100 290 100 287 110.5 c 128,-1,62
 284 121 284 121 281 134 c 128,-1,63
 278 147 278 147 276 165 c 128,-1,64
 274 183 274 183 274 201 c 2,65,-1
 274 253 l 1,66,67
 183 220 183 220 154 195 c 128,-1,68
 125 170 125 170 125 125 c 0,69,70
 125 90 125 90 144.5 64 c 128,-1,71
 164 38 164 38 192 38 c 128,-1,72
 220 38 220 38 257 56 c 128,-1,73
 294 74 294 74 294 88 c 1,59,-1
354 308 m 1,74,-1
 521 308 l 1,75,76
 519 373 519 373 501 402 c 128,-1,77
 483 431 483 431 442 431 c 0,78,79
 399 431 399 431 379 402 c 128,-1,80
 359 373 359 373 354 308 c 1,74,-1
EndSplineSet
EndChar

StartChar: eth
Encoding: 240 240 178
Width: 499
GlyphClass: 2
Flags: W
LayerCount: 2
Fore
SplineSet
270 576 m 1,0,-1
 146 510 l 1,1,-1
 114 541 l 1,2,-1
 234 603 l 1,3,4
 175 645 175 645 103 661 c 1,5,-1
 144 683 l 1,6,7
 230 675 230 675 296 636 c 1,8,-1
 391 686 l 1,9,-1
 423 656 l 1,10,-1
 333 608 l 1,11,12
 370 573 370 573 388 549.5 c 128,-1,13
 406 526 406 526 423 491 c 0,14,15
 472 397 472 397 472 286 c 0,16,17
 472 213 472 213 447.5 147.5 c 128,-1,18
 423 82 423 82 382 42 c 0,19,20
 329 -10 329 -10 248 -10 c 0,21,22
 154 -10 154 -10 91.5 56.5 c 128,-1,23
 29 123 29 123 29 223 c 128,-1,24
 29 323 29 323 90.5 391.5 c 128,-1,25
 152 460 152 460 242 460 c 0,26,27
 277 460 277 460 303 447.5 c 128,-1,28
 329 435 329 435 368 400 c 1,29,30
 356 457 356 457 335.5 494 c 128,-1,31
 315 531 315 531 270 576 c 1,0,-1
237 432 m 0,32,33
 184 432 184 432 151.5 388.5 c 128,-1,34
 119 345 119 345 119 275 c 0,35,36
 119 234 119 234 127 191.5 c 128,-1,37
 135 149 135 149 151 109 c 128,-1,38
 167 69 167 69 195.5 43.5 c 128,-1,39
 224 18 224 18 261 18 c 0,40,41
 318 18 318 18 349.5 66.5 c 128,-1,42
 381 115 381 115 381 201 c 0,43,44
 381 303 381 303 341 367.5 c 128,-1,45
 301 432 301 432 237 432 c 0,32,33
EndSplineSet
EndChar

StartChar: divide
Encoding: 247 247 185
Width: 546
GlyphClass: 2
Flags: W
LayerCount: 2
Fore
SplineSet
326 439 m 0,0,1
 326 417 326 417 311 402 c 128,-1,2
 296 387 296 387 273 387 c 0,3,4
 252 387 252 387 236.5 403 c 128,-1,5
 221 419 221 419 221 439 c 0,6,7
 221 461 221 461 236 477 c 128,-1,8
 251 493 251 493 273 493 c 0,9,10
 296 493 296 493 311 478 c 128,-1,11
 326 463 326 463 326 439 c 0,0,1
515 224 m 1,12,-1
 32 224 l 1,13,-1
 32 281 l 1,14,-1
 515 281 l 1,15,-1
 515 224 l 1,12,-1
326 66 m 0,16,17
 326 42 326 42 311 28 c 128,-1,18
 296 14 296 14 273 14 c 0,19,20
 251 14 251 14 236 29 c 128,-1,21
 221 44 221 44 221 66 c 0,22,23
 221 86 221 86 236 102 c 128,-1,24
 251 118 251 118 273 118 c 128,-1,25
 295 118 295 118 310.5 103 c 128,-1,26
 326 88 326 88 326 66 c 0,16,17
EndSplineSet
EndChar

StartChar: oslash
Encoding: 248 248 186
Width: 499
GlyphClass: 2
Flags: W
LayerCount: 2
Fore
SplineSet
125 28 m 1,0,1
 107 42 107 42 95.5 54.5 c 128,-1,2
 84 67 84 67 66 91 c 128,-1,3
 48 115 48 115 38.5 150 c 128,-1,4
 29 185 29 185 29 227 c 0,5,6
 29 329 29 329 90.5 394.5 c 128,-1,7
 152 460 152 460 249 460 c 0,8,9
 296 460 296 460 341 442 c 1,10,-1
 398 551 l 1,11,-1
 437 551 l 1,12,-1
 372 426 l 1,13,14
 376 424 376 424 382.5 419.5 c 128,-1,15
 389 415 389 415 406 398.5 c 128,-1,16
 423 382 423 382 436 362 c 128,-1,17
 449 342 449 342 459.5 307.5 c 128,-1,18
 470 273 470 273 470 234 c 0,19,20
 470 130 470 130 406.5 60 c 128,-1,21
 343 -10 343 -10 248 -10 c 0,22,23
 202 -10 202 -10 154 12 c 1,24,-1
 89 -111 l 1,25,-1
 53 -111 l 1,26,-1
 125 28 l 1,0,1
340 366 m 1,27,-1
 179 60 l 1,28,29
 213 18 213 18 261 18 c 0,30,31
 317 18 317 18 348 67 c 128,-1,32
 379 116 379 116 379 204 c 128,-1,33
 379 292 379 292 340 366 c 1,27,-1
158 92 m 1,34,-1
 316 395 l 1,35,36
 280 432 280 432 237 432 c 0,37,38
 184 432 184 432 151.5 389.5 c 128,-1,39
 119 347 119 347 119 275 c 0,40,41
 119 171 119 171 158 92 c 1,34,-1
EndSplineSet
EndChar

StartChar: thorn
Encoding: 254 254 192
Width: 499
GlyphClass: 2
Flags: W
LayerCount: 2
Fore
SplineSet
9 623 m 1,0,-1
 9 639 l 1,1,2
 97 663 97 663 154 683 c 1,3,-1
 160 680 l 1,4,-1
 160 382 l 1,5,6
 222 460 222 460 303 460 c 0,7,8
 376 460 376 460 423 400 c 128,-1,9
 470 340 470 340 470 248 c 0,10,11
 470 139 470 139 409.5 64.5 c 128,-1,12
 349 -10 349 -10 261 -10 c 0,13,14
 228 -10 228 -10 206 -0.5 c 128,-1,15
 184 9 184 9 160 34 c 1,16,-1
 160 -125 l 2,17,18
 160 -172 160 -172 175.5 -185 c 128,-1,19
 191 -198 191 -198 248 -199 c 1,20,-1
 248 -217 l 1,21,-1
 4 -217 l 1,22,-1
 4 -199 l 1,23,24
 49 -194 49 -194 62 -182 c 128,-1,25
 75 -170 75 -170 75 -130 c 2,26,-1
 75 573 l 2,27,28
 75 604 75 604 65.5 614 c 128,-1,29
 56 624 56 624 26 624 c 0,30,31
 15 624 15 624 9 623 c 1,0,-1
160 334 m 2,32,-1
 160 88 l 2,33,34
 160 66 160 66 194 44 c 128,-1,35
 228 22 228 22 264 22 c 0,36,37
 317 22 317 22 350.5 73.5 c 128,-1,38
 384 125 384 125 384 208 c 0,39,40
 384 295 384 295 350.5 347.5 c 128,-1,41
 317 400 317 400 261 400 c 0,42,43
 226 400 226 400 193 378.5 c 128,-1,44
 160 357 160 357 160 334 c 2,32,-1
EndSplineSet
EndChar

StartChar: dotlessi
Encoding: 305 305 194
Width: 278
GlyphClass: 2
Flags: W
LayerCount: 2
Fore
SplineSet
260 0 m 1,0,-1
 23 0 l 1,1,-1
 23 14 l 1,2,3
 67 17 67 17 82.5 32 c 128,-1,4
 98 47 98 47 98 80 c 2,5,-1
 98 323 l 2,6,7
 98 366 98 366 91.5 382 c 128,-1,8
 85 398 85 398 65 398 c 0,9,10
 52 398 52 398 23 390 c 1,11,-1
 23 404 l 1,12,-1
 183 458 l 1,13,-1
 183 80 l 2,14,15
 183 46 183 46 199 31.5 c 128,-1,16
 215 17 215 17 260 14 c 1,17,-1
 260 0 l 1,0,-1
EndSplineSet
EndChar

StartChar: Lslash
Encoding: 321 321 195
Width: 610
GlyphClass: 2
Flags: W
LayerCount: 2
Fore
SplineSet
354 40 m 2,0,1
 447 40 447 40 494 70 c 128,-1,2
 541 100 541 100 573 174 c 1,3,-1
 598 174 l 1,4,-1
 551 0 l 1,5,-1
 12 0 l 1,6,-1
 12 19 l 1,7,8
 66 22 66 22 83 39.5 c 128,-1,9
 100 57 100 57 100 108 c 2,10,-1
 100 275 l 1,11,-1
 12 226 l 1,12,-1
 12 275 l 1,13,-1
 100 325 l 1,14,-1
 100 554 l 2,15,16
 100 606 100 606 84 622 c 128,-1,17
 68 638 68 638 12 643 c 1,18,-1
 12 662 l 1,19,-1
 294 662 l 1,20,-1
 294 643 l 1,21,22
 235 640 235 640 218 623.5 c 128,-1,23
 201 607 201 607 201 554 c 2,24,-1
 201 384 l 1,25,-1
 356 473 l 1,26,-1
 356 423 l 1,27,-1
 201 335 l 1,28,-1
 201 81 l 2,29,30
 201 54 201 54 216.5 47 c 128,-1,31
 232 40 232 40 287 40 c 2,32,-1
 354 40 l 2,0,1
EndSplineSet
EndChar

StartChar: lslash
Encoding: 322 322 196
Width: 276
GlyphClass: 2
Flags: W
LayerCount: 2
Fore
SplineSet
98 362 m 1,0,-1
 98 564 l 2,1,2
 98 599 98 599 89 612 c 128,-1,3
 80 625 80 625 56 625 c 0,4,5
 49 625 49 625 25 623 c 2,6,-1
 19 623 l 1,7,-1
 19 639 l 1,8,9
 117 663 117 663 179 683 c 1,10,-1
 182 681 l 1,11,-1
 182 419 l 1,12,-1
 259 472 l 1,13,-1
 259 428 l 1,14,-1
 182 375 l 1,15,-1
 182 83 l 2,16,17
 182 43 182 43 195.5 30.5 c 128,-1,18
 209 18 209 18 256 15 c 1,19,-1
 256 0 l 1,20,-1
 21 0 l 1,21,-1
 21 15 l 1,22,23
 68 20 68 20 83 33.5 c 128,-1,24
 98 47 98 47 98 86 c 2,25,-1
 98 318 l 1,26,-1
 21 264 l 1,27,-1
 21 308 l 1,28,-1
 98 362 l 1,0,-1
EndSplineSet
EndChar

StartChar: OE
Encoding: 338 338 197
Width: 887
GlyphClass: 2
Flags: W
LayerCount: 2
Fore
SplineSet
343 668 m 0,0,1
 354 668 354 668 409 665 c 128,-1,2
 464 662 464 662 513 662 c 2,3,-1
 838 662 l 1,4,-1
 838 521 l 1,5,-1
 814 521 l 1,6,7
 806 587 806 587 775.5 606 c 128,-1,8
 745 625 745 625 647 625 c 2,9,-1
 596 625 l 2,10,11
 554 625 554 625 543 621 c 128,-1,12
 532 617 532 617 532 602 c 2,13,-1
 532 366 l 1,14,-1
 636 366 l 2,15,16
 714 366 714 366 738.5 387.5 c 128,-1,17
 763 409 763 409 768 464 c 1,18,-1
 788 464 l 1,19,-1
 788 230 l 1,20,-1
 768 230 l 1,21,22
 761 289 761 289 741 309.5 c 128,-1,23
 721 330 721 330 669 330 c 2,24,-1
 532 330 l 1,25,-1
 532 83 l 2,26,27
 532 56 532 56 543 46.5 c 128,-1,28
 554 37 554 37 587 38 c 2,29,-1
 710 40 l 2,30,31
 757 42 757 42 790 69.5 c 128,-1,32
 823 97 823 97 861 168 c 1,33,-1
 885 168 l 1,34,-1
 841 0 l 1,35,-1
 491 0 l 2,36,37
 423 0 423 0 371 -4 c 0,38,39
 358 -4 358 -4 338 -5 c 128,-1,40
 318 -6 318 -6 312 -6 c 0,41,42
 261 -6 261 -6 213.5 12 c 128,-1,43
 166 30 166 30 123.5 66.5 c 128,-1,44
 81 103 81 103 55 169 c 128,-1,45
 29 235 29 235 29 322 c 0,46,47
 29 408 29 408 56 480 c 128,-1,48
 83 552 83 552 130 593 c 0,49,50
 216 668 216 668 343 668 c 0,0,1
431 130 m 2,51,-1
 431 527 l 2,52,53
 431 582 431 582 407.5 607.5 c 128,-1,54
 384 633 384 633 333 633 c 0,55,56
 242 633 242 633 192 552.5 c 128,-1,57
 142 472 142 472 142 325 c 0,58,59
 142 183 142 183 190.5 107 c 128,-1,60
 239 31 239 31 331 31 c 0,61,62
 384 31 384 31 407.5 54.5 c 128,-1,63
 431 78 431 78 431 130 c 2,51,-1
EndSplineSet
EndChar

StartChar: oe
Encoding: 339 339 198
Width: 720
GlyphClass: 2
Flags: W
LayerCount: 2
Fore
SplineSet
29 218 m 0,0,1
 29 258 29 258 40.5 298 c 128,-1,2
 52 338 52 338 75 375.5 c 128,-1,3
 98 413 98 413 138.5 436.5 c 128,-1,4
 179 460 179 460 231 460 c 0,5,6
 278 460 278 460 312 443 c 128,-1,7
 346 426 346 426 384 384 c 1,8,9
 415 425 415 425 444.5 442.5 c 128,-1,10
 474 460 474 460 514 460 c 0,11,12
 595 460 595 460 640 398 c 0,13,14
 670 361 670 361 674 277 c 1,15,-1
 420 277 l 1,16,17
 422 214 422 214 430.5 178 c 128,-1,18
 439 142 439 142 458 107 c 0,19,20
 473 85 473 85 498 71 c 128,-1,21
 523 57 523 57 549 57 c 0,22,23
 586 57 586 57 615.5 77 c 128,-1,24
 645 97 645 97 680 145 c 1,25,-1
 690 139 l 1,26,27
 652 58 652 58 611 24 c 128,-1,28
 570 -10 570 -10 511 -10 c 0,29,30
 465 -10 465 -10 435.5 12.5 c 128,-1,31
 406 35 406 35 384 85 c 1,32,33
 355 34 355 34 321 12 c 128,-1,34
 287 -10 287 -10 236 -10 c 0,35,36
 146 -10 146 -10 87.5 54 c 128,-1,37
 29 118 29 118 29 218 c 0,0,1
229 431 m 0,38,39
 187 431 187 431 154 398 c 0,40,41
 120 362 120 362 120 271 c 0,42,43
 120 16 120 16 240 16 c 0,44,45
 343 16 343 16 343 199 c 0,46,47
 343 311 343 311 313.5 371 c 128,-1,48
 284 431 284 431 229 431 c 0,38,39
419 308 m 1,49,-1
 579 308 l 1,50,-1
 579 334 l 2,51,52
 579 376 579 376 556.5 403.5 c 128,-1,53
 534 431 534 431 499 431 c 0,54,55
 420 431 420 431 419 308 c 1,49,-1
EndSplineSet
EndChar

StartChar: florin
Encoding: 402 402 202
Width: 499
GlyphClass: 2
Flags: W
LayerCount: 2
Fore
SplineSet
406 598 m 0,0,1
 406 603 406 603 412.5 617 c 128,-1,2
 419 631 419 631 419 636 c 0,3,4
 419 647 419 647 398 647 c 0,5,6
 374 647 374 647 357 630 c 0,7,8
 343 614 343 614 330 572 c 128,-1,9
 317 530 317 530 313 483 c 0,10,11
 306 409 306 409 306 407 c 2,12,-1
 432 407 l 1,13,-1
 422 376 l 1,14,-1
 302 376 l 1,15,16
 297 340 297 340 286 254 c 128,-1,17
 275 168 275 168 268.5 123.5 c 128,-1,18
 262 79 262 79 247.5 18.5 c 128,-1,19
 233 -42 233 -42 214 -83 c 0,20,21
 166 -189 166 -189 86 -189 c 0,22,23
 52 -189 52 -189 29.5 -169.5 c 128,-1,24
 7 -150 7 -150 7 -120 c 0,25,26
 7 -100 7 -100 20 -87.5 c 128,-1,27
 33 -75 33 -75 53 -75 c 0,28,29
 70 -75 70 -75 79.5 -84.5 c 128,-1,30
 89 -94 89 -94 89 -111 c 0,31,32
 89 -122 89 -122 82 -135.5 c 128,-1,33
 75 -149 75 -149 75 -152 c 0,34,35
 75 -166 75 -166 95 -166 c 0,36,37
 162 -166 162 -166 177 9 c 2,38,-1
 192 182 l 2,39,40
 196 223 196 223 200.5 259 c 128,-1,41
 205 295 205 295 210 329 c 128,-1,42
 215 363 215 363 217 376 c 1,43,-1
 105 376 l 1,44,-1
 116 407 l 1,45,-1
 223 407 l 1,46,47
 264 677 264 677 406 677 c 0,48,49
 441 677 441 677 466 657 c 128,-1,50
 491 637 491 637 491 608 c 0,51,52
 491 589 491 589 477 575.5 c 128,-1,53
 463 562 463 562 444 562 c 0,54,55
 428 562 428 562 417 573 c 128,-1,56
 406 584 406 584 406 598 c 0,0,1
EndSplineSet
EndChar

StartChar: dotlessj
Encoding: 567 567 203
Width: 278
GlyphClass: 2
Flags: W
LayerCount: 2
Fore
SplineSet
-55 -158 m 0,0,1
 -55 -137 -55 -137 -41 -127.5 c 128,-1,2
 -27 -118 -27 -118 -13 -118 c 0,3,4
 7 -118 7 -118 26 -143.5 c 128,-1,5
 45 -169 45 -169 69 -181 c 0,6,7
 76 -184 76 -184 83 -184 c 0,8,9
 103 -184 103 -184 112 -156 c 128,-1,10
 121 -128 121 -128 121 -94 c 2,11,-1
 121 343 l 2,12,13
 121 373 121 373 114 383.5 c 128,-1,14
 107 394 107 394 86 394 c 0,15,16
 80 394 80 394 48 390 c 1,17,-1
 48 404 l 1,18,-1
 206 458 l 1,19,-1
 206 12 l 2,20,21
 206 -217 206 -217 35 -217 c 0,22,23
 7 -217 7 -217 -24 -203 c 128,-1,24
 -55 -189 -55 -189 -55 -158 c 0,0,1
EndSplineSet
EndChar

StartChar: circumflex
Encoding: 710 710 204
Width: 332
GlyphClass: 2
Flags: W
LayerCount: 2
Fore
SplineSet
322 507 m 1,0,-1
 289 507 l 1,1,-1
 166 609 l 1,2,-1
 45 507 l 1,3,-1
 12 507 l 1,4,-1
 135 674 l 1,5,-1
 198 674 l 1,6,-1
 322 507 l 1,0,-1
EndSplineSet
EndChar

StartChar: caron
Encoding: 711 711 205
Width: 332
GlyphClass: 2
Flags: W
LayerCount: 2
Fore
SplineSet
322 674 m 1,0,-1
 198 507 l 1,1,-1
 135 507 l 1,2,-1
 12 674 l 1,3,-1
 45 674 l 1,4,-1
 166 571 l 1,5,-1
 289 674 l 1,6,-1
 322 674 l 1,0,-1
EndSplineSet
EndChar

StartChar: breve
Encoding: 728 728 206
Width: 332
GlyphClass: 2
Flags: W
LayerCount: 2
Fore
SplineSet
278 664 m 1,0,-1
 308 664 l 1,1,2
 297 584 297 584 262.5 545.5 c 128,-1,3
 228 507 228 507 166 507 c 0,4,5
 110 507 110 507 68 543 c 128,-1,6
 26 579 26 579 26 664 c 1,7,-1
 56 664 l 1,8,9
 75 567 75 567 167 567 c 0,10,11
 211 567 211 567 234 587 c 128,-1,12
 257 607 257 607 278 664 c 1,0,-1
EndSplineSet
EndChar

StartChar: dotaccent
Encoding: 729 729 207
Width: 332
GlyphClass: 2
Flags: W
LayerCount: 2
Fore
SplineSet
166 623 m 0,0,1
 186 623 186 623 201.5 608 c 128,-1,2
 217 593 217 593 217 573 c 0,3,4
 217 552 217 552 202 537.5 c 128,-1,5
 187 523 187 523 166 523 c 0,6,7
 146 523 146 523 132.5 537.5 c 128,-1,8
 119 552 119 552 119 573 c 0,9,10
 119 593 119 593 133 608 c 128,-1,11
 147 623 147 623 166 623 c 0,0,1
EndSplineSet
EndChar

StartChar: ring
Encoding: 730 730 208
Width: 332
GlyphClass: 2
Flags: W
LayerCount: 2
Fore
SplineSet
166 710 m 128,-1,1
 207 710 207 710 237 681 c 128,-1,2
 267 652 267 652 267 611 c 0,3,4
 267 571 267 571 237 542 c 128,-1,5
 207 513 207 513 166 513 c 0,6,7
 124 513 124 513 95.5 542 c 128,-1,8
 67 571 67 571 67 612 c 128,-1,9
 67 653 67 653 96 681.5 c 128,-1,0
 125 710 125 710 166 710 c 128,-1,1
167 677 m 0,10,11
 140 677 140 677 120.5 657.5 c 128,-1,12
 101 638 101 638 101 612 c 0,13,14
 101 585 101 585 120 565.5 c 128,-1,15
 139 546 139 546 166 546 c 128,-1,16
 193 546 193 546 212 565.5 c 128,-1,17
 231 585 231 585 231 611 c 0,18,19
 231 638 231 638 212 657.5 c 128,-1,20
 193 677 193 677 167 677 c 0,10,11
EndSplineSet
EndChar

StartChar: ogonek
Encoding: 731 731 209
Width: 332
GlyphClass: 2
Flags: W
LayerCount: 2
Fore
SplineSet
229 -73 m 1,0,-1
 249 -89 l 1,1,2
 195 -166 195 -166 138 -166 c 0,3,4
 107 -166 107 -166 85.5 -143.5 c 128,-1,5
 64 -121 64 -121 64 -89 c 0,6,7
 64 -42 64 -42 119 0 c 1,8,-1
 164 0 l 1,9,10
 120 -35 120 -35 120 -69 c 0,11,12
 120 -86 120 -86 130.5 -97 c 128,-1,13
 141 -108 141 -108 158 -108 c 0,14,15
 189 -108 189 -108 229 -73 c 1,0,-1
EndSplineSet
EndChar

StartChar: tilde
Encoding: 732 732 210
Width: 332
GlyphClass: 2
Flags: W
LayerCount: 2
Fore
SplineSet
302 639 m 1,0,-1
 331 639 l 1,1,2
 316 581 316 581 291.5 556.5 c 128,-1,3
 267 532 267 532 226 532 c 0,4,5
 195 532 195 532 147 555.5 c 128,-1,6
 99 579 99 579 81 579 c 0,7,8
 48 579 48 579 29 532 c 1,9,-1
 1 532 l 1,10,11
 24 633 24 633 103 633 c 0,12,13
 134 633 134 633 182 610 c 128,-1,14
 230 587 230 587 249 587 c 0,15,16
 266 587 266 587 278 598.5 c 128,-1,17
 290 610 290 610 302 639 c 1,0,-1
EndSplineSet
EndChar

StartChar: hungarumlaut
Encoding: 733 733 211
Width: 332
GlyphClass: 2
Flags: W
LayerCount: 2
Fore
SplineSet
193 507 m 1,0,-1
 152 507 l 1,1,-1
 300 655 l 2,2,3
 322 678 322 678 343 678 c 0,4,5
 376 678 376 678 376 646 c 0,6,7
 376 622 376 622 347 603 c 2,8,-1
 193 507 l 1,0,-1
37 507 m 1,9,-1
 -3 507 l 1,10,-1
 144 655 l 2,11,12
 167 678 167 678 186 678 c 0,13,14
 221 678 221 678 221 646 c 0,15,16
 221 623 221 623 190 603 c 2,17,-1
 37 507 l 1,9,-1
EndSplineSet
EndChar

StartChar: uni0E01
Encoding: 3585 3585 212
Width: 602
GlyphClass: 2
Flags: W
LayerCount: 2
Fore
SplineSet
499 0 m 1,0,-1
 422 0 l 1,1,-1
 422 407 l 2,2,3
 422 477 422 477 378.5 513.5 c 128,-1,4
 335 550 335 550 271 550 c 0,5,6
 212 550 212 550 162 519 c 128,-1,7
 112 488 112 488 97 436 c 1,8,-1
 267 436 l 1,9,-1
 267 392 l 1,10,-1
 218 392 l 2,11,12
 199 392 199 392 188 378.5 c 128,-1,13
 177 365 177 365 176 356.5 c 128,-1,14
 175 348 175 348 175 341 c 2,15,-1
 175 0 l 1,16,-1
 95 0 l 1,17,-1
 95 324 l 2,18,19
 95 346 95 346 103.5 363 c 128,-1,20
 112 380 112 380 120 386 c 2,21,-1
 129 392 l 1,22,-1
 45 392 l 1,23,24
 45 488 45 488 117 543.5 c 128,-1,25
 189 599 189 599 285 599 c 0,26,27
 369 599 369 599 434 547.5 c 128,-1,28
 499 496 499 496 499 413 c 2,29,-1
 499 0 l 1,0,-1
EndSplineSet
EndChar

StartChar: uni0E02
Encoding: 3586 3586 213
Width: 585
GlyphClass: 2
Flags: W
LayerCount: 2
Fore
SplineSet
27 450 m 0,0,1
 27 517 27 517 66.5 557.5 c 128,-1,2
 106 598 106 598 170 598 c 0,3,4
 237 598 237 598 276 555.5 c 128,-1,5
 315 513 315 513 315 449 c 2,6,-1
 315 78 l 2,7,8
 315 61 315 61 327.5 48 c 128,-1,9
 340 35 340 35 359 35 c 0,10,11
 377 35 377 35 390.5 48.5 c 128,-1,12
 404 62 404 62 404 77 c 2,13,-1
 404 530 l 1,14,-1
 453 588 l 2,15,16
 459 594 459 594 466 594 c 0,17,18
 482 594 482 594 482 567 c 2,19,-1
 482 106 l 2,20,21
 482 55 482 55 449.5 23.5 c 128,-1,22
 417 -8 417 -8 359 -8 c 0,23,24
 305 -8 305 -8 270 24.5 c 128,-1,25
 235 57 235 57 235 106 c 2,26,-1
 235 453 l 2,27,28
 235 494 235 494 215 520.5 c 128,-1,29
 195 547 195 547 160 547 c 0,30,31
 120 547 120 547 96 522 c 128,-1,32
 72 497 72 497 71 453 c 1,33,34
 94 472 94 472 121 472 c 0,35,36
 158 471 158 471 178.5 448.5 c 128,-1,37
 199 426 199 426 199 396 c 0,38,39
 199 365 199 365 178.5 342 c 128,-1,40
 158 319 158 319 123 319 c 0,41,42
 74 319 74 319 50.5 358.5 c 128,-1,43
 27 398 27 398 27 450 c 0,0,1
121 352 m 128,-1,45
 141 352 141 352 152.5 365 c 128,-1,46
 164 378 164 378 164 395 c 128,-1,47
 164 412 164 412 152.5 425 c 128,-1,48
 141 438 141 438 121 438 c 128,-1,49
 101 438 101 438 90 425 c 128,-1,50
 79 412 79 412 79 395 c 128,-1,51
 79 378 79 378 90 365 c 128,-1,44
 101 352 101 352 121 352 c 128,-1,45
EndSplineSet
EndChar

StartChar: uni0E03
Encoding: 3587 3587 214
Width: 634
GlyphClass: 2
Flags: W
LayerCount: 2
Fore
SplineSet
530 106 m 2,0,1
 530 55 530 55 497.5 23.5 c 128,-1,2
 465 -8 465 -8 407 -8 c 0,3,4
 354 -8 354 -8 318.5 25.5 c 128,-1,5
 283 59 283 59 283 106 c 2,6,-1
 283 461 l 2,7,8
 283 524 283 524 257 524 c 1,9,-1
 184 452 l 1,10,-1
 114 524 l 1,11,12
 93 524 93 524 79.5 501.5 c 128,-1,13
 66 479 66 479 66 440 c 0,14,15
 66 431 66 431 68 413 c 1,16,17
 81 433 81 433 117 433 c 0,18,19
 154 433 154 433 174 410.5 c 128,-1,20
 194 388 194 388 194 357 c 128,-1,21
 194 326 194 326 173 303 c 128,-1,22
 152 280 152 280 115 280 c 0,23,24
 65 280 65 280 42 322.5 c 128,-1,25
 19 365 19 365 19 426 c 0,26,27
 19 471 19 471 29.5 504.5 c 128,-1,28
 40 538 40 538 57 555.5 c 128,-1,29
 74 573 74 573 87 581 c 128,-1,30
 100 589 100 589 114 593 c 1,31,-1
 184 515 l 1,32,-1
 258 591 l 1,33,34
 307 588 307 588 334.5 553 c 128,-1,35
 362 518 362 518 362 461 c 2,36,-1
 362 78 l 2,37,38
 362 61 362 61 374 48 c 128,-1,39
 386 35 386 35 407 35 c 0,40,41
 427 35 427 35 439.5 48 c 128,-1,42
 452 61 452 61 452 77 c 2,43,-1
 452 530 l 1,44,-1
 501 588 l 2,45,46
 507 594 507 594 516 594 c 0,47,48
 530 594 530 594 530 567 c 2,49,-1
 530 106 l 2,0,1
117 312 m 0,50,51
 138 312 138 312 150 325 c 128,-1,52
 162 338 162 338 162 356 c 0,53,54
 162 373 162 373 150 386 c 128,-1,55
 138 399 138 399 117 399 c 128,-1,56
 96 399 96 399 85 386.5 c 128,-1,57
 74 374 74 374 74 356 c 128,-1,58
 74 338 74 338 85.5 325 c 128,-1,59
 97 312 97 312 117 312 c 0,50,51
EndSplineSet
EndChar

StartChar: uni0E04
Encoding: 3588 3588 215
Width: 589
GlyphClass: 2
Flags: W
LayerCount: 2
Fore
SplineSet
255 309 m 0,0,1
 279 309 279 309 292.5 323.5 c 128,-1,2
 306 338 306 338 306 358 c 128,-1,3
 306 378 306 378 292.5 392.5 c 128,-1,4
 279 407 279 407 255 407 c 0,5,6
 232 407 232 407 219 392.5 c 128,-1,7
 206 378 206 378 206 358 c 128,-1,8
 206 338 206 338 219 323.5 c 128,-1,9
 232 309 232 309 255 309 c 0,0,1
124 321 m 1,10,11
 134 371 134 371 165 407.5 c 128,-1,12
 196 444 196 444 252 444 c 0,13,14
 293 444 293 444 316.5 419 c 128,-1,15
 340 394 340 394 340 359 c 128,-1,16
 340 324 340 324 316 298.5 c 128,-1,17
 292 273 292 273 250 273 c 0,18,19
 233 273 233 273 218 280 c 128,-1,20
 203 287 203 287 196 294 c 2,21,-1
 190 301 l 1,22,23
 180 278 180 278 180 229 c 2,24,-1
 180 0 l 1,25,-1
 101 0 l 1,26,-1
 101 224 l 2,27,28
 101 240 101 240 84.5 266 c 128,-1,29
 68 292 68 292 51.5 330 c 128,-1,30
 35 368 35 368 35 413 c 0,31,32
 35 492 35 492 96.5 545.5 c 128,-1,33
 158 599 158 599 247 599 c 0,34,35
 353 599 353 599 420.5 553 c 128,-1,36
 488 507 488 507 488 401 c 2,37,-1
 488 0 l 1,38,-1
 412 0 l 1,39,-1
 412 401 l 2,40,41
 412 553 412 553 246 553 c 0,42,43
 176 553 176 553 128.5 509 c 128,-1,44
 81 465 81 465 81 413 c 0,45,46
 81 342 81 342 124 321 c 1,10,11
EndSplineSet
EndChar

StartChar: uni0E05
Encoding: 3589 3589 216
Width: 588
GlyphClass: 2
Flags: W
LayerCount: 2
Fore
SplineSet
487 0 m 1,0,-1
 410 0 l 1,1,-1
 410 399 l 2,2,3
 410 426 410 426 410 434 c 128,-1,4
 410 442 410 442 407 462.5 c 128,-1,5
 404 483 404 483 398 492.5 c 128,-1,6
 392 502 392 502 379 515 c 128,-1,7
 366 528 366 528 347 538 c 1,8,-1
 258 468 l 1,9,-1
 166 538 l 1,10,11
 136 529 136 529 109.5 494 c 128,-1,12
 83 459 83 459 83 413 c 0,13,14
 83 344 83 344 126 321 c 1,15,16
 147 444 147 444 252 444 c 0,17,18
 293 444 293 444 316.5 419 c 128,-1,19
 340 394 340 394 340 359 c 128,-1,20
 340 324 340 324 316 298.5 c 128,-1,21
 292 273 292 273 250 273 c 0,22,23
 234 273 234 273 220.5 278.5 c 128,-1,24
 207 284 207 284 201 290 c 2,25,-1
 195 295 l 1,26,27
 180 284 180 284 180 240 c 2,28,-1
 180 0 l 1,29,-1
 101 0 l 1,30,-1
 101 229 l 2,31,32
 101 245 101 245 84.5 271.5 c 128,-1,33
 68 298 68 298 51.5 334.5 c 128,-1,34
 35 371 35 371 35 413 c 0,35,36
 35 454 35 454 49.5 488 c 128,-1,37
 64 522 64 522 87 543 c 128,-1,38
 110 564 110 564 130.5 576 c 128,-1,39
 151 588 151 588 170 594 c 1,40,-1
 258 524 l 1,41,-1
 344 594 l 1,42,43
 362 591 362 591 382.5 581.5 c 128,-1,44
 403 572 403 572 428.5 552 c 128,-1,45
 454 532 454 532 470.5 492 c 128,-1,46
 487 452 487 452 487 399 c 2,47,-1
 487 0 l 1,0,-1
255 309 m 0,48,49
 279 309 279 309 292.5 323.5 c 128,-1,50
 306 338 306 338 306 358 c 128,-1,51
 306 378 306 378 292.5 392.5 c 128,-1,52
 279 407 279 407 255 407 c 0,53,54
 232 407 232 407 219 392.5 c 128,-1,55
 206 378 206 378 206 358 c 128,-1,56
 206 338 206 338 219 323.5 c 128,-1,57
 232 309 232 309 255 309 c 0,48,49
EndSplineSet
EndChar

StartChar: uni0E06
Encoding: 3590 3590 217
Width: 757
GlyphClass: 2
Flags: W
LayerCount: 2
Fore
SplineSet
230 90 m 0,0,1
 230 68 230 68 240.5 56.5 c 128,-1,2
 251 45 251 45 264 45 c 0,3,4
 274 45 274 45 280.5 51 c 128,-1,5
 287 57 287 57 287 68 c 2,6,-1
 287 144 l 1,7,8
 230 144 230 144 230 90 c 0,0,1
287 461 m 2,9,10
 287 524 287 524 261 524 c 1,11,-1
 189 452 l 1,12,-1
 118 524 l 1,13,14
 98 524 98 524 84.5 500.5 c 128,-1,15
 71 477 71 477 71 437 c 0,16,17
 71 421 71 421 72 413 c 1,18,19
 86 433 86 433 121 433 c 0,20,21
 158 433 158 433 178.5 410.5 c 128,-1,22
 199 388 199 388 199 357 c 128,-1,23
 199 326 199 326 178 303 c 128,-1,24
 157 280 157 280 120 280 c 0,25,26
 70 280 70 280 46.5 322.5 c 128,-1,27
 23 365 23 365 23 426 c 0,28,29
 23 496 23 496 49 538 c 128,-1,30
 75 580 75 580 118 593 c 1,31,-1
 189 515 l 1,32,-1
 263 591 l 1,33,34
 312 588 312 588 339.5 553 c 128,-1,35
 367 518 367 518 367 461 c 2,36,-1
 367 190 l 1,37,38
 382 188 382 188 406 182 c 128,-1,39
 430 176 430 176 485.5 147 c 128,-1,40
 541 118 541 118 574 77 c 1,41,-1
 574 530 l 1,42,-1
 624 588 l 2,43,44
 628 594 628 594 638 594 c 0,45,46
 652 594 652 594 651 567 c 2,47,-1
 651 0 l 1,48,-1
 570 0 l 1,49,50
 548 38 548 38 519.5 66 c 128,-1,51
 491 94 491 94 465.5 107.5 c 128,-1,52
 440 121 440 121 417.5 129.5 c 128,-1,53
 395 138 395 138 382 140 c 2,54,-1
 369 141 l 1,55,-1
 369 117 l 2,56,57
 369 53 369 53 353 22.5 c 128,-1,58
 337 -8 337 -8 284 -8 c 0,59,60
 236 -8 236 -8 210 21.5 c 128,-1,61
 184 51 184 51 184 92 c 0,62,63
 184 134 184 134 210.5 166 c 128,-1,64
 237 198 237 198 287 198 c 1,65,-1
 287 461 l 2,9,10
121 312 m 0,66,67
 142 312 142 312 154 325 c 128,-1,68
 166 338 166 338 166 356 c 0,69,70
 166 373 166 373 154 386 c 128,-1,71
 142 399 142 399 121 399 c 0,72,73
 101 399 101 399 90 386.5 c 128,-1,74
 79 374 79 374 79 356 c 128,-1,75
 79 338 79 338 90 325 c 128,-1,76
 101 312 101 312 121 312 c 0,66,67
EndSplineSet
EndChar

StartChar: uni0E07
Encoding: 3591 3591 218
Width: 479
GlyphClass: 2
Flags: W
LayerCount: 2
Fore
SplineSet
378 0 m 1,0,-1
 295 0 l 1,1,-1
 46 269 l 1,2,-1
 48 326 l 1,3,-1
 298 98 l 1,4,-1
 298 432 l 1,5,6
 286 418 286 418 257 418 c 0,7,8
 213 418 213 418 188 443.5 c 128,-1,9
 163 469 163 469 163 504 c 0,10,11
 163 540 163 540 189.5 567 c 128,-1,12
 216 594 216 594 264 594 c 0,13,14
 304 594 304 594 330 581.5 c 128,-1,15
 356 569 356 569 365 548 c 128,-1,16
 374 527 374 527 376 515.5 c 128,-1,17
 378 504 378 504 378 490 c 0,18,19
 378 489 378 489 378 488 c 2,20,-1
 378 0 l 1,0,-1
253 455 m 128,-1,22
 278 455 278 455 292 470 c 128,-1,23
 306 485 306 485 306 506 c 0,24,25
 306 526 306 526 292 541 c 128,-1,26
 278 556 278 556 253 556 c 128,-1,27
 228 556 228 556 214.5 541 c 128,-1,28
 201 526 201 526 201 506 c 0,29,30
 201 485 201 485 214.5 470 c 128,-1,21
 228 455 228 455 253 455 c 128,-1,22
EndSplineSet
EndChar

StartChar: uni0E08
Encoding: 3592 3592 219
Width: 565
GlyphClass: 2
Flags: W
LayerCount: 2
Fore
SplineSet
94 363 m 0,0,1
 94 398 94 398 118.5 422.5 c 128,-1,2
 143 447 143 447 184 447 c 0,3,4
 293 447 293 447 293 355 c 2,5,-1
 293 81 l 2,6,7
 293 64 293 64 305.5 51 c 128,-1,8
 318 38 318 38 338 38 c 128,-1,9
 358 38 358 38 370 51 c 128,-1,10
 382 64 382 64 382 80 c 2,11,-1
 382 419 l 2,12,13
 382 475 382 475 343 509.5 c 128,-1,14
 304 544 304 544 243 544 c 0,15,16
 172 544 172 544 124.5 507 c 128,-1,17
 77 470 77 470 65 439 c 1,18,-1
 32 453 l 1,19,20
 53 504 53 504 110 551 c 128,-1,21
 167 598 167 598 243 598 c 0,22,23
 344 598 344 598 403 549.5 c 128,-1,24
 462 501 462 501 462 413 c 2,25,-1
 462 109 l 2,26,27
 462 58 462 58 429.5 26.5 c 128,-1,28
 397 -5 397 -5 338 -5 c 0,29,30
 289 -5 289 -5 252 29 c 128,-1,31
 215 63 215 63 215 109 c 2,32,-1
 215 286 l 1,33,34
 195 276 195 276 178 276 c 0,35,36
 140 276 140 276 117 301.5 c 128,-1,37
 94 327 94 327 94 363 c 0,0,1
178 316 m 128,-1,39
 199 316 199 316 211 329 c 128,-1,40
 223 342 223 342 223 361 c 128,-1,41
 223 380 223 380 211 393 c 128,-1,42
 199 406 199 406 178 406 c 128,-1,43
 157 406 157 406 145 393 c 128,-1,44
 133 380 133 380 133 361 c 128,-1,45
 133 342 133 342 145 329 c 128,-1,38
 157 316 157 316 178 316 c 128,-1,39
EndSplineSet
EndChar

StartChar: uni0E09
Encoding: 3593 3593 220
Width: 615
GlyphClass: 2
Flags: W
LayerCount: 2
Fore
SplineSet
467 -8 m 0,0,1
 432 -8 432 -8 408 17.5 c 128,-1,2
 384 43 384 43 384 76 c 0,3,4
 384 89 384 89 388 101.5 c 128,-1,5
 392 114 392 114 396 120 c 2,6,-1
 401 127 l 1,7,8
 363 120 363 120 333 101.5 c 128,-1,9
 303 83 303 83 286.5 60 c 128,-1,10
 270 37 270 37 263 24 c 128,-1,11
 256 11 256 11 252 0 c 1,12,-1
 177 0 l 1,13,-1
 177 240 l 1,14,15
 156 233 156 233 137 233 c 0,16,17
 97 233 97 233 74 259 c 128,-1,18
 51 285 51 285 51 320 c 0,19,20
 51 364 51 364 80 384 c 128,-1,21
 109 404 109 404 150 404 c 0,22,23
 253 404 253 404 253 292 c 2,24,-1
 253 91 l 1,25,-1
 260 89 l 2,26,27
 262 92 262 92 265.5 97.5 c 128,-1,28
 269 103 269 103 283 116.5 c 128,-1,29
 297 130 297 130 314.5 140.5 c 128,-1,30
 332 151 332 151 363.5 160.5 c 128,-1,31
 395 170 395 170 432 172 c 1,32,-1
 432 415 l 2,33,34
 432 472 432 472 387 508 c 128,-1,35
 342 544 342 544 270 544 c 0,36,37
 201 544 201 544 147.5 506.5 c 128,-1,38
 94 469 94 469 80 439 c 1,39,-1
 48 453 l 1,40,41
 82 523 82 523 147 560.5 c 128,-1,42
 212 598 212 598 282 598 c 0,43,44
 377 598 377 598 443.5 549 c 128,-1,45
 510 500 510 500 510 416 c 2,46,-1
 510 181 l 2,47,48
 510 176 510 176 506 171.5 c 128,-1,49
 502 167 502 167 498 166 c 2,50,-1
 495 164 l 1,51,-1
 495 161 l 1,52,53
 522 155 522 155 538 131 c 128,-1,54
 554 107 554 107 554 78 c 0,55,56
 554 43 554 43 531.5 17.5 c 128,-1,57
 509 -8 509 -8 467 -8 c 0,0,1
137 272 m 128,-1,59
 158 272 158 272 170 285.5 c 128,-1,60
 182 299 182 299 182 318 c 128,-1,61
 182 337 182 337 170 350.5 c 128,-1,62
 158 364 158 364 137 364 c 128,-1,63
 116 364 116 364 104 350.5 c 128,-1,64
 92 337 92 337 92 318 c 128,-1,65
 92 299 92 299 104 285.5 c 128,-1,58
 116 272 116 272 137 272 c 128,-1,59
467 32 m 0,66,67
 489 32 489 32 501.5 45 c 128,-1,68
 514 58 514 58 514 76 c 128,-1,69
 514 94 514 94 501.5 107.5 c 128,-1,70
 489 121 489 121 467 121 c 0,71,72
 446 121 446 121 434 108 c 128,-1,73
 422 95 422 95 422 76 c 0,74,75
 422 58 422 58 434 45 c 128,-1,76
 446 32 446 32 467 32 c 0,66,67
EndSplineSet
EndChar

StartChar: uni0E0A
Encoding: 3594 3594 221
Width: 583
GlyphClass: 2
Flags: W
LayerCount: 2
Fore
SplineSet
25 447 m 0,0,1
 25 514 25 514 63.5 555 c 128,-1,2
 102 596 102 596 167 596 c 0,3,4
 207 596 207 596 236.5 581.5 c 128,-1,5
 266 567 266 567 280 548 c 128,-1,6
 294 529 294 529 302.5 505 c 128,-1,7
 311 481 311 481 312 469.5 c 128,-1,8
 313 458 313 458 313 450 c 1,9,10
 352 450 352 450 381 466 c 128,-1,11
 410 482 410 482 424.5 506 c 128,-1,12
 439 530 439 530 445.5 551.5 c 128,-1,13
 452 573 452 573 452 591 c 1,14,-1
 538 591 l 1,15,16
 528 551 528 551 510.5 518.5 c 128,-1,17
 493 486 493 486 474.5 468.5 c 128,-1,18
 456 451 456 451 438.5 439.5 c 128,-1,19
 421 428 421 428 410 424 c 2,20,-1
 399 421 l 1,21,22
 442 410 442 410 466.5 349 c 128,-1,23
 491 288 491 288 491 211 c 0,24,25
 491 124 491 124 460 62 c 128,-1,26
 429 0 429 0 370 0 c 2,27,-1
 169 0 l 1,28,-1
 169 49 l 1,29,-1
 233 49 l 1,30,-1
 233 453 l 2,31,32
 233 547 233 547 152 547 c 0,33,34
 115 547 115 547 92.5 520.5 c 128,-1,35
 70 494 70 494 70 461 c 0,36,37
 70 454 70 454 71 450 c 1,38,39
 87 472 87 472 123 472 c 0,40,41
 158 471 158 471 177.5 448.5 c 128,-1,42
 197 426 197 426 197 395 c 128,-1,43
 197 364 197 364 177.5 341.5 c 128,-1,44
 158 319 158 319 123 319 c 0,45,46
 75 319 75 319 50 356 c 128,-1,47
 25 393 25 393 25 447 c 0,0,1
121 352 m 0,48,49
 141 352 141 352 152 365 c 128,-1,50
 163 378 163 378 163 395 c 128,-1,51
 163 412 163 412 152 425 c 128,-1,52
 141 438 141 438 121 438 c 0,53,54
 100 438 100 438 88 425 c 128,-1,55
 76 412 76 412 76 395 c 128,-1,56
 76 378 76 378 88 365 c 128,-1,57
 100 352 100 352 121 352 c 0,48,49
367 387 m 0,58,59
 346 398 346 398 313 398 c 1,60,-1
 313 49 l 1,61,-1
 355 49 l 2,62,63
 387 49 387 49 405 98 c 128,-1,64
 423 147 423 147 423 215 c 0,65,66
 423 275 423 275 408.5 324 c 128,-1,67
 394 373 394 373 367 387 c 0,58,59
EndSplineSet
EndChar

StartChar: uni0E0B
Encoding: 3595 3595 222
Width: 649
GlyphClass: 2
Flags: W
LayerCount: 2
Fore
SplineSet
421 386 m 0,0,1
 402 399 402 399 366 399 c 1,2,-1
 366 49 l 1,3,-1
 407 49 l 2,4,5
 438 50 438 50 455.5 98 c 128,-1,6
 473 146 473 146 473 213 c 0,7,8
 473 271 473 271 459.5 319.5 c 128,-1,9
 446 368 446 368 421 386 c 0,0,1
286 461 m 2,10,11
 286 524 286 524 261 524 c 1,12,-1
 189 452 l 1,13,-1
 118 524 l 1,14,15
 98 524 98 524 84.5 500.5 c 128,-1,16
 71 477 71 477 71 437 c 0,17,18
 71 421 71 421 72 413 c 1,19,20
 86 433 86 433 121 433 c 0,21,22
 158 433 158 433 178.5 410.5 c 128,-1,23
 199 388 199 388 199 357 c 128,-1,24
 199 326 199 326 178 303 c 128,-1,25
 157 280 157 280 120 280 c 0,26,27
 70 280 70 280 46.5 322.5 c 128,-1,28
 23 365 23 365 23 426 c 0,29,30
 23 496 23 496 49 538 c 128,-1,31
 75 580 75 580 118 593 c 1,32,-1
 189 515 l 1,33,-1
 263 591 l 1,34,35
 366 585 366 585 366 450 c 1,36,37
 398 450 398 450 423 460.5 c 128,-1,38
 448 471 448 471 462.5 486.5 c 128,-1,39
 477 502 477 502 486.5 522.5 c 128,-1,40
 496 543 496 543 499.5 559.5 c 128,-1,41
 503 576 503 576 504 591 c 1,42,-1
 590 591 l 1,43,44
 582 553 582 553 565 522 c 128,-1,45
 548 491 548 491 529 473 c 128,-1,46
 510 455 510 455 492.5 443 c 128,-1,47
 475 431 475 431 464 426 c 2,48,-1
 452 422 l 1,49,50
 494 407 494 407 518 345 c 128,-1,51
 542 283 542 283 542 207 c 0,52,53
 542 122 542 122 511 61 c 128,-1,54
 480 0 480 0 422 0 c 2,55,-1
 223 0 l 1,56,-1
 223 49 l 1,57,-1
 286 49 l 1,58,-1
 286 461 l 2,10,11
121 312 m 0,59,60
 142 312 142 312 154 325 c 128,-1,61
 166 338 166 338 166 356 c 0,62,63
 166 373 166 373 154 386 c 128,-1,64
 142 399 142 399 121 399 c 0,65,66
 101 399 101 399 90 386.5 c 128,-1,67
 79 374 79 374 79 356 c 128,-1,68
 79 338 79 338 90 325 c 128,-1,69
 101 312 101 312 121 312 c 0,59,60
EndSplineSet
EndChar

StartChar: uni0E0C
Encoding: 3596 3596 223
Width: 815
GlyphClass: 2
Flags: W
LayerCount: 2
Fore
SplineSet
284 599 m 0,0,1
 369 599 369 599 434 548.5 c 128,-1,2
 499 498 499 498 499 413 c 2,3,-1
 499 163 l 1,4,5
 510 161 510 161 527 157.5 c 128,-1,6
 544 154 544 154 580.5 136 c 128,-1,7
 617 118 617 118 633 94 c 1,8,-1
 633 530 l 1,9,-1
 680 588 l 2,10,11
 684 594 684 594 695 594 c 0,12,13
 710 594 710 594 710 567 c 2,14,-1
 710 0 l 1,15,-1
 631 0 l 1,16,17
 625 31 625 31 609.5 55 c 128,-1,18
 594 79 594 79 575.5 90.5 c 128,-1,19
 557 102 557 102 539.5 109.5 c 128,-1,20
 522 117 522 117 510 118 c 2,21,-1
 499 120 l 1,22,23
 499 90 499 90 496.5 70.5 c 128,-1,24
 494 51 494 51 486.5 31 c 128,-1,25
 479 11 479 11 462 1.5 c 128,-1,26
 445 -8 445 -8 418 -8 c 0,27,28
 377 -8 377 -8 355 17.5 c 128,-1,29
 333 43 333 43 333 78 c 0,30,31
 333 111 333 111 354 138.5 c 128,-1,32
 375 166 375 166 422 166 c 1,33,-1
 422 407 l 2,34,35
 422 477 422 477 378.5 513.5 c 128,-1,36
 335 550 335 550 272 550 c 0,37,38
 213 550 213 550 162.5 519 c 128,-1,39
 112 488 112 488 97 436 c 1,40,-1
 267 436 l 1,41,-1
 267 392 l 1,42,-1
 218 392 l 2,43,44
 199 392 199 392 188.5 379.5 c 128,-1,45
 178 367 178 367 176.5 358 c 128,-1,46
 175 349 175 349 175 342 c 2,47,-1
 175 154 l 1,48,49
 190 158 190 158 205 158 c 0,50,51
 241 158 241 158 262.5 133 c 128,-1,52
 284 108 284 108 284 74 c 128,-1,53
 284 40 284 40 262 16 c 128,-1,54
 240 -8 240 -8 198 -8 c 0,55,56
 161 -8 161 -8 136 14 c 128,-1,57
 111 36 111 36 103 60.5 c 128,-1,58
 95 85 95 85 95 109 c 2,59,-1
 95 324 l 2,60,61
 95 347 95 347 103.5 364 c 128,-1,62
 112 381 112 381 120 386 c 2,63,-1
 129 392 l 1,64,-1
 45 392 l 1,65,66
 46 488 46 488 117.5 543.5 c 128,-1,67
 189 599 189 599 284 599 c 0,0,1
369 78 m 0,68,69
 369 58 369 58 379.5 46.5 c 128,-1,70
 390 35 390 35 402 35 c 0,71,72
 422 35 422 35 422 61 c 2,73,-1
 422 126 l 1,74,75
 401 126 401 126 388 116 c 128,-1,76
 375 106 375 106 372 96.5 c 128,-1,77
 369 87 369 87 369 78 c 0,68,69
197 31 m 0,78,79
 219 31 219 31 231.5 44.5 c 128,-1,80
 244 58 244 58 244 76 c 128,-1,81
 244 94 244 94 231.5 107.5 c 128,-1,82
 219 121 219 121 197 121 c 0,83,84
 176 121 176 121 164 107.5 c 128,-1,85
 152 94 152 94 152 76 c 128,-1,86
 152 58 152 58 164 44.5 c 128,-1,87
 176 31 176 31 197 31 c 0,78,79
EndSplineSet
EndChar

StartChar: uni0E0D
Encoding: 3597 3597 224
Width: 800
GlyphClass: 2
Flags: W
LayerCount: 2
Fore
SplineSet
694 104 m 2,0,1
 694 64 694 64 649.5 28 c 128,-1,2
 605 -8 605 -8 542 -8 c 128,-1,3
 479 -8 479 -8 437 27.5 c 128,-1,4
 395 63 395 63 395 112 c 2,5,-1
 395 407 l 2,6,7
 395 477 395 477 356 512 c 128,-1,8
 317 547 317 547 260 547 c 0,9,10
 202 547 202 547 155.5 515.5 c 128,-1,11
 109 484 109 484 97 436 c 1,12,-1
 267 436 l 1,13,-1
 267 392 l 1,14,-1
 218 392 l 2,15,16
 199 392 199 392 188.5 379.5 c 128,-1,17
 178 367 178 367 176.5 358 c 128,-1,18
 175 349 175 349 175 342 c 2,19,-1
 175 154 l 1,20,21
 199 162 199 162 217 162 c 0,22,23
 255 162 255 162 276.5 137 c 128,-1,24
 298 112 298 112 298 78 c 0,25,26
 298 45 298 45 274.5 18.5 c 128,-1,27
 251 -8 251 -8 212 -8 c 0,28,29
 176 -8 176 -8 151.5 4 c 128,-1,30
 127 16 127 16 115.5 36 c 128,-1,31
 104 56 104 56 99.5 73.5 c 128,-1,32
 95 91 95 91 95 109 c 2,33,-1
 95 324 l 2,34,35
 95 347 95 347 103.5 364 c 128,-1,36
 112 381 112 381 120 386 c 2,37,-1
 129 392 l 1,38,-1
 45 392 l 1,39,40
 48 488 48 488 114.5 543 c 128,-1,41
 181 598 181 598 270 598 c 0,42,43
 354 598 354 598 413 544.5 c 128,-1,44
 472 491 472 491 472 413 c 2,45,-1
 472 101 l 2,46,47
 472 70 472 70 492 49.5 c 128,-1,48
 512 29 512 29 544 29 c 128,-1,49
 576 29 576 29 596.5 49.5 c 128,-1,50
 617 70 617 70 617 100 c 2,51,-1
 617 530 l 1,52,-1
 665 588 l 2,53,54
 670 594 670 594 680 594 c 0,55,56
 694 594 694 594 694 567 c 2,57,-1
 694 104 l 2,0,1
212 32 m 0,58,59
 235 32 235 32 247 45 c 128,-1,60
 259 58 259 58 259 76 c 0,61,62
 259 95 259 95 247 108 c 128,-1,63
 235 121 235 121 212 121 c 0,64,65
 191 121 191 121 179 108 c 128,-1,66
 167 95 167 95 167 76 c 0,67,68
 167 58 167 58 179 45 c 128,-1,69
 191 32 191 32 212 32 c 0,58,59
401 -117 m 0,70,71
 401 -87 401 -87 419.5 -62.5 c 128,-1,72
 438 -38 438 -38 482 -38 c 0,73,74
 513 -38 513 -38 530 -57.5 c 128,-1,75
 547 -77 547 -77 547 -108 c 0,76,77
 547 -132 547 -132 528 -150.5 c 128,-1,78
 509 -169 509 -169 482 -169 c 0,79,80
 465 -169 465 -169 445 -157 c 1,81,82
 468 -198 468 -198 533 -198 c 0,83,84
 572 -198 572 -198 598 -170 c 128,-1,85
 624 -142 624 -142 624 -106 c 2,86,-1
 624 -52 l 1,87,-1
 694 -52 l 1,88,-1
 694 -108 l 2,89,90
 694 -152 694 -152 654 -191 c 128,-1,91
 614 -230 614 -230 533 -230 c 0,92,93
 494 -230 494 -230 465.5 -217.5 c 128,-1,94
 437 -205 437 -205 424.5 -185 c 128,-1,95
 412 -165 412 -165 406.5 -148.5 c 128,-1,96
 401 -132 401 -132 401 -117 c 0,70,71
518 -103 m 128,-1,98
 518 -85 518 -85 507 -75.5 c 128,-1,99
 496 -66 496 -66 480 -66 c 128,-1,100
 464 -66 464 -66 453 -75.5 c 128,-1,101
 442 -85 442 -85 442 -103 c 128,-1,102
 442 -121 442 -121 453.5 -131 c 128,-1,103
 465 -141 465 -141 480 -141 c 128,-1,104
 495 -141 495 -141 506.5 -131 c 128,-1,97
 518 -121 518 -121 518 -103 c 128,-1,98
EndSplineSet
Substitution2: "Single Substitution lookup 4 subtable" uni0E0D.descless
Substitution2: "'ccmp' Glyph Composition/Decomposition in Thai lookup 2 subtable" uni0E0D.descless
EndChar

StartChar: uni0E0E
Encoding: 3598 3598 225
Width: 612
GlyphClass: 2
Flags: W
AnchorPoint: "Anchor-0" 510 -246 basechar 0
LayerCount: 2
Fore
SplineSet
510 -241 m 1,0,-1
 432 -241 l 1,1,2
 427 -218 427 -218 388.5 -174.5 c 128,-1,3
 350 -131 350 -131 304 -111 c 1,4,5
 303 -115 303 -115 300 -122 c 128,-1,6
 297 -129 297 -129 287 -146.5 c 128,-1,7
 277 -164 277 -164 264.5 -177 c 128,-1,8
 252 -190 252 -190 230.5 -201 c 128,-1,9
 209 -212 209 -212 184 -212 c 0,10,11
 139 -212 139 -212 110 -189.5 c 128,-1,12
 81 -167 81 -167 81 -126 c 0,13,14
 81 -89 81 -89 113.5 -64.5 c 128,-1,15
 146 -40 146 -40 196 -40 c 0,16,17
 235 -40 235 -40 273 -55 c 1,18,19
 289 -3 289 -3 326 12 c 1,20,-1
 362 -5 l 1,21,22
 344 -18 344 -18 332 -34 c 128,-1,23
 320 -50 320 -50 318 -60 c 2,24,-1
 315 -69 l 1,25,26
 351 -81 351 -81 380 -104 c 128,-1,27
 409 -127 409 -127 420 -144 c 2,28,-1
 432 -160 l 1,29,-1
 432 407 l 2,30,31
 432 477 432 477 388.5 513.5 c 128,-1,32
 345 550 345 550 281 550 c 0,33,34
 222 550 222 550 171.5 519.5 c 128,-1,35
 121 489 121 489 106 436 c 1,36,-1
 278 436 l 1,37,-1
 278 392 l 1,38,-1
 230 392 l 2,39,40
 217 392 217 392 207.5 386.5 c 128,-1,41
 198 381 198 381 193.5 375 c 128,-1,42
 189 369 189 369 186.5 360 c 128,-1,43
 184 351 184 351 184 347.5 c 128,-1,44
 184 344 184 344 184 341 c 2,45,-1
 184 80 l 2,46,47
 184 40 184 40 160 16 c 128,-1,48
 136 -8 136 -8 100 -8 c 0,49,50
 60 -8 60 -8 38 17.5 c 128,-1,51
 16 43 16 43 16 77 c 0,52,53
 16 112 16 112 38 137.5 c 128,-1,54
 60 163 60 163 100 163 c 2,55,-1
 106 163 l 1,56,-1
 106 332 l 2,57,58
 106 352 106 352 114 367 c 128,-1,59
 122 382 122 382 130 387 c 2,60,-1
 138 392 l 1,61,-1
 54 392 l 1,62,63
 57 490 57 490 127 544.5 c 128,-1,64
 197 599 197 599 291 599 c 0,65,66
 381 599 381 599 445.5 548.5 c 128,-1,67
 510 498 510 498 510 407 c 2,68,-1
 510 -241 l 1,0,-1
100 32 m 128,-1,70
 121 32 121 32 133 45 c 128,-1,71
 145 58 145 58 145 76 c 0,72,73
 145 95 145 95 133 108 c 128,-1,74
 121 121 121 121 100 121 c 128,-1,75
 79 121 79 121 67 108 c 128,-1,76
 55 95 55 95 55 76 c 0,77,78
 55 58 55 58 67 45 c 128,-1,69
 79 32 79 32 100 32 c 128,-1,70
263 -95 m 1,79,80
 228 -83 228 -83 189 -83 c 0,81,82
 126 -83 126 -83 126 -126 c 128,-1,83
 126 -169 126 -169 184 -169 c 0,84,85
 216 -169 216 -169 235.5 -146 c 128,-1,86
 255 -123 255 -123 263 -95 c 1,79,80
EndSplineSet
EndChar

StartChar: uni0E0F
Encoding: 3599 3599 226
Width: 612
GlyphClass: 2
Flags: W
AnchorPoint: "Anchor-0" 510 -246 basechar 0
LayerCount: 2
Fore
SplineSet
100 32 m 128,-1,1
 121 32 121 32 133 45 c 128,-1,2
 145 58 145 58 145 76 c 0,3,4
 145 95 145 95 133 108 c 128,-1,5
 121 121 121 121 100 121 c 128,-1,6
 79 121 79 121 67 108 c 128,-1,7
 55 95 55 95 55 76 c 0,8,9
 55 58 55 58 67 45 c 128,-1,0
 79 32 79 32 100 32 c 128,-1,1
137 -129 m 1,10,11
 108 -111 108 -111 81 -111 c 0,12,13
 22 -111 22 -111 22 -154 c 0,14,15
 22 -171 22 -171 34 -184.5 c 128,-1,16
 46 -198 46 -198 71 -198 c 0,17,18
 94 -198 94 -198 106 -184 c 128,-1,19
 118 -170 118 -170 137 -129 c 1,10,11
172 -157 m 1,20,21
 163 -175 163 -175 156 -186.5 c 128,-1,22
 149 -198 149 -198 136.5 -212.5 c 128,-1,23
 124 -227 124 -227 106 -234 c 128,-1,24
 88 -241 88 -241 66 -241 c 0,25,26
 21 -241 21 -241 -0.5 -212.5 c 128,-1,27
 -22 -184 -22 -184 -22 -155 c 0,28,29
 -22 -113 -22 -113 8 -90.5 c 128,-1,30
 38 -68 38 -68 81 -68 c 0,31,32
 119 -68 119 -68 155 -89 c 1,33,34
 179 -44 179 -44 223 -26 c 1,35,-1
 252 -54 l 1,36,37
 213 -70 213 -70 192 -115 c 1,38,39
 235 -151 235 -151 249 -187 c 1,40,41
 264 -152 264 -152 291 -133.5 c 128,-1,42
 318 -115 318 -115 349 -115 c 0,43,44
 398 -115 398 -115 432 -155 c 1,45,-1
 432 407 l 2,46,47
 432 477 432 477 388.5 513.5 c 128,-1,48
 345 550 345 550 281 550 c 0,49,50
 222 550 222 550 171.5 519.5 c 128,-1,51
 121 489 121 489 106 436 c 1,52,-1
 278 436 l 1,53,-1
 278 392 l 1,54,-1
 230 392 l 2,55,56
 210 392 210 392 198.5 379.5 c 128,-1,57
 187 367 187 367 185.5 358 c 128,-1,58
 184 349 184 349 184 341 c 2,59,-1
 184 80 l 2,60,61
 184 40 184 40 160 16 c 128,-1,62
 136 -8 136 -8 100 -8 c 0,63,64
 60 -8 60 -8 37.5 17.5 c 128,-1,65
 15 43 15 43 15 78 c 128,-1,66
 15 113 15 113 37.5 138 c 128,-1,67
 60 163 60 163 100 163 c 2,68,-1
 106 163 l 1,69,-1
 106 332 l 2,70,71
 106 354 106 354 114.5 369 c 128,-1,72
 123 384 123 384 132 388 c 2,73,-1
 140 392 l 1,74,-1
 54 392 l 1,75,76
 57 490 57 490 127 544.5 c 128,-1,77
 197 599 197 599 291 599 c 0,78,79
 381 599 381 599 445.5 548.5 c 128,-1,80
 510 498 510 498 510 407 c 2,81,-1
 510 -241 l 1,82,-1
 436 -241 l 1,83,84
 422 -203 422 -203 398.5 -183 c 128,-1,85
 375 -163 375 -163 349 -163 c 128,-1,86
 323 -163 323 -163 301.5 -183 c 128,-1,87
 280 -203 280 -203 270 -240 c 1,88,-1
 224 -240 l 1,89,90
 218 -198 218 -198 172 -157 c 1,20,21
EndSplineSet
EndChar

StartChar: uni0E10
Encoding: 3600 3600 227
Width: 508
GlyphClass: 2
Flags: W
LayerCount: 2
Fore
SplineSet
453 582 m 0,0,1
 453 576 453 576 448 563.5 c 128,-1,2
 443 551 443 551 432.5 534 c 128,-1,3
 422 517 422 517 398 504.5 c 128,-1,4
 374 492 374 492 342 492 c 0,5,6
 316 492 316 492 254 511 c 128,-1,7
 192 530 192 530 156 530 c 0,8,9
 104 530 104 530 81 476 c 1,10,-1
 358 405 l 2,11,12
 407 393 407 393 407 332 c 2,13,-1
 407 106 l 2,14,15
 407 55 407 55 377.5 23.5 c 128,-1,16
 348 -8 348 -8 292 -8 c 0,17,18
 244 -8 244 -8 211 26 c 128,-1,19
 178 60 178 60 178 106 c 2,20,-1
 178 198 l 1,21,22
 162 190 162 190 138 190 c 0,23,24
 100 190 100 190 77 215 c 128,-1,25
 54 240 54 240 54 276 c 0,26,27
 54 307 54 307 76.5 332.5 c 128,-1,28
 99 358 99 358 138 358 c 0,29,30
 196 358 196 358 224.5 333.5 c 128,-1,31
 253 309 253 309 253 270 c 2,32,-1
 253 78 l 2,33,34
 253 61 253 61 263.5 48 c 128,-1,35
 274 35 274 35 292 35 c 128,-1,36
 310 35 310 35 320 48 c 128,-1,37
 330 61 330 61 330 77 c 2,38,-1
 330 321 l 2,39,40
 330 346 330 346 324 358 c 128,-1,41
 318 370 318 370 301 374 c 2,42,-1
 28 443 l 1,43,44
 35 465 35 465 38.5 475 c 128,-1,45
 42 485 42 485 55.5 512.5 c 128,-1,46
 69 540 69 540 83.5 555.5 c 128,-1,47
 98 571 98 571 123.5 584.5 c 128,-1,48
 149 598 149 598 179 598 c 0,49,50
 204 598 204 598 275 580.5 c 128,-1,51
 346 563 346 563 377 563 c 0,52,53
 396 563 396 563 409.5 567.5 c 128,-1,54
 423 572 423 572 428 577 c 128,-1,55
 433 582 433 582 438 586.5 c 128,-1,56
 443 591 443 591 447 591 c 0,57,58
 453 591 453 591 453 582 c 0,0,1
138 229 m 128,-1,60
 159 229 159 229 171 242.5 c 128,-1,61
 183 256 183 256 183 274 c 128,-1,62
 183 292 183 292 171 305.5 c 128,-1,63
 159 319 159 319 138 319 c 128,-1,64
 117 319 117 319 105.5 305.5 c 128,-1,65
 94 292 94 292 94 274 c 128,-1,66
 94 256 94 256 105.5 242.5 c 128,-1,59
 117 229 117 229 138 229 c 128,-1,60
300 -192 m 0,67,68
 269 -192 269 -192 249.5 -171.5 c 128,-1,69
 230 -151 230 -151 230 -120 c 0,70,71
 230 -90 230 -90 249 -68 c 128,-1,72
 268 -46 268 -46 303 -46 c 0,73,74
 398 -46 398 -46 407 -131 c 1,75,-1
 407 -218 l 2,76,77
 407 -241 407 -241 395 -258.5 c 128,-1,78
 383 -276 383 -276 355 -276 c 2,79,-1
 174 -276 l 1,80,-1
 174 -226 l 2,81,82
 174 -180 174 -180 149 -149 c 1,83,84
 149 -150 149 -150 149.5 -153 c 128,-1,85
 150 -156 150 -156 150 -158 c 0,86,87
 150 -173 150 -173 146 -188 c 128,-1,88
 142 -203 142 -203 125 -218 c 128,-1,89
 108 -233 108 -233 80 -233 c 0,90,91
 45 -233 45 -233 29 -208.5 c 128,-1,92
 13 -184 13 -184 13 -163 c 0,93,94
 13 -136 13 -136 33.5 -115 c 128,-1,95
 54 -94 54 -94 88 -94 c 0,96,97
 100 -94 100 -94 114 -97 c 1,98,99
 114 -69 114 -69 123 -57 c 1,100,-1
 158 -61 l 1,101,102
 148 -74 148 -74 148 -90 c 2,103,-1
 152 -111 l 1,104,105
 173 -119 173 -119 187.5 -136 c 128,-1,106
 202 -153 202 -153 207 -173 c 128,-1,107
 212 -193 212 -193 213.5 -204 c 128,-1,108
 215 -215 215 -215 215 -223 c 1,109,-1
 298 -223 l 2,110,111
 308 -223 308 -223 317 -217 c 128,-1,112
 326 -211 326 -211 326 -201 c 2,113,-1
 326 -186 l 2,114,115
 325 -186 325 -186 322 -187.5 c 128,-1,116
 319 -189 319 -189 313 -190.5 c 128,-1,117
 307 -192 307 -192 300 -192 c 0,67,68
303 -157 m 0,118,119
 319 -157 319 -157 328.5 -146 c 128,-1,120
 338 -135 338 -135 338 -120 c 128,-1,121
 338 -105 338 -105 328.5 -94 c 128,-1,122
 319 -83 319 -83 303 -83 c 0,123,124
 285 -83 285 -83 275 -94 c 128,-1,125
 265 -105 265 -105 265 -120 c 128,-1,126
 265 -135 265 -135 275 -146 c 128,-1,127
 285 -157 285 -157 303 -157 c 0,118,119
114 -132 m 1,128,129
 92 -127 92 -127 77 -127 c 0,130,131
 62 -128 62 -128 53.5 -138.5 c 128,-1,132
 45 -149 45 -149 45 -163 c 128,-1,133
 45 -177 45 -177 54.5 -187.5 c 128,-1,134
 64 -198 64 -198 80 -198 c 0,135,136
 95 -198 95 -198 105.5 -184 c 128,-1,137
 116 -170 116 -170 116 -148 c 0,138,139
 116 -144 116 -144 114 -132 c 1,128,129
EndSplineSet
Substitution2: "Single Substitution lookup 4 subtable" uni0E10.descless
Substitution2: "'ccmp' Glyph Composition/Decomposition in Thai lookup 2 subtable" uni0E10.descless
EndChar

StartChar: uni0E11
Encoding: 3601 3601 228
Width: 780
GlyphClass: 2
Flags: W
LayerCount: 2
Fore
SplineSet
287 461 m 2,0,1
 287 524 287 524 261 524 c 1,2,-1
 189 452 l 1,3,-1
 118 524 l 1,4,5
 98 524 98 524 84.5 500.5 c 128,-1,6
 71 477 71 477 71 437 c 0,7,8
 71 421 71 421 72 413 c 1,9,10
 86 433 86 433 121 433 c 0,11,12
 158 433 158 433 178.5 410.5 c 128,-1,13
 199 388 199 388 199 357 c 128,-1,14
 199 326 199 326 178 303 c 128,-1,15
 157 280 157 280 120 280 c 0,16,17
 70 280 70 280 46.5 322.5 c 128,-1,18
 23 365 23 365 23 426 c 0,19,20
 23 496 23 496 49 538 c 128,-1,21
 75 580 75 580 118 593 c 1,22,-1
 189 515 l 1,23,-1
 263 591 l 1,24,25
 312 588 312 588 339.5 553 c 128,-1,26
 367 518 367 518 367 461 c 2,27,-1
 367 184 l 1,28,-1
 450 498 l 2,29,30
 459 544 459 544 490.5 568.5 c 128,-1,31
 522 593 522 593 562 593 c 0,32,33
 611 593 611 593 642.5 559.5 c 128,-1,34
 674 526 674 526 674 464 c 2,35,-1
 674 0 l 1,36,-1
 596 0 l 1,37,-1
 596 468 l 2,38,39
 596 531 596 531 546 531 c 0,40,41
 526 531 526 531 508.5 518 c 128,-1,42
 491 505 491 505 484 482 c 2,43,-1
 362 0 l 1,44,-1
 287 0 l 1,45,-1
 287 461 l 2,0,1
121 312 m 0,46,47
 142 312 142 312 154 325 c 128,-1,48
 166 338 166 338 166 356 c 0,49,50
 166 373 166 373 154 386 c 128,-1,51
 142 399 142 399 121 399 c 0,52,53
 101 399 101 399 90 386.5 c 128,-1,54
 79 374 79 374 79 356 c 128,-1,55
 79 338 79 338 90 325 c 128,-1,56
 101 312 101 312 121 312 c 0,46,47
EndSplineSet
EndChar

StartChar: uni0E12
Encoding: 3602 3602 229
Width: 801
GlyphClass: 2
Flags: W
LayerCount: 2
Fore
SplineSet
247 293 m 0,0,1
 272 293 272 293 285.5 308 c 128,-1,2
 299 323 299 323 299 344 c 128,-1,3
 299 365 299 365 285.5 380 c 128,-1,4
 272 395 272 395 247 395 c 0,5,6
 224 395 224 395 211.5 380 c 128,-1,7
 199 365 199 365 199 344 c 128,-1,8
 199 323 199 323 211.5 308 c 128,-1,9
 224 293 224 293 247 293 c 0,0,1
361 86 m 0,10,11
 361 66 361 66 370 55 c 128,-1,12
 379 44 379 44 390 44 c 0,13,14
 406 44 406 44 406 63 c 2,15,-1
 406 151 l 1,16,17
 386 151 386 151 373.5 131 c 128,-1,18
 361 111 361 111 361 86 c 0,10,11
347 344 m 0,19,20
 347 312 347 312 330 281 c 128,-1,21
 313 250 313 250 288.5 226.5 c 128,-1,22
 264 203 264 203 239 181 c 128,-1,23
 214 159 214 159 197 134 c 128,-1,24
 180 109 180 109 180 86 c 2,25,-1
 180 0 l 1,26,-1
 101 0 l 1,27,-1
 101 94 l 2,28,29
 101 162 101 162 69 254 c 128,-1,30
 37 346 37 346 37 384 c 0,31,32
 37 436 37 436 50.5 476 c 128,-1,33
 64 516 64 516 87 539 c 128,-1,34
 110 562 110 562 130 574.5 c 128,-1,35
 150 587 150 587 172 594 c 1,36,-1
 260 524 l 1,37,-1
 346 594 l 1,38,39
 484 563 484 563 484 396 c 2,40,-1
 484 194 l 1,41,42
 488 193 488 193 495 190 c 128,-1,43
 502 187 502 187 521 177 c 128,-1,44
 540 167 540 167 556 155.5 c 128,-1,45
 572 144 572 144 589.5 126 c 128,-1,46
 607 108 607 108 616 88 c 1,47,-1
 616 530 l 1,48,-1
 667 588 l 2,49,50
 672 594 672 594 681 594 c 0,51,52
 694 594 694 594 694 567 c 2,53,-1
 694 0 l 1,54,-1
 614 0 l 1,55,56
 609 41 609 41 566 87.5 c 128,-1,57
 523 134 523 134 484 151 c 1,58,-1
 484 81 l 2,59,60
 484 39 484 39 466.5 15.5 c 128,-1,61
 449 -8 449 -8 402 -8 c 0,62,63
 358 -8 358 -8 334.5 20 c 128,-1,64
 311 48 311 48 311 88 c 0,65,66
 311 129 311 129 336 161.5 c 128,-1,67
 361 194 361 194 406 197 c 1,68,-1
 406 401 l 2,69,70
 406 463 406 463 394.5 492 c 128,-1,71
 383 521 383 521 349 538 c 1,72,-1
 260 468 l 1,73,-1
 167 538 l 1,74,75
 84 500 84 500 84 384 c 0,76,77
 84 365 84 365 96 329.5 c 128,-1,78
 108 294 108 294 121 272 c 0,79,80
 141 237 141 237 150.5 213 c 128,-1,81
 160 189 160 189 162 178 c 128,-1,82
 164 167 164 167 164 166 c 1,83,84
 170 179 170 179 193 200.5 c 128,-1,85
 216 222 216 222 235 237.5 c 128,-1,86
 254 253 254 253 254 256 c 0,87,88
 254 257 254 257 252 257 c 0,89,90
 208 257 208 257 184 282.5 c 128,-1,91
 160 308 160 308 160 346 c 0,92,93
 160 380 160 380 183.5 407.5 c 128,-1,94
 207 435 207 435 247 435 c 0,95,96
 290 435 290 435 318.5 410 c 128,-1,97
 347 385 347 385 347 344 c 0,19,20
EndSplineSet
EndChar

StartChar: uni0E13
Encoding: 3603 3603 230
Width: 800
GlyphClass: 2
Flags: W
LayerCount: 2
Fore
SplineSet
298 78 m 0,0,1
 298 43 298 43 273.5 17.5 c 128,-1,2
 249 -8 249 -8 205 -8 c 0,3,4
 173 -8 173 -8 150 4.5 c 128,-1,5
 127 17 127 17 115.5 36.5 c 128,-1,6
 104 56 104 56 99.5 74 c 128,-1,7
 95 92 95 92 95 109 c 2,8,-1
 95 326 l 2,9,10
 95 348 95 348 104 364.5 c 128,-1,11
 113 381 113 381 122 386 c 2,12,-1
 131 392 l 1,13,-1
 45 392 l 1,14,15
 47 487 47 487 115 542.5 c 128,-1,16
 183 598 183 598 271 598 c 0,17,18
 352 598 352 598 412 547.5 c 128,-1,19
 472 497 472 497 472 416 c 2,20,-1
 472 101 l 2,21,22
 474 104 474 104 477 108.5 c 128,-1,23
 480 113 480 113 491.5 125 c 128,-1,24
 503 137 503 137 516.5 146 c 128,-1,25
 530 155 530 155 553 162.5 c 128,-1,26
 576 170 576 170 601 170 c 0,27,28
 604 170 604 170 609 169.5 c 128,-1,29
 614 169 614 169 616 169 c 2,30,-1
 616 530 l 1,31,-1
 665 588 l 2,32,33
 670 594 670 594 680 594 c 0,34,35
 694 594 694 594 694 567 c 2,36,-1
 694 181 l 2,37,38
 694 176 694 176 691 170.5 c 128,-1,39
 688 165 688 165 685 162 c 2,40,-1
 682 160 l 1,41,42
 709 154 709 154 724 130 c 128,-1,43
 739 106 739 106 739 77 c 0,44,45
 739 42 739 42 717.5 17 c 128,-1,46
 696 -8 696 -8 656 -8 c 0,47,48
 611 -8 611 -8 591 19 c 128,-1,49
 571 46 571 46 571 74 c 0,50,51
 571 88 571 88 575.5 102.5 c 128,-1,52
 580 117 580 117 585 124 c 2,53,-1
 590 132 l 1,54,55
 506 118 506 118 473 0 c 1,56,-1
 392 0 l 1,57,-1
 392 410 l 2,58,59
 392 478 392 478 354 512.5 c 128,-1,60
 316 547 316 547 259 547 c 0,61,62
 203 547 203 547 155.5 516 c 128,-1,63
 108 485 108 485 97 436 c 1,64,-1
 267 436 l 1,65,-1
 267 392 l 1,66,-1
 218 392 l 2,67,68
 199 392 199 392 188.5 378 c 128,-1,69
 178 364 178 364 176.5 354.5 c 128,-1,70
 175 345 175 345 175 336 c 2,71,-1
 175 155 l 1,72,73
 196 162 196 162 216 162 c 0,74,75
 254 162 254 162 276 137 c 128,-1,76
 298 112 298 112 298 78 c 0,0,1
656 32 m 0,77,78
 677 32 677 32 689 45 c 128,-1,79
 701 58 701 58 701 76 c 0,80,81
 701 95 701 95 689 108 c 128,-1,82
 677 121 677 121 656 121 c 0,83,84
 634 121 634 121 622 108 c 128,-1,85
 610 95 610 95 610 76 c 0,86,87
 610 58 610 58 622 45 c 128,-1,88
 634 32 634 32 656 32 c 0,77,78
212 32 m 0,89,90
 235 32 235 32 247 45 c 128,-1,91
 259 58 259 58 259 76 c 0,92,93
 259 95 259 95 247 108 c 128,-1,94
 235 121 235 121 212 121 c 0,95,96
 191 121 191 121 179 108 c 128,-1,97
 167 95 167 95 167 76 c 0,98,99
 167 58 167 58 179 45 c 128,-1,100
 191 32 191 32 212 32 c 0,89,90
EndSplineSet
EndChar

StartChar: uni0E14
Encoding: 3604 3604 231
Width: 609
GlyphClass: 2
Flags: W
LayerCount: 2
Fore
SplineSet
366 358 m 0,0,1
 366 326 366 326 348 294 c 128,-1,2
 330 262 330 262 304 236 c 128,-1,3
 278 210 278 210 252 185.5 c 128,-1,4
 226 161 226 161 208 135 c 128,-1,5
 190 109 190 109 190 86 c 2,6,-1
 190 0 l 1,7,-1
 114 0 l 1,8,-1
 114 94 l 2,9,10
 114 162 114 162 82.5 254 c 128,-1,11
 51 346 51 346 51 384 c 0,12,13
 51 437 51 437 72 480 c 128,-1,14
 93 523 93 523 126.5 547.5 c 128,-1,15
 160 572 160 572 197 585 c 128,-1,16
 234 598 234 598 270 598 c 0,17,18
 301 598 301 598 330.5 593.5 c 128,-1,19
 360 589 360 589 393 575 c 128,-1,20
 426 561 426 561 450.5 539.5 c 128,-1,21
 475 518 475 518 491 481 c 128,-1,22
 507 444 507 444 507 396 c 2,23,-1
 507 0 l 1,24,-1
 430 0 l 1,25,-1
 430 396 l 2,26,27
 430 463 430 463 391 507 c 128,-1,28
 352 551 352 551 270 551 c 0,29,30
 245 551 245 551 217.5 543 c 128,-1,31
 190 535 190 535 162 517.5 c 128,-1,32
 134 500 134 500 116 465.5 c 128,-1,33
 98 431 98 431 98 384 c 0,34,35
 98 342 98 342 135 270.5 c 128,-1,36
 172 199 172 199 178 166 c 1,37,38
 185 182 185 182 212 209 c 128,-1,39
 239 236 239 236 258.5 254.5 c 128,-1,40
 278 273 278 273 273 273 c 0,41,42
 230 272 230 272 205 297 c 128,-1,43
 180 322 180 322 180 361 c 128,-1,44
 180 400 180 400 204 424.5 c 128,-1,45
 228 449 228 449 269 449 c 0,46,47
 311 449 311 449 338.5 424 c 128,-1,48
 366 399 366 399 366 358 c 0,0,1
269 309 m 0,49,50
 292 309 292 309 305.5 324 c 128,-1,51
 319 339 319 339 319 359 c 128,-1,52
 319 379 319 379 305.5 394 c 128,-1,53
 292 409 292 409 269 409 c 0,54,55
 244 409 244 409 230.5 394 c 128,-1,56
 217 379 217 379 217 359 c 128,-1,57
 217 339 217 339 230.5 324 c 128,-1,58
 244 309 244 309 269 309 c 0,49,50
EndSplineSet
EndChar

StartChar: uni0E15
Encoding: 3605 3605 232
Width: 609
GlyphClass: 2
Flags: W
LayerCount: 2
Fore
SplineSet
358 343 m 0,0,1
 358 311 358 311 340.5 279 c 128,-1,2
 323 247 323 247 298.5 222 c 128,-1,3
 274 197 274 197 249.5 173 c 128,-1,4
 225 149 225 149 207.5 123 c 128,-1,5
 190 97 190 97 190 74 c 2,6,-1
 190 0 l 1,7,-1
 114 0 l 1,8,-1
 114 94 l 2,9,10
 114 162 114 162 82.5 254 c 128,-1,11
 51 346 51 346 51 384 c 0,12,13
 51 542 51 542 190 594 c 1,14,-1
 278 524 l 1,15,-1
 364 594 l 1,16,17
 387 590 387 590 409 579 c 128,-1,18
 431 568 431 568 454.5 546.5 c 128,-1,19
 478 525 478 525 492.5 486.5 c 128,-1,20
 507 448 507 448 507 396 c 2,21,-1
 507 0 l 1,22,-1
 430 0 l 1,23,-1
 430 416 l 2,24,25
 430 472 430 472 416 495.5 c 128,-1,26
 402 519 402 519 367 538 c 1,27,-1
 278 468 l 1,28,-1
 186 538 l 1,29,30
 155 529 155 529 126.5 487.5 c 128,-1,31
 98 446 98 446 98 384 c 0,32,33
 98 364 98 364 109 328.5 c 128,-1,34
 120 293 120 293 134 272 c 0,35,36
 156 233 156 233 180 176 c 0,37,38
 182 171 182 171 183 174 c 0,39,40
 189 186 189 186 211.5 207.5 c 128,-1,41
 234 229 234 229 250 243.5 c 128,-1,42
 266 258 266 258 261 258 c 0,43,44
 220 258 220 258 194.5 282 c 128,-1,45
 169 306 169 306 169 347 c 128,-1,46
 169 388 169 388 194.5 411.5 c 128,-1,47
 220 435 220 435 261 435 c 128,-1,48
 302 435 302 435 330 409.5 c 128,-1,49
 358 384 358 384 358 343 c 0,0,1
261 293 m 0,50,51
 285 293 285 293 298.5 308 c 128,-1,52
 312 323 312 323 312 344 c 128,-1,53
 312 365 312 365 298.5 380 c 128,-1,54
 285 395 285 395 261 395 c 0,55,56
 238 395 238 395 224.5 380 c 128,-1,57
 211 365 211 365 211 344 c 128,-1,58
 211 323 211 323 224.5 308 c 128,-1,59
 238 293 238 293 261 293 c 0,50,51
EndSplineSet
EndChar

StartChar: uni0E16
Encoding: 3606 3606 233
Width: 602
GlyphClass: 2
Flags: W
LayerCount: 2
Fore
SplineSet
297 79 m 0,0,1
 297 43 297 43 272.5 17.5 c 128,-1,2
 248 -8 248 -8 205 -8 c 0,3,4
 173 -8 173 -8 149.5 4.5 c 128,-1,5
 126 17 126 17 115 36.5 c 128,-1,6
 104 56 104 56 99 74 c 128,-1,7
 94 92 94 92 94 109 c 2,8,-1
 94 326 l 2,9,10
 94 348 94 348 102 364.5 c 128,-1,11
 110 381 110 381 118 386 c 2,12,-1
 127 392 l 1,13,-1
 43 392 l 1,14,15
 44 488 44 488 115 543.5 c 128,-1,16
 186 599 186 599 281 599 c 0,17,18
 365 599 365 599 431.5 549.5 c 128,-1,19
 498 500 498 500 498 416 c 2,20,-1
 498 0 l 1,21,-1
 421 0 l 1,22,-1
 421 410 l 2,23,24
 420 480 420 480 377.5 515 c 128,-1,25
 335 550 335 550 270 550 c 0,26,27
 210 550 210 550 159.5 518.5 c 128,-1,28
 109 487 109 487 95 436 c 1,29,-1
 266 436 l 1,30,-1
 266 392 l 1,31,-1
 217 392 l 2,32,33
 199 392 199 392 188 379 c 128,-1,34
 177 366 177 366 175.5 356 c 128,-1,35
 174 346 174 346 174 336 c 2,36,-1
 174 155 l 1,37,38
 195 162 195 162 215 162 c 0,39,40
 253 162 253 162 275 137.5 c 128,-1,41
 297 113 297 113 297 79 c 0,0,1
212 32 m 128,-1,43
 233 32 233 32 245.5 45 c 128,-1,44
 258 58 258 58 258 76 c 128,-1,45
 258 94 258 94 245.5 107.5 c 128,-1,46
 233 121 233 121 212 121 c 128,-1,47
 191 121 191 121 178.5 107.5 c 128,-1,48
 166 94 166 94 166 76 c 128,-1,49
 166 58 166 58 178.5 45 c 128,-1,42
 191 32 191 32 212 32 c 128,-1,43
EndSplineSet
EndChar

StartChar: uni0E17
Encoding: 3607 3607 234
Width: 655
GlyphClass: 2
Flags: W
LayerCount: 2
Fore
SplineSet
551 0 m 1,0,-1
 475 0 l 1,1,-1
 475 472 l 2,2,3
 475 513 475 513 451 527.5 c 128,-1,4
 427 542 427 542 399 528.5 c 128,-1,5
 371 515 371 515 361 485 c 2,6,-1
 238 0 l 1,7,-1
 166 0 l 1,8,-1
 166 427 l 1,9,10
 154 420 154 420 124 420 c 0,11,12
 82 420 82 420 58.5 445.5 c 128,-1,13
 35 471 35 471 35 507 c 128,-1,14
 35 543 35 543 60 569.5 c 128,-1,15
 85 596 85 596 131 596 c 0,16,17
 164 596 164 596 188 585.5 c 128,-1,18
 212 575 212 575 222 564 c 128,-1,19
 232 553 232 553 237.5 533.5 c 128,-1,20
 243 514 243 514 243 509.5 c 128,-1,21
 243 505 243 505 243 494 c 2,22,-1
 243 177 l 1,23,-1
 327 501 l 2,24,25
 339 547 339 547 371 571.5 c 128,-1,26
 403 596 403 596 442 596 c 0,27,28
 490 596 490 596 520.5 563.5 c 128,-1,29
 551 531 551 531 551 467 c 2,30,-1
 551 0 l 1,0,-1
123 457 m 0,31,32
 146 457 146 457 159.5 472 c 128,-1,33
 173 487 173 487 173 508 c 0,34,35
 173 528 173 528 159.5 543 c 128,-1,36
 146 558 146 558 123 558 c 0,37,38
 98 558 98 558 84.5 543 c 128,-1,39
 71 528 71 528 71 508 c 0,40,41
 71 487 71 487 84.5 472 c 128,-1,42
 98 457 98 457 123 457 c 0,31,32
EndSplineSet
EndChar

StartChar: uni0E18
Encoding: 3608 3608 235
Width: 508
GlyphClass: 2
Flags: W
LayerCount: 2
Fore
SplineSet
342 492 m 0,0,1
 316 492 316 492 254 511 c 128,-1,2
 192 530 192 530 156 530 c 0,3,4
 103 529 103 529 81 476 c 1,5,-1
 358 405 l 2,6,7
 407 393 407 393 407 332 c 2,8,-1
 407 108 l 2,9,10
 407 0 407 0 306 0 c 2,11,-1
 52 0 l 1,12,-1
 52 45 l 1,13,-1
 97 45 l 1,14,-1
 97 364 l 1,15,-1
 175 364 l 1,16,-1
 175 45 l 1,17,-1
 250 45 l 2,18,19
 330 45 330 45 330 114 c 2,20,-1
 330 321 l 2,21,22
 330 346 330 346 324 358 c 128,-1,23
 318 370 318 370 301 374 c 2,24,-1
 28 443 l 1,25,26
 35 465 35 465 38.5 475 c 128,-1,27
 42 485 42 485 55.5 512.5 c 128,-1,28
 69 540 69 540 83.5 555.5 c 128,-1,29
 98 571 98 571 123.5 584.5 c 128,-1,30
 149 598 149 598 179 598 c 0,31,32
 208 598 208 598 275 581 c 128,-1,33
 342 564 342 564 375 564 c 0,34,35
 400 564 400 564 415 571 c 128,-1,36
 430 578 430 578 437 584.5 c 128,-1,37
 444 591 444 591 447 591 c 0,38,39
 453 591 453 591 453 582 c 0,40,41
 453 576 453 576 448 563.5 c 128,-1,42
 443 551 443 551 432.5 534 c 128,-1,43
 422 517 422 517 398 504.5 c 128,-1,44
 374 492 374 492 342 492 c 0,0,1
EndSplineSet
EndChar

StartChar: uni0E19
Encoding: 3609 3609 236
Width: 663
GlyphClass: 2
Flags: W
LayerCount: 2
Fore
SplineSet
502 -8 m 0,0,1
 458 -8 458 -8 438 21 c 128,-1,2
 418 50 418 50 418 78 c 0,3,4
 418 92 418 92 422.5 105 c 128,-1,5
 427 118 427 118 432 124 c 2,6,-1
 436 131 l 1,7,8
 308 131 308 131 238 0 c 1,9,-1
 166 0 l 1,10,-1
 166 427 l 1,11,12
 154 418 154 418 119 418 c 0,13,14
 79 418 79 418 56 444.5 c 128,-1,15
 33 471 33 471 33 507 c 0,16,17
 33 544 33 544 58.5 571 c 128,-1,18
 84 598 84 598 129 598 c 0,19,20
 167 598 167 598 192 586.5 c 128,-1,21
 217 575 217 575 227 556.5 c 128,-1,22
 237 538 237 538 240 525 c 128,-1,23
 243 512 243 512 243 499 c 2,24,-1
 243 77 l 1,25,26
 249 88 249 88 261 100.5 c 128,-1,27
 273 113 273 113 298 131 c 128,-1,28
 323 149 323 149 367.5 160.5 c 128,-1,29
 412 172 412 172 468 172 c 1,30,-1
 468 528 l 1,31,-1
 518 588 l 2,32,33
 522 594 522 594 532 594 c 0,34,35
 547 594 547 594 547 565 c 2,36,-1
 547 186 l 2,37,38
 547 180 547 180 542.5 174 c 128,-1,39
 538 168 538 168 534 166 c 2,40,-1
 530 163 l 1,41,42
 557 155 557 155 573 131 c 128,-1,43
 589 107 589 107 589 78 c 0,44,45
 589 43 589 43 566.5 17.5 c 128,-1,46
 544 -8 544 -8 502 -8 c 0,0,1
121 456 m 0,47,48
 145 456 145 456 158.5 471.5 c 128,-1,49
 172 487 172 487 172 507 c 128,-1,50
 172 527 172 527 158.5 542.5 c 128,-1,51
 145 558 145 558 121 558 c 0,52,53
 96 558 96 558 82.5 543 c 128,-1,54
 69 528 69 528 69 507 c 128,-1,55
 69 486 69 486 82.5 471 c 128,-1,56
 96 456 96 456 121 456 c 0,47,48
504 32 m 0,57,58
 527 32 527 32 539 45 c 128,-1,59
 551 58 551 58 551 76 c 0,60,61
 551 95 551 95 539 108 c 128,-1,62
 527 121 527 121 504 121 c 0,63,64
 483 121 483 121 471 108 c 128,-1,65
 459 95 459 95 459 76 c 0,66,67
 459 58 459 58 471 45 c 128,-1,68
 483 32 483 32 504 32 c 0,57,58
EndSplineSet
EndChar

StartChar: uni0E1A
Encoding: 3610 3610 237
Width: 649
GlyphClass: 2
Flags: W
LayerCount: 2
Fore
SplineSet
545 106 m 2,0,1
 545 66 545 66 520.5 33 c 128,-1,2
 496 0 496 0 441 0 c 2,3,-1
 111 0 l 1,4,-1
 111 45 l 1,5,-1
 166 45 l 1,6,-1
 166 425 l 1,7,8
 152 418 152 418 124 418 c 0,9,10
 80 418 80 418 55 444 c 128,-1,11
 30 470 30 470 30 505 c 0,12,13
 30 542 30 542 57 569 c 128,-1,14
 84 596 84 596 131 596 c 0,15,16
 161 596 161 596 183 588 c 128,-1,17
 205 580 205 580 216 569 c 128,-1,18
 227 558 227 558 233.5 543 c 128,-1,19
 240 528 240 528 241.5 518.5 c 128,-1,20
 243 509 243 509 243 499 c 2,21,-1
 243 45 l 1,22,-1
 399 45 l 2,23,24
 428 45 428 45 447.5 62 c 128,-1,25
 467 79 467 79 467 118 c 2,26,-1
 467 529 l 1,27,-1
 518 588 l 2,28,29
 522 594 522 594 532 594 c 0,30,31
 545 594 545 594 545 566 c 2,32,-1
 545 106 l 2,0,1
121 456 m 0,33,34
 145 456 145 456 158.5 471.5 c 128,-1,35
 172 487 172 487 172 507 c 128,-1,36
 172 527 172 527 158.5 542.5 c 128,-1,37
 145 558 145 558 121 558 c 0,38,39
 96 558 96 558 82.5 543 c 128,-1,40
 69 528 69 528 69 507 c 128,-1,41
 69 486 69 486 82.5 471 c 128,-1,42
 96 456 96 456 121 456 c 0,33,34
EndSplineSet
EndChar

StartChar: uni0E1B
Encoding: 3611 3611 238
Width: 665
GlyphClass: 2
Flags: W
AnchorPoint: "Anchor-1" 386 645 basechar 0
LayerCount: 2
Fore
SplineSet
561 106 m 2,0,1
 561 66 561 66 536 33 c 128,-1,2
 511 0 511 0 456 0 c 2,3,-1
 111 0 l 1,4,-1
 111 45 l 1,5,-1
 166 45 l 1,6,-1
 166 425 l 1,7,8
 152 418 152 418 124 418 c 0,9,10
 80 418 80 418 55 444 c 128,-1,11
 30 470 30 470 30 505 c 0,12,13
 30 542 30 542 57 569 c 128,-1,14
 84 596 84 596 131 596 c 0,15,16
 161 596 161 596 183 588 c 128,-1,17
 205 580 205 580 216 569 c 128,-1,18
 227 558 227 558 233.5 543 c 128,-1,19
 240 528 240 528 241.5 518.5 c 128,-1,20
 243 509 243 509 243 499 c 2,21,-1
 243 45 l 1,22,-1
 415 45 l 2,23,24
 444 45 444 45 463 62.5 c 128,-1,25
 482 80 482 80 482 118 c 2,26,-1
 482 911 l 1,27,-1
 533 969 l 2,28,29
 538 975 538 975 548 975 c 0,30,31
 561 975 561 975 561 948 c 2,32,-1
 561 106 l 2,0,1
121 456 m 0,33,34
 145 456 145 456 158.5 471.5 c 128,-1,35
 172 487 172 487 172 507 c 128,-1,36
 172 527 172 527 158.5 542.5 c 128,-1,37
 145 558 145 558 121 558 c 0,38,39
 96 558 96 558 82.5 543 c 128,-1,40
 69 528 69 528 69 507 c 128,-1,41
 69 486 69 486 82.5 471 c 128,-1,42
 96 456 96 456 121 456 c 0,33,34
EndSplineSet
EndChar

StartChar: uni0E1C
Encoding: 3612 3612 239
Width: 649
GlyphClass: 2
Flags: W
LayerCount: 2
Fore
SplineSet
209 598 m 0,0,1
 259 598 259 598 279 571.5 c 128,-1,2
 299 545 299 545 299 514 c 0,3,4
 299 479 299 479 277 453.5 c 128,-1,5
 255 428 255 428 217 428 c 0,6,7
 198 428 198 428 172 437 c 1,8,-1
 172 115 l 1,9,-1
 319 401 l 1,10,-1
 467 118 l 1,11,-1
 467 530 l 1,12,-1
 518 588 l 2,13,14
 524 594 524 594 533 594 c 0,15,16
 545 594 545 594 545 572 c 2,17,-1
 545 0 l 1,18,-1
 467 0 l 1,19,-1
 467 22 l 2,20,21
 467 31 467 31 465 38 c 128,-1,22
 463 45 463 45 459 51 c 128,-1,23
 455 57 455 57 455 58 c 2,24,-1
 319 316 l 1,25,-1
 183 58 l 2,26,27
 183 57 183 57 179.5 51.5 c 128,-1,28
 176 46 176 46 174 39 c 128,-1,29
 172 32 172 32 172 22 c 2,30,-1
 172 0 l 1,31,-1
 92 0 l 1,32,-1
 92 494 l 2,33,34
 92 535 92 535 119.5 566.5 c 128,-1,35
 147 598 147 598 209 598 c 0,0,1
218 466 m 0,36,37
 241 466 241 466 254 480.5 c 128,-1,38
 267 495 267 495 267 514 c 0,39,40
 267 534 267 534 254 548.5 c 128,-1,41
 241 563 241 563 218 563 c 0,42,43
 194 563 194 563 181 548.5 c 128,-1,44
 168 534 168 534 168 514 c 128,-1,45
 168 494 168 494 181 480 c 128,-1,46
 194 466 194 466 218 466 c 0,36,37
EndSplineSet
EndChar

StartChar: uni0E1D
Encoding: 3613 3613 240
Width: 665
GlyphClass: 2
Flags: W
AnchorPoint: "Anchor-1" 386 645 basechar 0
LayerCount: 2
Fore
SplineSet
209 598 m 0,0,1
 259 598 259 598 279 571.5 c 128,-1,2
 299 545 299 545 299 514 c 0,3,4
 299 479 299 479 277 453.5 c 128,-1,5
 255 428 255 428 217 428 c 0,6,7
 198 428 198 428 172 437 c 1,8,-1
 172 117 l 1,9,-1
 327 407 l 1,10,-1
 482 118 l 1,11,-1
 482 902 l 1,12,-1
 533 960 l 2,13,14
 539 966 539 966 546 966 c 0,15,16
 561 966 561 966 561 935 c 2,17,-1
 561 0 l 1,18,-1
 482 0 l 1,19,-1
 482 17 l 2,20,21
 482 26 482 26 480 33 c 128,-1,22
 478 40 478 40 474.5 46 c 128,-1,23
 471 52 471 52 470 54 c 2,24,-1
 327 326 l 1,25,-1
 183 54 l 2,26,27
 182 52 182 52 179 46.5 c 128,-1,28
 176 41 176 41 174 34 c 128,-1,29
 172 27 172 27 172 17 c 2,30,-1
 172 0 l 1,31,-1
 92 0 l 1,32,-1
 92 494 l 2,33,34
 92 535 92 535 119.5 566.5 c 128,-1,35
 147 598 147 598 209 598 c 0,0,1
218 466 m 0,36,37
 241 466 241 466 254 480.5 c 128,-1,38
 267 495 267 495 267 514 c 0,39,40
 267 534 267 534 254 548.5 c 128,-1,41
 241 563 241 563 218 563 c 0,42,43
 194 563 194 563 181 548.5 c 128,-1,44
 168 534 168 534 168 514 c 128,-1,45
 168 494 168 494 181 480 c 128,-1,46
 194 466 194 466 218 466 c 0,36,37
EndSplineSet
EndChar

StartChar: uni0E1E
Encoding: 3614 3614 241
Width: 723
GlyphClass: 2
Flags: W
LayerCount: 2
Fore
SplineSet
619 0 m 1,0,-1
 536 0 l 1,1,-1
 393 490 l 1,2,-1
 249 0 l 1,3,-1
 167 0 l 1,4,-1
 167 428 l 1,5,6
 156 420 156 420 126 420 c 0,7,8
 84 420 84 420 60 446 c 128,-1,9
 36 472 36 472 36 508 c 0,10,11
 36 545 36 545 61 571.5 c 128,-1,12
 86 598 86 598 132 598 c 0,13,14
 169 598 169 598 194 587 c 128,-1,15
 219 576 219 576 228.5 558.5 c 128,-1,16
 238 541 238 541 241 528.5 c 128,-1,17
 244 516 244 516 244 503 c 2,18,-1
 244 115 l 1,19,-1
 379 588 l 1,20,-1
 407 588 l 1,21,-1
 542 115 l 1,22,-1
 542 530 l 1,23,-1
 593 588 l 2,24,25
 599 594 599 594 607 594 c 0,26,27
 619 594 619 594 619 572 c 2,28,-1
 619 0 l 1,0,-1
123 459 m 0,29,30
 146 459 146 459 159.5 474 c 128,-1,31
 173 489 173 489 173 510 c 0,32,33
 173 530 173 530 159.5 545 c 128,-1,34
 146 560 146 560 123 560 c 0,35,36
 98 560 98 560 84.5 545 c 128,-1,37
 71 530 71 530 71 510 c 0,38,39
 71 489 71 489 84.5 474 c 128,-1,40
 98 459 98 459 123 459 c 0,29,30
EndSplineSet
EndChar

StartChar: uni0E1F
Encoding: 3615 3615 242
Width: 723
GlyphClass: 2
Flags: W
AnchorPoint: "Anchor-1" 444 645 basechar 0
LayerCount: 2
Fore
SplineSet
619 0 m 1,0,-1
 536 0 l 1,1,-1
 393 490 l 1,2,-1
 249 0 l 1,3,-1
 167 0 l 1,4,-1
 167 428 l 1,5,6
 156 420 156 420 126 420 c 0,7,8
 84 420 84 420 60 446 c 128,-1,9
 36 472 36 472 36 508 c 0,10,11
 36 545 36 545 61 571.5 c 128,-1,12
 86 598 86 598 132 598 c 0,13,14
 169 598 169 598 194 587 c 128,-1,15
 219 576 219 576 228.5 558.5 c 128,-1,16
 238 541 238 541 241 528.5 c 128,-1,17
 244 516 244 516 244 503 c 2,18,-1
 244 111 l 1,19,-1
 379 591 l 1,20,-1
 407 591 l 1,21,-1
 542 111 l 1,22,-1
 542 902 l 1,23,-1
 593 962 l 2,24,25
 598 967 598 967 604 967 c 0,26,27
 619 967 619 967 619 937 c 2,28,-1
 619 0 l 1,0,-1
123 459 m 0,29,30
 146 459 146 459 159.5 474 c 128,-1,31
 173 489 173 489 173 510 c 0,32,33
 173 530 173 530 159.5 545 c 128,-1,34
 146 560 146 560 123 560 c 0,35,36
 98 560 98 560 84.5 545 c 128,-1,37
 71 530 71 530 71 510 c 0,38,39
 71 489 71 489 84.5 474 c 128,-1,40
 98 459 98 459 123 459 c 0,29,30
EndSplineSet
EndChar

StartChar: uni0E20
Encoding: 3616 3616 243
Width: 619
GlyphClass: 2
Flags: W
LayerCount: 2
Fore
SplineSet
516 0 m 1,0,-1
 438 0 l 1,1,-1
 438 410 l 2,2,3
 438 478 438 478 395 513.5 c 128,-1,4
 352 549 352 549 289 549 c 0,5,6
 228 549 228 549 177 518.5 c 128,-1,7
 126 488 126 488 112 436 c 1,8,-1
 287 436 l 1,9,-1
 287 392 l 1,10,-1
 250 392 l 2,11,12
 206 392 206 392 206 341 c 2,13,-1
 206 83 l 2,14,15
 206 43 206 43 182.5 19 c 128,-1,16
 159 -5 159 -5 123 -5 c 0,17,18
 83 -5 83 -5 60.5 20.5 c 128,-1,19
 38 46 38 46 38 81 c 128,-1,20
 38 116 38 116 60.5 141 c 128,-1,21
 83 166 83 166 123 166 c 2,22,-1
 129 166 l 1,23,-1
 129 332 l 2,24,25
 129 353 129 353 137 368 c 128,-1,26
 145 383 145 383 153 388 c 2,27,-1
 161 392 l 1,28,-1
 60 392 l 1,29,30
 61 488 61 488 132.5 543.5 c 128,-1,31
 204 599 204 599 299 599 c 0,32,33
 386 599 386 599 451 549.5 c 128,-1,34
 516 500 516 500 516 416 c 2,35,-1
 516 0 l 1,0,-1
123 35 m 0,36,37
 144 35 144 35 156 48 c 128,-1,38
 168 61 168 61 168 80 c 0,39,40
 168 98 168 98 156 111 c 128,-1,41
 144 124 144 124 123 124 c 0,42,43
 101 124 101 124 88.5 111 c 128,-1,44
 76 98 76 98 76 80 c 128,-1,45
 76 62 76 62 88.5 48.5 c 128,-1,46
 101 35 101 35 123 35 c 0,36,37
EndSplineSet
EndChar

StartChar: uni0E21
Encoding: 3617 3617 244
Width: 646
GlyphClass: 2
Flags: W
LayerCount: 2
Fore
SplineSet
542 0 m 1,0,-1
 462 0 l 1,1,2
 441 36 441 36 411 64 c 128,-1,3
 381 92 381 92 352.5 107 c 128,-1,4
 324 122 324 122 299 131.5 c 128,-1,5
 274 141 274 141 259 144 c 2,6,-1
 244 147 l 1,7,-1
 244 86 l 2,8,9
 244 -5 244 -5 160 -5 c 0,10,11
 110 -5 110 -5 83 25.5 c 128,-1,12
 56 56 56 56 56 98 c 0,13,14
 56 143 56 143 85 176 c 128,-1,15
 114 209 114 209 164 209 c 2,16,-1
 166 209 l 1,17,-1
 166 428 l 1,18,19
 154 420 154 420 124 420 c 0,20,21
 82 420 82 420 58.5 446 c 128,-1,22
 35 472 35 472 35 508 c 0,23,24
 35 545 35 545 60 571.5 c 128,-1,25
 85 598 85 598 131 598 c 0,26,27
 161 598 161 598 183 590 c 128,-1,28
 205 582 205 582 216 571 c 128,-1,29
 227 560 227 560 233.5 545 c 128,-1,30
 240 530 240 530 241.5 520.5 c 128,-1,31
 243 511 243 511 243 502 c 2,32,-1
 243 203 l 1,33,34
 258 200 258 200 282.5 192.5 c 128,-1,35
 307 185 307 185 366 153.5 c 128,-1,36
 425 122 425 122 465 80 c 1,37,-1
 465 529 l 1,38,-1
 516 589 l 2,39,40
 521 594 521 594 529 594 c 0,41,42
 542 594 542 594 542 566 c 2,43,-1
 542 0 l 1,0,-1
121 459 m 0,44,45
 145 459 145 459 158.5 474 c 128,-1,46
 172 489 172 489 172 510 c 0,47,48
 172 530 172 530 158.5 545 c 128,-1,49
 145 560 145 560 121 560 c 0,50,51
 96 560 96 560 82.5 545 c 128,-1,52
 69 530 69 530 69 510 c 0,53,54
 69 489 69 489 82.5 474 c 128,-1,55
 96 459 96 459 121 459 c 0,44,45
102 99 m 0,56,57
 102 73 102 73 114.5 58.5 c 128,-1,58
 127 44 127 44 142 44 c 0,59,60
 152 44 152 44 159 50.5 c 128,-1,61
 166 57 166 57 166 68 c 2,62,-1
 166 157 l 2,63,64
 164 157 164 157 160.5 157.5 c 128,-1,65
 157 158 157 158 155 158 c 0,66,67
 129 158 129 158 115.5 140.5 c 128,-1,68
 102 123 102 123 102 99 c 0,56,57
EndSplineSet
EndChar

StartChar: uni0E22
Encoding: 3618 3618 245
Width: 580
GlyphClass: 2
Flags: W
LayerCount: 2
Fore
SplineSet
75 449 m 0,0,1
 75 472 75 472 81 495.5 c 128,-1,2
 87 519 87 519 101.5 543.5 c 128,-1,3
 116 568 116 568 144.5 583 c 128,-1,4
 173 598 173 598 212 598 c 0,5,6
 252 598 252 598 275 572.5 c 128,-1,7
 298 547 298 547 298 511 c 128,-1,8
 298 475 298 475 275 449 c 128,-1,9
 252 423 252 423 212 422 c 0,10,11
 196 422 196 422 183 425.5 c 128,-1,12
 170 429 170 429 165 432 c 2,13,-1
 160 436 l 1,14,-1
 160 431 l 2,15,16
 160 396 160 396 180.5 373 c 128,-1,17
 201 350 201 350 237 350 c 2,18,-1
 266 350 l 1,19,-1
 266 309 l 1,20,-1
 238 309 l 2,21,22
 206 309 206 309 185 287 c 128,-1,23
 164 265 164 265 164 232 c 2,24,-1
 164 152 l 2,25,26
 164 103 164 103 197.5 74.5 c 128,-1,27
 231 46 231 46 286 46 c 0,28,29
 342 46 342 46 370.5 72 c 128,-1,30
 399 98 399 98 399 146 c 2,31,-1
 399 526 l 1,32,-1
 447 588 l 2,33,34
 453 594 453 594 461 594 c 0,35,36
 476 594 476 594 476 563 c 2,37,-1
 476 154 l 2,38,39
 476 78 476 78 423.5 35 c 128,-1,40
 371 -8 371 -8 284 -8 c 0,41,42
 196 -8 196 -8 141 36 c 128,-1,43
 86 80 86 80 86 158 c 2,44,-1
 86 226 l 2,45,46
 86 265 86 265 108 289.5 c 128,-1,47
 130 314 130 314 160 324 c 1,48,49
 150 325 150 325 138.5 330 c 128,-1,50
 127 335 127 335 111 347 c 128,-1,51
 95 359 95 359 85 385.5 c 128,-1,52
 75 412 75 412 75 449 c 0,0,1
212 461 m 128,-1,54
 236 461 236 461 250 476 c 128,-1,55
 264 491 264 491 264 512 c 0,56,57
 264 532 264 532 250 547 c 128,-1,58
 236 562 236 562 212 562 c 128,-1,59
 188 562 188 562 174.5 547 c 128,-1,60
 161 532 161 532 161 512 c 0,61,62
 161 491 161 491 174.5 476 c 128,-1,53
 188 461 188 461 212 461 c 128,-1,54
EndSplineSet
EndChar

StartChar: uni0E23
Encoding: 3619 3619 246
Width: 462
GlyphClass: 2
Flags: W
LayerCount: 2
Fore
SplineSet
422 587 m 0,0,1
 422 581 422 581 418 569 c 128,-1,2
 414 557 414 557 404.5 540.5 c 128,-1,3
 395 524 395 524 374 512 c 128,-1,4
 353 500 353 500 325 500 c 0,5,6
 306 500 306 500 249 517 c 128,-1,7
 192 534 192 534 159 534 c 0,8,9
 129 534 129 534 111 520.5 c 128,-1,10
 93 507 93 507 80 476 c 1,11,-1
 295 420 l 2,12,13
 311 417 311 417 327.5 404.5 c 128,-1,14
 344 392 344 392 344 371 c 2,15,-1
 344 93 l 2,16,17
 344 83 344 83 342.5 73 c 128,-1,18
 341 63 341 63 334.5 48.5 c 128,-1,19
 328 34 328 34 316.5 23.5 c 128,-1,20
 305 13 305 13 282.5 5 c 128,-1,21
 260 -3 260 -3 230 -3 c 0,22,23
 185 -3 185 -3 160.5 23 c 128,-1,24
 136 49 136 49 136 85 c 128,-1,25
 136 121 136 121 160 148 c 128,-1,26
 184 175 184 175 226 175 c 0,27,28
 254 175 254 175 267 163 c 1,29,-1
 267 348 l 2,30,31
 267 361 267 361 266 367.5 c 128,-1,32
 265 374 265 374 259 381 c 128,-1,33
 253 388 253 388 241 391 c 2,34,-1
 31 446 l 1,35,36
 35 461 35 461 40.5 475.5 c 128,-1,37
 46 490 46 490 59 514 c 128,-1,38
 72 538 72 538 87.5 555 c 128,-1,39
 103 572 103 572 128.5 585 c 128,-1,40
 154 598 154 598 183 598 c 0,41,42
 209 598 209 598 266 583 c 128,-1,43
 323 568 323 568 348 568 c 0,44,45
 370 568 370 568 384 575 c 128,-1,46
 398 582 398 582 404.5 589 c 128,-1,47
 411 596 411 596 415 596 c 0,48,49
 422 596 422 596 422 587 c 0,0,1
226 35 m 128,-1,51
 250 35 250 35 263 50 c 128,-1,52
 276 65 276 65 276 86 c 128,-1,53
 276 107 276 107 263 122.5 c 128,-1,54
 250 138 250 138 226 138 c 128,-1,55
 202 138 202 138 188 122.5 c 128,-1,56
 174 107 174 107 174 86 c 0,57,58
 174 66 174 66 188 50.5 c 128,-1,50
 202 35 202 35 226 35 c 128,-1,51
EndSplineSet
EndChar

StartChar: uni0E24
Encoding: 3620 3620 247
Width: 597
GlyphClass: 2
Flags: W
LayerCount: 2
Fore
SplineSet
294 81 m 0,0,1
 294 46 294 46 270 20.5 c 128,-1,2
 246 -5 246 -5 202 -5 c 0,3,4
 170 -5 170 -5 147 7.5 c 128,-1,5
 124 20 124 20 112.5 39.5 c 128,-1,6
 101 59 101 59 96.5 77 c 128,-1,7
 92 95 92 95 92 112 c 2,8,-1
 92 324 l 2,9,10
 92 346 92 346 100.5 363 c 128,-1,11
 109 380 109 380 118 386 c 2,12,-1
 126 392 l 1,13,-1
 43 392 l 1,14,15
 44 458 44 458 80 506.5 c 128,-1,16
 116 555 116 555 168.5 577 c 128,-1,17
 221 599 221 599 281 599 c 0,18,19
 369 599 369 599 432.5 549 c 128,-1,20
 496 499 496 499 496 410 c 2,21,-1
 496 -178 l 1,22,-1
 445 -237 l 2,23,24
 440 -242 440 -242 431 -242 c 0,25,26
 418 -242 418 -242 418 -215 c 2,27,-1
 418 410 l 2,28,29
 418 479 418 479 375 514 c 128,-1,30
 332 549 332 549 269 549 c 0,31,32
 210 549 210 549 160 518.5 c 128,-1,33
 110 488 110 488 95 436 c 1,34,-1
 264 436 l 1,35,-1
 264 392 l 1,36,-1
 215 392 l 2,37,38
 197 392 197 392 186 378.5 c 128,-1,39
 175 365 175 365 173.5 354.5 c 128,-1,40
 172 344 172 344 172 335 c 2,41,-1
 172 158 l 1,42,43
 193 165 193 165 212 165 c 0,44,45
 250 165 250 165 272 140 c 128,-1,46
 294 115 294 115 294 81 c 0,0,1
209 35 m 0,47,48
 231 35 231 35 243.5 48.5 c 128,-1,49
 256 62 256 62 256 80 c 128,-1,50
 256 98 256 98 243.5 111 c 128,-1,51
 231 124 231 124 209 124 c 0,52,53
 188 124 188 124 176 111 c 128,-1,54
 164 98 164 98 164 80 c 0,55,56
 164 61 164 61 176 48 c 128,-1,57
 188 35 188 35 209 35 c 0,47,48
EndSplineSet
EndChar

StartChar: uni0E25
Encoding: 3621 3621 248
Width: 579
GlyphClass: 2
Flags: W
LayerCount: 2
Fore
SplineSet
286 82 m 0,0,1
 286 47 286 47 262 21 c 128,-1,2
 238 -5 238 -5 196 -5 c 0,3,4
 140 -5 140 -5 112 32 c 128,-1,5
 84 69 84 69 84 108 c 2,6,-1
 84 293 l 2,7,8
 84 355 84 355 133 402.5 c 128,-1,9
 182 450 182 450 257 450 c 0,10,11
 298 450 298 450 334 436 c 128,-1,12
 370 422 370 422 386 408 c 2,13,-1
 401 395 l 1,14,15
 401 539 401 539 253 539 c 0,16,17
 194 539 194 539 143 514 c 128,-1,18
 92 489 92 489 60 444 c 1,19,-1
 32 467 l 1,20,21
 117 598 117 598 267 598 c 0,22,23
 352 598 352 598 414 551 c 128,-1,24
 476 504 476 504 476 433 c 2,25,-1
 476 0 l 1,26,-1
 399 0 l 1,27,-1
 399 289 l 2,28,29
 399 337 399 337 364 369 c 128,-1,30
 329 401 329 401 278 401 c 0,31,32
 226 401 226 401 194.5 368 c 128,-1,33
 163 335 163 335 163 289 c 2,34,-1
 163 158 l 1,35,36
 184 165 184 165 204 165 c 0,37,38
 242 165 242 165 264 140.5 c 128,-1,39
 286 116 286 116 286 82 c 0,0,1
197 32 m 128,-1,41
 220 32 220 32 233 46 c 128,-1,42
 246 60 246 60 246 80 c 128,-1,43
 246 100 246 100 233 114.5 c 128,-1,44
 220 129 220 129 197 129 c 128,-1,45
 174 129 174 129 161 114.5 c 128,-1,46
 148 100 148 100 148 80 c 128,-1,47
 148 60 148 60 161 46 c 128,-1,40
 174 32 174 32 197 32 c 128,-1,41
EndSplineSet
EndChar

StartChar: uni0E26
Encoding: 3622 3622 249
Width: 611
GlyphClass: 2
Flags: W
LayerCount: 2
Fore
SplineSet
510 -178 m 1,0,-1
 459 -237 l 2,1,2
 454 -242 454 -242 445 -242 c 0,3,4
 432 -242 432 -242 432 -215 c 2,5,-1
 432 410 l 2,6,7
 432 479 432 479 388 514 c 128,-1,8
 344 549 344 549 281 549 c 0,9,10
 221 549 221 549 171 518 c 128,-1,11
 121 487 121 487 108 436 c 1,12,-1
 278 436 l 1,13,-1
 278 392 l 1,14,-1
 230 392 l 2,15,16
 214 392 214 392 204 384.5 c 128,-1,17
 194 377 194 377 190 365.5 c 128,-1,18
 186 354 186 354 185 347.5 c 128,-1,19
 184 341 184 341 184 336 c 2,20,-1
 184 83 l 2,21,22
 184 43 184 43 160 19 c 128,-1,23
 136 -5 136 -5 100 -5 c 0,24,25
 58 -5 58 -5 34.5 20.5 c 128,-1,26
 11 46 11 46 11 81 c 128,-1,27
 11 116 11 116 34.5 141 c 128,-1,28
 58 166 58 166 100 166 c 2,29,-1
 106 166 l 1,30,-1
 106 326 l 2,31,32
 106 348 106 348 114.5 364.5 c 128,-1,33
 123 381 123 381 132 386 c 2,34,-1
 140 392 l 1,35,-1
 55 392 l 1,36,37
 56 458 56 458 92 506.5 c 128,-1,38
 128 555 128 555 180.5 577 c 128,-1,39
 233 599 233 599 293 599 c 0,40,41
 382 599 382 599 446 549.5 c 128,-1,42
 510 500 510 500 510 410 c 2,43,-1
 510 -178 l 1,0,-1
100 35 m 128,-1,45
 121 35 121 35 133 48 c 128,-1,46
 145 61 145 61 145 80 c 0,47,48
 145 98 145 98 133 111 c 128,-1,49
 121 124 121 124 100 124 c 128,-1,50
 79 124 79 124 67 111 c 128,-1,51
 55 98 55 98 55 80 c 0,52,53
 55 61 55 61 67 48 c 128,-1,44
 79 35 79 35 100 35 c 128,-1,45
EndSplineSet
EndChar

